<svg width="208" height="254" viewBox="0 0 208 254" fill="none" xmlns="http://www.w3.org/2000/svg">
<path d="M104 219C154.83 219 196 177.83 196 127C196 76.17 154.83 35 104 35C53.17 35 12 76.17 12 127C12 177.83 53.17 219 104 219Z" fill="#FDFDFD" stroke="#BECCD0" stroke-width="23" stroke-miterlimit="2" stroke-linejoin="round"/>
<path d="M104 173C129.415 173 150 152.415 150 127C150 101.585 129.415 81 104 81C78.585 81 58 101.585 58 127C58 152.415 78.585 173 104 173Z" fill="#FDFDFD" stroke="#BECCD0" stroke-width="23" stroke-miterlimit="2" stroke-linejoin="round"/>
<path d="M104 138.5C110.325 138.5 115.5 133.325 115.5 127C115.5 120.675 110.325 115.5 104 115.5C97.675 115.5 92.5 120.675 92.5 127C92.5 133.325 97.675 138.5 104 138.5Z" fill="#BECCD0"/>
<path d="M46.5 201.75L23.5 242M104 35V12V35ZM184.5 242L161.5 201.75L184.5 242Z" stroke="#BECCD0" stroke-width="23" stroke-miterlimit="2" stroke-linecap="round" stroke-linejoin="round"/>
</svg>
