<svg width="499" height="365" viewBox="0 0 499 365" fill="none" xmlns="http://www.w3.org/2000/svg">
<path d="M239.396 364.94C321.709 364.94 388.437 354.645 388.437 341.945C388.437 329.245 321.709 318.949 239.396 318.949C157.083 318.949 90.3555 329.245 90.3555 341.945C90.3555 354.645 157.083 364.94 239.396 364.94Z" fill="#8EDBFF"/>
<path d="M150.466 295.639L149.689 297.316C149.197 298.377 149.659 299.635 150.719 300.126L190.929 318.757C191.99 319.249 193.248 318.787 193.74 317.726L194.517 316.049C195.008 314.989 194.547 313.73 193.486 313.239L153.276 294.608C152.216 294.117 150.957 294.578 150.466 295.639Z" fill="black"/>
<path d="M151.316 281.8L171.326 287.065L198.355 299.592L193.742 309.555C193.319 310.466 192.552 311.171 191.609 311.516C190.666 311.862 189.625 311.819 188.713 311.398L153.133 294.916L151.316 281.8Z" fill="white"/>
<path d="M190.298 312.794C189.597 312.794 188.906 312.641 188.271 312.346L152.169 295.627L150.062 280.357L171.778 286.091L199.755 299.103L194.695 310.024C194.301 310.856 193.678 311.558 192.899 312.048C192.12 312.539 191.218 312.797 190.298 312.794ZM154.101 294.2L189.155 310.445C189.482 310.599 189.837 310.686 190.198 310.702C190.559 310.718 190.92 310.663 191.259 310.538C191.598 310.414 191.91 310.223 192.175 309.978C192.44 309.732 192.654 309.436 192.804 309.108L196.98 300.098L170.967 288.045L152.574 283.206L154.101 294.2Z" fill="black"/>
<path d="M155.945 302.536L133.187 292.005C132.35 291.617 131.701 290.912 131.383 290.047C131.065 289.181 131.104 288.224 131.491 287.387C133.084 283.952 135.976 281.29 139.53 279.987C143.085 278.683 147.012 278.845 150.448 280.436C152.149 281.224 153.678 282.34 154.948 283.719C156.218 285.098 157.204 286.714 157.85 288.474C158.495 290.235 158.787 292.105 158.71 293.978C158.633 295.852 158.187 297.691 157.398 299.392L155.945 302.536Z" fill="black"/>
<path d="M335.067 80.518L323.393 81.2289C318.059 81.553 312.815 79.7452 308.813 76.2031C304.812 72.661 302.382 67.6747 302.056 62.3408L301.398 51.4882C301.256 49.1403 301.577 46.7874 302.344 44.5638C303.111 42.3403 304.309 40.2897 305.869 38.5293C307.429 36.7688 309.321 35.333 311.436 34.3039C313.551 33.2748 315.848 32.6725 318.196 32.5316L327.295 31.9787C333.879 31.5841 340.35 33.8193 345.287 38.1933C350.224 42.5673 353.222 48.7223 353.623 55.3058L353.866 59.3077C354.185 64.6132 352.384 69.8284 348.859 73.806C345.334 77.7837 340.373 80.1981 335.067 80.518Z" fill="black"/>
<path d="M135.741 343.335C135.49 343.338 135.246 343.252 135.053 343.092C134.86 342.932 134.731 342.708 134.688 342.461L106.448 180.272L63.3745 342.376C63.2964 342.637 63.1203 342.858 62.883 342.992C62.6458 343.126 62.3659 343.162 62.1022 343.094C61.8384 343.026 61.6114 342.858 61.4687 342.626C61.3259 342.394 61.2786 342.116 61.3367 341.85L106.869 170.456L136.779 342.118C136.826 342.391 136.765 342.672 136.607 342.9C136.449 343.127 136.208 343.284 135.936 343.335C135.871 343.341 135.806 343.341 135.741 343.335Z" fill="black"/>
<path d="M299.772 160.705H86.527C83.9707 160.705 81.8984 162.777 81.8984 165.333V170.736C81.8984 173.292 83.9707 175.364 86.527 175.364H299.772C302.329 175.364 304.401 173.292 304.401 170.736V165.333C304.401 162.777 302.329 160.705 299.772 160.705Z" fill="black"/>
<path d="M285.075 7.98291H247.246C241.752 7.98291 237.299 12.4363 237.299 17.9298C237.299 23.4234 241.752 27.8768 247.246 27.8768H285.075C290.568 27.8768 295.022 23.4234 295.022 17.9298C295.022 12.4363 290.568 7.98291 285.075 7.98291Z" fill="white"/>
<path d="M285.081 28.9245H247.247C245.782 28.9566 244.326 28.6958 242.964 28.1575C241.601 27.6192 240.36 26.8143 239.313 25.7899C238.266 24.7655 237.434 23.5424 236.866 22.1921C236.298 20.8419 236.006 19.3919 236.006 17.9271C236.006 16.4623 236.298 15.0122 236.866 13.662C237.434 12.3118 238.266 11.0886 239.313 10.0642C240.36 9.03985 241.601 8.2349 242.964 7.69662C244.326 7.15835 245.782 6.89759 247.247 6.92964H285.081C286.545 6.89759 288.001 7.15835 289.364 7.69662C290.726 8.2349 291.967 9.03985 293.014 10.0642C294.061 11.0886 294.893 12.3118 295.461 13.662C296.029 15.0122 296.321 16.4623 296.321 17.9271C296.321 19.3919 296.029 20.8419 295.461 22.1921C294.893 23.5424 294.061 24.7655 293.014 25.7899C291.967 26.8143 290.726 27.6192 289.364 28.1575C288.001 28.6958 286.545 28.9566 285.081 28.9245ZM247.247 9.03592C246.061 9.00706 244.881 9.2157 243.777 9.64955C242.673 10.0834 241.667 10.7337 240.818 11.5622C239.969 12.3906 239.295 13.3806 238.834 14.4736C238.374 15.5667 238.136 16.7409 238.136 17.9271C238.136 19.1132 238.374 20.2874 238.834 21.3805C239.295 22.4736 239.969 23.4635 240.818 24.292C241.667 25.1204 242.673 25.7707 243.777 26.2046C244.881 26.6384 246.061 26.8471 247.247 26.8182H285.081C286.267 26.8471 287.446 26.6384 288.55 26.2046C289.654 25.7707 290.66 25.1204 291.509 24.292C292.358 23.4635 293.032 22.4736 293.493 21.3805C293.954 20.2874 294.191 19.1132 294.191 17.9271C294.191 16.7409 293.954 15.5667 293.493 14.4736C293.032 13.3806 292.358 12.3906 291.509 11.5622C290.66 10.7337 289.654 10.0834 288.55 9.64955C287.446 9.2157 286.267 9.00706 285.081 9.03592H247.247Z" fill="black"/>
<path d="M253.724 22.7216L251.028 21.2999C250.988 21.2791 250.943 21.2683 250.899 21.2683C250.854 21.2683 250.809 21.2791 250.769 21.2999L248.073 22.7216C248.027 22.7446 247.976 22.7545 247.925 22.7501C247.874 22.7457 247.824 22.7272 247.783 22.6967C247.742 22.6662 247.71 22.6248 247.69 22.5772C247.671 22.5295 247.665 22.4775 247.673 22.4267L248.2 19.4253C248.206 19.3803 248.202 19.3345 248.187 19.2915C248.173 19.2485 248.148 19.2095 248.116 19.1778L245.936 17.0715C245.898 17.0358 245.872 16.9905 245.86 16.9406C245.847 16.8906 245.849 16.8382 245.865 16.7893C245.881 16.7404 245.91 16.697 245.95 16.664C245.989 16.631 246.037 16.6098 246.088 16.6029L249.106 16.1605C249.149 16.1552 249.191 16.1388 249.227 16.1131C249.263 16.0873 249.292 16.0529 249.311 16.0131L250.664 13.2802C250.686 13.2333 250.721 13.1937 250.765 13.166C250.809 13.1383 250.86 13.1235 250.912 13.1235C250.964 13.1235 251.014 13.1383 251.058 13.166C251.102 13.1937 251.137 13.2333 251.159 13.2802L252.507 16.0131C252.528 16.053 252.557 16.0874 252.594 16.1131C252.631 16.1388 252.673 16.1551 252.718 16.1605L255.73 16.6029C255.781 16.6098 255.829 16.631 255.868 16.664C255.908 16.697 255.937 16.7404 255.953 16.7893C255.969 16.8382 255.971 16.8906 255.958 16.9406C255.946 16.9905 255.92 17.0358 255.883 17.0715L253.702 19.1778C253.671 19.2098 253.647 19.249 253.633 19.292C253.619 19.335 253.616 19.3807 253.624 19.4253L254.15 22.4267C254.163 22.4812 254.158 22.5381 254.138 22.5902C254.118 22.6422 254.083 22.687 254.037 22.7188C253.991 22.7505 253.936 22.7678 253.881 22.7683C253.825 22.7688 253.77 22.7525 253.724 22.7216Z" fill="#FFBB45"/>
<path d="M268.989 22.7215L266.293 21.2997C266.253 21.2789 266.209 21.2681 266.164 21.2681C266.119 21.2681 266.075 21.2789 266.035 21.2997L263.339 22.7215C263.293 22.7459 263.241 22.7569 263.189 22.7532C263.137 22.7495 263.087 22.7312 263.044 22.7005C263.002 22.6698 262.969 22.6278 262.95 22.5794C262.93 22.531 262.925 22.478 262.934 22.4266L263.46 19.4251C263.469 19.3806 263.466 19.3346 263.452 19.2914C263.438 19.2482 263.414 19.2091 263.381 19.1776L261.201 17.0713C261.164 17.0357 261.138 16.9903 261.125 16.9404C261.113 16.8905 261.115 16.8381 261.131 16.7892C261.147 16.7402 261.176 16.6968 261.215 16.6638C261.255 16.6309 261.303 16.6097 261.354 16.6027L264.371 16.1604C264.415 16.155 264.457 16.1387 264.493 16.1129C264.529 16.0872 264.557 16.0528 264.577 16.0129L265.925 13.28C265.948 13.2334 265.983 13.1942 266.027 13.1667C266.072 13.1393 266.123 13.1248 266.175 13.1248C266.227 13.1248 266.278 13.1393 266.322 13.1667C266.366 13.1942 266.402 13.2334 266.425 13.28L267.773 16.0129C267.792 16.0528 267.821 16.0872 267.857 16.1129C267.893 16.1387 267.934 16.155 267.978 16.1604L270.995 16.6027C271.046 16.6097 271.094 16.6309 271.134 16.6638C271.173 16.6968 271.203 16.7402 271.219 16.7892C271.235 16.8381 271.236 16.8905 271.224 16.9404C271.211 16.9903 271.185 17.0357 271.148 17.0713L268.968 19.1776C268.936 19.2091 268.911 19.2482 268.897 19.2914C268.884 19.3346 268.881 19.3806 268.889 19.4251L269.416 22.4266C269.428 22.481 269.424 22.5379 269.404 22.59C269.384 22.6421 269.348 22.6869 269.302 22.7186C269.256 22.7504 269.202 22.7676 269.146 22.7681C269.09 22.7686 269.036 22.7524 268.989 22.7215Z" fill="#FFBB45"/>
<path d="M284.253 22.7216L281.557 21.2999C281.517 21.2791 281.473 21.2683 281.428 21.2683C281.383 21.2683 281.339 21.2791 281.299 21.2999L278.603 22.7216C278.557 22.7461 278.505 22.7571 278.452 22.7533C278.4 22.7496 278.35 22.7314 278.308 22.7007C278.266 22.67 278.233 22.628 278.213 22.5796C278.194 22.5311 278.188 22.4782 278.197 22.4267L278.724 19.4253C278.731 19.3807 278.728 19.335 278.714 19.292C278.701 19.249 278.677 19.2098 278.645 19.1778L276.465 17.0715C276.428 17.0358 276.402 16.9905 276.389 16.9406C276.377 16.8906 276.378 16.8382 276.394 16.7893C276.41 16.7404 276.44 16.697 276.479 16.664C276.519 16.631 276.567 16.6098 276.618 16.6029L279.63 16.1605C279.674 16.1547 279.716 16.1382 279.753 16.1125C279.79 16.0869 279.819 16.0528 279.84 16.0131L281.188 13.2802C281.21 13.2333 281.245 13.1937 281.289 13.166C281.333 13.1383 281.384 13.1235 281.436 13.1235C281.488 13.1235 281.538 13.1383 281.582 13.166C281.626 13.1937 281.661 13.2333 281.683 13.2802L283.031 16.0131C283.052 16.0528 283.082 16.0869 283.119 16.1125C283.155 16.1382 283.197 16.1547 283.242 16.1605L286.259 16.6029C286.31 16.6098 286.358 16.631 286.398 16.664C286.437 16.697 286.466 16.7404 286.482 16.7893C286.498 16.8382 286.5 16.8906 286.488 16.9406C286.475 16.9905 286.449 17.0358 286.412 17.0715L284.227 19.1778C284.195 19.2098 284.171 19.249 284.157 19.292C284.143 19.335 284.14 19.3807 284.148 19.4253L284.674 22.4267C284.686 22.4804 284.681 22.5362 284.661 22.5873C284.641 22.6384 284.606 22.6824 284.561 22.7139C284.516 22.7454 284.463 22.7629 284.408 22.7642C284.353 22.7656 284.299 22.7508 284.253 22.7216Z" fill="#FFBB45"/>
<path d="M258.625 38.2505H124.613C119.023 38.2505 114.492 42.7817 114.492 48.3712V131.196C114.492 136.785 119.023 141.316 124.613 141.316H258.625C264.215 141.316 268.746 136.785 268.746 131.196V48.3712C268.746 42.7817 264.215 38.2505 258.625 38.2505Z" fill="black"/>
<path d="M250.822 47.144H132.417C128.157 47.144 124.703 50.5978 124.703 54.8583V126.783C124.703 131.043 128.157 134.497 132.417 134.497H250.822C255.083 134.497 258.536 131.043 258.536 126.783V54.8583C258.536 50.5978 255.083 47.144 250.822 47.144Z" fill="white"/>
<path d="M200.961 61.7402H167.356C164.372 61.7402 161.953 64.1591 161.953 67.1428V117.236C161.953 120.219 164.372 122.638 167.356 122.638H200.961C203.945 122.638 206.364 120.219 206.364 117.236V67.1428C206.364 64.1591 203.945 61.7402 200.961 61.7402Z" fill="#6DC8C2"/>
<path d="M149.925 60.0872H138.062C136.814 60.0872 135.803 61.0985 135.803 62.3462V74.2098C135.803 75.4574 136.814 76.4688 138.062 76.4688H149.925C151.173 76.4688 152.184 75.4574 152.184 74.2098V62.3462C152.184 61.0985 151.173 60.0872 149.925 60.0872Z" fill="#02A9F7"/>
<path d="M149.488 84.1726H138.499C137.01 84.1726 135.803 85.3797 135.803 86.8687V97.8582C135.803 99.3472 137.01 100.554 138.499 100.554H149.488C150.977 100.554 152.184 99.3472 152.184 97.8582V86.8687C152.184 85.3797 150.977 84.1726 149.488 84.1726Z" fill="#002E42"/>
<path d="M149.457 108.252H138.53C137.024 108.252 135.803 109.474 135.803 110.98V121.906C135.803 123.413 137.024 124.634 138.53 124.634H149.457C150.963 124.634 152.184 123.413 152.184 121.906V110.98C152.184 109.474 150.963 108.252 149.457 108.252Z" fill="#FFBB45"/>
<path d="M250.238 63.9835H215.084C214.805 63.9835 214.537 63.8725 214.34 63.675C214.142 63.4775 214.031 63.2096 214.031 62.9303C214.031 62.651 214.142 62.3832 214.34 62.1857C214.537 61.9882 214.805 61.8772 215.084 61.8772H250.238C250.518 61.8772 250.785 61.9882 250.983 62.1857C251.18 62.3832 251.291 62.651 251.291 62.9303C251.291 63.2096 251.18 63.4775 250.983 63.675C250.785 63.8725 250.518 63.9835 250.238 63.9835Z" fill="black"/>
<path d="M250.238 73.7308H215.084C214.805 73.7308 214.537 73.6198 214.34 73.4223C214.142 73.2248 214.031 72.957 214.031 72.6777C214.031 72.3983 214.142 72.1305 214.34 71.933C214.537 71.7355 214.805 71.6245 215.084 71.6245H250.238C250.518 71.6245 250.785 71.7355 250.983 71.933C251.18 72.1305 251.291 72.3983 251.291 72.6777C251.291 72.957 251.18 73.2248 250.983 73.4223C250.785 73.6198 250.518 73.7308 250.238 73.7308Z" fill="black"/>
<path d="M239.322 83.43H215.1C214.821 83.43 214.553 83.3191 214.355 83.1216C214.158 82.9241 214.047 82.6562 214.047 82.3769C214.047 82.0976 214.158 81.8297 214.355 81.6322C214.553 81.4347 214.821 81.3237 215.1 81.3237H239.322C239.602 81.3237 239.869 81.4347 240.067 81.6322C240.264 81.8297 240.375 82.0976 240.375 82.3769C240.375 82.6562 240.264 82.9241 240.067 83.1216C239.869 83.3191 239.602 83.43 239.322 83.43Z" fill="black"/>
<path d="M233.386 90.7598H218.737C216.158 90.7598 214.066 92.8509 214.066 95.4304C214.066 98.01 216.158 100.101 218.737 100.101H233.386C235.966 100.101 238.057 98.01 238.057 95.4304C238.057 92.8509 235.966 90.7598 233.386 90.7598Z" fill="#0DE0B1"/>
<path d="M247.81 99.822C250.233 99.822 252.197 97.8582 252.197 95.4356C252.197 93.0131 250.233 91.0493 247.81 91.0493C245.388 91.0493 243.424 93.0131 243.424 95.4356C243.424 97.8582 245.388 99.822 247.81 99.822Z" fill="#FB6D6D"/>
<path d="M193.01 160.704H156.318L171.341 141.316H209.539L193.01 160.704Z" fill="black"/>
<path d="M351.671 228.627C351.584 228.627 351.497 228.616 351.413 228.595C351.279 228.561 351.153 228.501 351.041 228.419C350.93 228.336 350.837 228.232 350.766 228.114C350.695 227.995 350.648 227.863 350.628 227.726C350.608 227.589 350.615 227.45 350.649 227.316L364.509 172.552C364.579 172.281 364.753 172.049 364.994 171.907C365.235 171.765 365.523 171.724 365.794 171.794C366.064 171.864 366.297 172.038 366.439 172.279C366.581 172.52 366.622 172.808 366.552 173.079L352.692 227.842C352.633 228.067 352.5 228.267 352.316 228.409C352.131 228.551 351.904 228.627 351.671 228.627Z" fill="black"/>
<path d="M275.555 341.034C275.508 341.039 275.46 341.039 275.413 341.034C275.276 341.016 275.143 340.971 275.024 340.901C274.904 340.832 274.799 340.74 274.715 340.629C274.63 340.519 274.569 340.394 274.533 340.26C274.498 340.126 274.489 339.986 274.507 339.849L288.688 235.162C288.706 235.023 288.752 234.89 288.822 234.769C288.891 234.648 288.984 234.543 289.095 234.458C289.206 234.373 289.332 234.311 289.467 234.275C289.602 234.239 289.742 234.23 289.881 234.248C290.019 234.266 290.152 234.312 290.273 234.382C290.394 234.451 290.5 234.544 290.585 234.655C290.669 234.766 290.732 234.892 290.768 235.027C290.804 235.162 290.813 235.302 290.794 235.441L276.598 340.123C276.564 340.375 276.439 340.606 276.247 340.774C276.056 340.941 275.81 341.034 275.555 341.034Z" fill="black"/>
<path d="M367.138 116.115L356.457 163.168C355.556 167.135 358.043 171.082 362.01 171.982L370.052 173.808C374.019 174.709 377.966 172.222 378.866 168.255L389.548 121.202C390.449 117.235 387.962 113.288 383.995 112.388L375.953 110.562C371.986 109.661 368.039 112.148 367.138 116.115Z" fill="#B5BEC3"/>
<path d="M352.414 341.034C352.159 341.036 351.911 340.946 351.717 340.779C351.523 340.613 351.397 340.381 351.361 340.128L336.559 235.435C336.52 235.156 336.593 234.872 336.763 234.647C336.933 234.422 337.185 234.274 337.465 234.235C337.744 234.196 338.028 234.269 338.253 234.439C338.478 234.609 338.626 234.861 338.665 235.14L353.462 339.833C353.501 340.11 353.429 340.39 353.261 340.614C353.093 340.837 352.843 340.984 352.567 341.023C352.517 341.032 352.465 341.036 352.414 341.034Z" fill="black"/>
<path d="M347.511 306.333H280.252C279.973 306.333 279.705 306.222 279.508 306.024C279.31 305.827 279.199 305.559 279.199 305.279C279.199 305 279.31 304.732 279.508 304.535C279.705 304.337 279.973 304.226 280.252 304.226H347.511C347.791 304.226 348.058 304.337 348.256 304.535C348.453 304.732 348.564 305 348.564 305.279C348.564 305.559 348.453 305.827 348.256 306.024C348.058 306.222 347.791 306.333 347.511 306.333Z" fill="black"/>
<path d="M346.579 210.581H282.832C278.813 210.581 275.555 213.839 275.555 217.858V228.011C275.555 232.03 278.813 235.288 282.832 235.288H346.579C350.598 235.288 353.856 232.03 353.856 228.011V217.858C353.856 213.839 350.598 210.581 346.579 210.581Z" fill="#B5BEC3"/>
<path d="M355.794 50.6663C364.417 50.6663 371.407 43.6762 371.407 35.0535C371.407 26.4308 364.417 19.4407 355.794 19.4407C347.172 19.4407 340.182 26.4308 340.182 35.0535C340.182 43.6762 347.172 50.6663 355.794 50.6663Z" fill="black"/>
<path d="M384.461 41.915C396.036 41.915 405.419 32.532 405.419 20.9575C405.419 9.383 396.036 0 384.461 0C372.887 0 363.504 9.383 363.504 20.9575C363.504 32.532 372.887 41.915 384.461 41.915Z" fill="black"/>
<path d="M345.593 64.605C345.593 62.7895 344.872 61.0483 343.588 59.7645C342.305 58.4808 340.563 57.7596 338.748 57.7596C338.427 57.7628 338.107 57.7874 337.79 57.8333L336.478 39.8667L310.924 42.6101C308.299 42.8897 305.871 44.1303 304.107 46.0931C302.342 48.056 301.366 50.6022 301.367 53.2416V56.1325C301.39 59.4828 300.458 62.7703 298.681 65.6107L298.634 65.6792V65.7055C298.44 65.9981 298.311 66.3287 298.254 66.6752C298.198 67.0217 298.217 67.3762 298.308 67.715C298.4 68.0538 298.563 68.3692 298.786 68.6402C299.009 68.9111 299.288 69.1313 299.603 69.2862L301.382 70.1603V76.932C301.382 78.2781 301.674 79.6083 302.236 80.8311C302.799 82.0539 303.62 83.1403 304.643 84.0154C305.666 84.8906 306.866 85.5339 308.161 85.9009C309.456 86.268 310.816 86.3501 312.146 86.1418L318.707 85.1202L320.023 96.373L340.912 93.9087L339.496 81.8976H339.559L338.795 71.4452C340.602 71.4327 342.33 70.7066 343.603 69.4254C344.877 68.1441 345.592 66.4114 345.593 64.605Z" fill="white"/>
<path d="M319.103 97.5424L317.781 86.3685L312.305 87.2216C310.825 87.4527 309.313 87.3606 307.872 86.9516C306.431 86.5426 305.095 85.8264 303.958 84.8522C302.82 83.878 301.906 82.6689 301.28 81.3081C300.654 79.9474 300.33 78.4671 300.331 76.9692V70.8452L299.136 70.2607C298.69 70.044 298.297 69.7353 297.98 69.3549C297.663 68.9746 297.43 68.5313 297.298 68.0544C297.166 67.5672 297.137 67.0577 297.214 66.5588C297.291 66.0599 297.472 65.5828 297.745 65.1583L297.803 65.0687C299.48 62.3957 300.357 59.2987 300.331 56.1434V53.2525C300.325 50.3532 301.394 47.5546 303.332 45.3975C305.269 43.2405 307.937 41.8779 310.82 41.5731L337.459 38.7139L338.776 56.7173C340.743 56.7571 342.624 57.5295 344.052 58.8835C345.479 60.2375 346.35 62.0756 346.494 64.0378C346.637 66.0001 346.043 67.9453 344.828 69.4927C343.613 71.04 341.864 72.0782 339.924 72.4039L340.677 82.7826L342.098 94.8305L319.103 97.5424ZM319.63 83.9358L320.957 95.2044L339.755 92.9875L338.344 81.0186H338.449L337.675 70.4082H338.802C340.338 70.404 341.81 69.7897 342.893 68.7005C343.977 67.6113 344.583 66.1363 344.579 64.6001C344.574 63.0639 343.96 61.5923 342.871 60.509C341.782 59.4257 340.307 58.8194 338.771 58.8236C338.499 58.8263 338.228 58.8474 337.96 58.8868L336.843 59.0448L335.506 41.0413L311.031 43.6742C308.665 43.9242 306.475 45.0422 304.885 46.8121C303.295 48.5821 302.417 50.8785 302.421 53.2578V56.1486C302.448 59.7053 301.455 63.1952 299.562 66.2061L299.509 66.2904C299.394 66.4663 299.317 66.6647 299.283 66.8725C299.25 67.0803 299.26 67.2928 299.315 67.4962C299.366 67.6868 299.458 67.864 299.585 68.0157C299.711 68.1674 299.868 68.2902 300.046 68.3756L302.421 69.5341V76.964C302.422 78.1575 302.68 79.3367 303.179 80.4209C303.678 81.505 304.406 82.4683 305.312 83.2447C306.219 84.0211 307.283 84.5921 308.43 84.9186C309.578 85.2452 310.783 85.3194 311.963 85.1364L319.63 83.9358Z" fill="black"/>
<path d="M308.125 78.0324C307.857 78.0325 307.589 78.0096 307.325 77.9639C306.307 77.7879 305.363 77.3195 304.608 76.6159C304.398 76.4274 304.272 76.1633 304.257 75.8819C304.243 75.6005 304.34 75.3247 304.529 75.1152C304.717 74.9057 304.981 74.7797 305.263 74.7649C305.544 74.7501 305.82 74.8477 306.029 75.0362C306.487 75.46 307.054 75.7465 307.667 75.8629C309.615 76.1841 311.148 74.2832 311.163 74.2832C311.339 74.0757 311.589 73.9444 311.859 73.9166C312.13 73.8889 312.401 73.9669 312.615 74.1343C312.829 74.3017 312.971 74.5455 313.009 74.8147C313.048 75.0839 312.981 75.3576 312.822 75.5786C312.712 75.6997 310.853 78.0324 308.125 78.0324Z" fill="black"/>
<path d="M312.436 63.7573C313.352 63.7573 314.095 63.0147 314.095 62.0986C314.095 61.1826 313.352 60.4399 312.436 60.4399C311.52 60.4399 310.777 61.1826 310.777 62.0986C310.777 63.0147 311.52 63.7573 312.436 63.7573Z" fill="black"/>
<path d="M338.056 68.1596C337.495 68.1596 336.948 67.9934 336.482 67.6821C336.016 67.3708 335.653 66.9284 335.438 66.4107C335.224 65.8931 335.168 65.3235 335.277 64.7739C335.386 64.2244 335.656 63.7196 336.052 63.3234C336.449 62.9272 336.953 62.6574 337.503 62.5481C338.052 62.4388 338.622 62.4949 339.14 62.7093C339.657 62.9237 340.1 63.2868 340.411 63.7527C340.722 64.2186 340.889 64.7663 340.889 65.3266C340.889 66.078 340.59 66.7985 340.059 67.3298C339.528 67.8611 338.807 68.1596 338.056 68.1596ZM338.056 64.5999C337.912 64.5999 337.771 64.6426 337.652 64.7224C337.532 64.8023 337.439 64.9157 337.384 65.0485C337.329 65.1813 337.315 65.3274 337.343 65.4684C337.371 65.6093 337.44 65.7388 337.542 65.8404C337.643 65.9421 337.773 66.0113 337.914 66.0393C338.055 66.0674 338.201 66.053 338.334 65.998C338.466 65.943 338.58 65.8498 338.66 65.7303C338.74 65.6108 338.782 65.4703 338.782 65.3266C338.782 65.1339 338.706 64.949 338.569 64.8128C338.433 64.6765 338.248 64.5999 338.056 64.5999Z" fill="black"/>
<path d="M321.098 93.5298L353.145 92.0765C357.938 91.8086 362.644 93.4457 366.235 96.6313C370.853 100.844 374.466 108.579 369.437 122.639L362.36 135.829L322.34 130.985L315.427 144.433L290.309 147.303C289.688 147.372 287.766 144.065 287.497 143.649C285.498 140.602 284.196 137.152 283.685 133.544C282.368 123.265 290.004 115.009 295.917 107.494C302.194 99.4801 310.535 94.009 321.098 93.5298Z" fill="#8EDBFF"/>
<path d="M336.336 66.843C336.089 66.8478 335.848 66.7654 335.655 66.6104C335.463 66.4555 335.331 66.2377 335.283 65.9953C335.14 65.2867 335.185 64.553 335.414 63.8674C335.643 63.1818 336.048 62.5683 336.589 62.0881C337.112 61.6512 337.731 61.3446 338.396 61.1935C339.06 61.0425 339.751 61.0513 340.412 61.2193C340.545 61.2562 340.67 61.3192 340.779 61.4044C340.888 61.4897 340.98 61.5956 341.048 61.7161C341.116 61.8367 341.16 61.9694 341.177 62.1069C341.194 62.2444 341.183 62.3838 341.146 62.5172C341.109 62.6507 341.046 62.7756 340.961 62.8847C340.876 62.9939 340.77 63.0852 340.649 63.1534C340.529 63.2216 340.396 63.2654 340.259 63.2823C340.121 63.2992 339.982 63.2888 339.848 63.2518C339.526 63.1735 339.189 63.1703 338.865 63.2424C338.541 63.3145 338.238 63.4601 337.979 63.6678C337.716 63.9038 337.52 64.2043 337.409 64.5396C337.298 64.8748 337.277 65.2332 337.347 65.5793C337.375 65.7148 337.375 65.8545 337.349 65.9903C337.323 66.1261 337.27 66.2554 337.194 66.3708C337.117 66.4862 337.019 66.5854 336.904 66.6629C336.79 66.7403 336.661 66.7943 336.526 66.822C336.463 66.833 336.4 66.84 336.336 66.843Z" fill="black"/>
<path d="M310.936 42.6209C310.936 42.6209 310.593 63.8364 338.007 57.8124L336.49 39.8774L310.936 42.6209Z" fill="black"/>
<path d="M312.82 71.3134C308.471 71.3134 304.922 67.2114 304.922 62.1616C304.922 57.1118 308.466 53.0098 312.82 53.0098C317.175 53.0098 320.719 57.117 320.719 62.1616C320.719 67.2061 317.175 71.3134 312.82 71.3134ZM312.82 55.116C309.629 55.116 307.028 58.2755 307.028 62.1616C307.028 66.0477 309.624 69.2071 312.82 69.2071C316.017 69.2071 318.613 66.0477 318.613 62.1616C318.613 58.2755 316.022 55.116 312.82 55.116Z" fill="black"/>
<path d="M348.901 182.146H308.65V155.428H345.842C348.47 164.076 349.513 173.127 348.923 182.146H348.901Z" fill="black"/>
<path d="M247.427 160.704H226.691C225.536 160.706 224.396 160.439 223.362 159.925C222.327 159.41 221.427 158.662 220.732 157.74C220.037 156.817 219.566 155.745 219.356 154.609C219.146 153.473 219.204 152.304 219.524 151.194C219.959 149.703 220.866 148.393 222.109 147.461C223.352 146.53 224.864 146.027 226.417 146.029H247.696C249.194 146.028 250.654 146.496 251.873 147.368C253.091 148.239 254.006 149.471 254.489 150.889C254.867 152.009 254.973 153.203 254.798 154.372C254.622 155.541 254.171 156.651 253.48 157.611C252.79 158.571 251.881 159.352 250.828 159.89C249.775 160.428 248.609 160.707 247.427 160.704Z" fill="#F3EAD6"/>
<path d="M321.719 130.984L314.905 144.433L275.66 148.34C274.192 148.487 272.714 148.203 271.405 147.524L254.413 138.699C254.413 138.699 248.478 135.376 239.9 138.957L225.451 145.512C224.844 145.775 224.335 146.22 223.995 146.787C223.655 147.354 223.501 148.013 223.556 148.672V148.703C223.592 148.973 223.685 149.232 223.829 149.462C223.974 149.693 224.166 149.89 224.393 150.039C224.621 150.189 224.877 150.288 225.146 150.33C225.415 150.373 225.689 150.356 225.951 150.283L241.248 145.992L234.082 152.474C233.027 153.419 232.291 154.668 231.975 156.049C231.491 158.298 232.075 161.346 237.899 162.737C237.899 162.737 240.58 167.239 245.14 164.843C245.166 164.843 245.814 165.417 245.866 165.454C246.578 166.003 247.34 166.484 248.141 166.891C250.651 168.139 253.397 168.837 256.198 168.94C257.935 169.024 259.568 168.266 259.794 166.38L261.258 166.533C265.822 167 270.366 167.671 274.891 168.545L309.502 175.237C318.981 176.58 325.763 174.553 329.223 173.184C339.333 169.187 345.883 162.078 351.138 153.048L361.143 135.824L321.719 130.984Z" fill="white"/>
<path d="M315.692 176.743C313.578 176.739 311.466 176.586 309.374 176.285H309.321L274.688 169.566C270.223 168.703 265.668 168.034 261.15 167.565L260.581 167.507C259.939 169.124 258.265 170.088 256.142 169.982C253.192 169.869 250.299 169.132 247.654 167.818C246.798 167.378 245.982 166.864 245.216 166.28L245.011 166.101L244.974 166.07C241.288 167.613 238.455 165.38 237.239 163.642C230.672 161.92 230.467 158.013 230.92 155.812C231.282 154.21 232.141 152.764 233.374 151.679L237.228 148.193L226.202 151.273C225.797 151.387 225.372 151.413 224.956 151.349C224.54 151.285 224.142 151.133 223.79 150.903C223.437 150.674 223.138 150.371 222.912 150.016C222.686 149.661 222.538 149.262 222.479 148.846C222.384 147.959 222.574 147.066 223.019 146.293C223.465 145.521 224.144 144.91 224.959 144.549L239.466 137.982C248.444 134.233 254.668 137.619 254.931 137.767L271.871 146.571C273.004 147.162 274.286 147.407 275.557 147.276L314.223 143.427L321.111 129.836L362.889 134.976L352.057 153.585C346.012 163.963 338.893 170.503 329.62 174.168C325.182 175.9 320.456 176.773 315.692 176.743ZM309.674 174.2C316.572 175.174 323.022 174.505 328.836 172.21C337.756 168.682 344.354 162.61 350.225 152.526L359.45 136.677L322.343 132.122L315.603 145.423L275.784 149.388C274.112 149.555 272.429 149.231 270.939 148.456L253.968 139.636C253.715 139.499 248.302 136.603 240.345 139.931L225.886 146.471C225.483 146.639 225.143 146.928 224.912 147.298C224.681 147.667 224.571 148.1 224.596 148.535C224.611 148.657 224.652 148.775 224.717 148.88C224.782 148.985 224.868 149.075 224.97 149.144C225.072 149.212 225.188 149.259 225.31 149.279C225.431 149.299 225.556 149.293 225.675 149.262L245.285 143.764L234.811 153.243C233.906 154.032 233.273 155.085 233 156.254C232.426 158.914 234.153 160.746 238.139 161.694L238.571 161.799L238.797 162.184C239.024 162.552 241.104 165.759 244.647 163.895C245.311 163.548 245.748 163.937 246.411 164.527L246.533 164.638C247.194 165.136 247.899 165.575 248.639 165.949C251.016 167.122 253.614 167.779 256.264 167.876C256.953 167.908 258.575 167.823 258.76 166.244L258.881 165.19L261.382 165.448C265.958 165.917 270.576 166.596 275.104 167.476L309.674 174.2Z" fill="black"/>
<path d="M261.88 334.204H217.564C216.395 334.204 215.447 335.152 215.447 336.321V338.169C215.447 339.338 216.395 340.286 217.564 340.286H261.88C263.049 340.286 263.997 339.338 263.997 338.169V336.321C263.997 335.152 263.049 334.204 261.88 334.204Z" fill="black"/>
<path d="M210.398 323.415L230.766 319.781H260.56V330.766C260.56 331.77 260.161 332.733 259.451 333.443C258.741 334.153 257.778 334.552 256.774 334.552H217.555L210.398 323.415Z" fill="white"/>
<path d="M256.772 335.605H216.99L208.654 322.656L230.77 318.728H261.617V330.765C261.615 332.049 261.104 333.28 260.196 334.188C259.288 335.095 258.056 335.605 256.772 335.605ZM218.138 333.498H256.772C257.497 333.497 258.191 333.209 258.703 332.696C259.215 332.184 259.504 331.49 259.505 330.765V320.834H230.86L212.135 324.173L218.138 333.498Z" fill="black"/>
<path d="M185.132 299.008L172.89 290.057C171.002 288.68 169.404 286.946 168.187 284.952C166.97 282.958 166.157 280.744 165.796 278.436C165.435 276.128 165.532 273.771 166.081 271.501C166.63 269.23 167.622 267.09 168.998 265.203L222.34 192.051C224.358 189.282 226.903 186.938 229.827 185.153C232.752 183.367 235.999 182.175 239.385 181.645C242.77 181.115 246.227 181.257 249.557 182.063C252.887 182.87 256.026 184.324 258.794 186.343C261.563 188.362 263.908 190.906 265.693 193.83C267.479 196.755 268.67 200.003 269.2 203.388C269.731 206.773 269.588 210.23 268.782 213.56C267.976 216.891 266.522 220.03 264.502 222.798L212.014 294.801C209.007 298.923 204.486 301.683 199.444 302.472C194.403 303.261 189.255 302.015 185.132 299.008Z" fill="black"/>
<path d="M312.41 219.59H219.207V201.276C219.208 194.23 222.008 187.473 226.991 182.491C231.974 177.509 238.732 174.711 245.778 174.711H348.901V183.099C348.901 192.777 345.057 202.059 338.213 208.902C331.37 215.746 322.088 219.59 312.41 219.59Z" fill="black"/>
<path d="M252.171 322.356H237.037C232.319 322.356 227.794 320.482 224.457 317.147C221.121 313.811 219.246 309.287 219.244 304.569V217.342H271.427V303.115C271.428 305.644 270.93 308.147 269.963 310.483C268.995 312.819 267.576 314.941 265.788 316.728C263.999 318.515 261.876 319.932 259.539 320.898C257.203 321.863 254.699 322.359 252.171 322.356Z" fill="black"/>
<path d="M191.39 299.376C191.197 299.376 191.008 299.322 190.844 299.222C190.68 299.122 190.546 298.978 190.458 298.807C190.369 298.636 190.329 298.444 190.342 298.252C190.355 298.06 190.421 297.875 190.531 297.718L218.366 258.225C218.527 257.997 218.773 257.842 219.048 257.794C219.324 257.747 219.607 257.811 219.835 257.972C220.063 258.134 220.218 258.379 220.266 258.654C220.313 258.93 220.249 259.213 220.088 259.441L192.253 298.934C192.155 299.072 192.026 299.184 191.875 299.261C191.725 299.338 191.559 299.377 191.39 299.376Z" fill="white"/>
<path d="M254.885 323.214C254.606 323.214 254.338 323.103 254.14 322.906C253.943 322.708 253.832 322.441 253.832 322.161V215.173C253.835 211.211 255.409 207.412 258.21 204.61C261.011 201.809 264.809 200.233 268.771 200.228H309.728C314.03 200.224 318.156 198.513 321.198 195.471C324.241 192.428 325.952 188.302 325.956 184V174.711C325.956 174.432 326.067 174.164 326.265 173.966C326.462 173.769 326.73 173.658 327.01 173.658C327.289 173.658 327.557 173.769 327.754 173.966C327.952 174.164 328.063 174.432 328.063 174.711V184C328.057 188.861 326.124 193.521 322.686 196.958C319.249 200.396 314.589 202.329 309.728 202.335H268.771C265.368 202.339 262.105 203.693 259.7 206.1C257.294 208.507 255.941 211.77 255.938 215.173V322.161C255.938 322.441 255.827 322.708 255.63 322.906C255.432 323.103 255.164 323.214 254.885 323.214Z" fill="white"/>
<path d="M237.89 163.774C237.663 163.773 237.443 163.698 237.262 163.562C237.08 163.425 236.948 163.234 236.885 163.016C234.441 154.649 243.409 149.478 243.504 149.425C243.624 149.356 243.757 149.311 243.894 149.293C244.032 149.275 244.172 149.285 244.306 149.321C244.44 149.357 244.565 149.419 244.675 149.504C244.785 149.589 244.877 149.694 244.946 149.815C245.016 149.935 245.06 150.068 245.078 150.205C245.096 150.343 245.087 150.483 245.05 150.617C245.014 150.751 244.952 150.876 244.867 150.986C244.783 151.096 244.677 151.188 244.557 151.257C243.184 152.104 241.951 153.16 240.902 154.385C238.796 156.923 238.106 159.625 238.928 162.426C239.006 162.694 238.974 162.982 238.84 163.227C238.706 163.472 238.48 163.654 238.212 163.732C238.107 163.761 237.999 163.775 237.89 163.774Z" fill="black"/>
<path d="M245.135 165.88C244.963 165.88 244.794 165.837 244.643 165.756C244.492 165.676 244.362 165.559 244.266 165.417C243.697 164.644 243.302 163.757 243.11 162.817C242.917 161.877 242.931 160.906 243.15 159.972C244.203 155.538 249.558 152.521 249.79 152.395C249.911 152.318 250.046 152.266 250.188 152.244C250.33 152.221 250.475 152.227 250.614 152.263C250.753 152.298 250.884 152.361 250.997 152.449C251.111 152.536 251.206 152.646 251.276 152.772C251.345 152.897 251.389 153.036 251.403 153.178C251.417 153.321 251.402 153.466 251.359 153.602C251.315 153.739 251.244 153.866 251.15 153.974C251.056 154.082 250.941 154.17 250.811 154.233C250.727 154.285 246.03 156.95 245.198 160.462C245.049 161.111 245.044 161.785 245.183 162.436C245.323 163.088 245.603 163.701 246.004 164.232C246.112 164.39 246.175 164.575 246.186 164.767C246.197 164.958 246.156 165.149 246.066 165.318C245.977 165.488 245.843 165.63 245.679 165.729C245.515 165.828 245.327 165.88 245.135 165.88Z" fill="black"/>
<path d="M259.79 167.46C259.531 167.462 259.281 167.368 259.086 167.197C258.892 167.027 258.768 166.79 258.737 166.533C258.531 164.848 255.103 162.847 253.471 162.157L252.018 161.536L257.062 156.655C257.265 156.476 257.53 156.382 257.8 156.392C258.071 156.403 258.327 156.517 258.515 156.712C258.704 156.906 258.81 157.166 258.812 157.437C258.814 157.708 258.712 157.969 258.526 158.166L255.698 160.904C257.547 161.894 260.527 163.853 260.822 166.28C260.855 166.557 260.777 166.835 260.605 167.054C260.433 167.273 260.182 167.415 259.906 167.449L259.79 167.46Z" fill="black"/>
<path d="M223.298 340.291H198.217C197.294 340.291 196.409 339.924 195.756 339.272C195.103 338.619 194.736 337.734 194.736 336.81C194.738 333.023 196.243 329.392 198.921 326.714C201.598 324.036 205.23 322.531 209.017 322.53C212.804 322.53 216.437 324.034 219.115 326.712C221.793 329.391 223.298 333.023 223.298 336.81V340.291Z" fill="black"/>
<path d="M319.665 61.7089C319.386 61.7243 319.112 61.6281 318.904 61.4414C318.695 61.2548 318.57 60.993 318.554 60.7137C318.539 60.4344 318.635 60.1604 318.822 59.952C319.008 59.7437 319.27 59.618 319.55 59.6026L336.158 57.7649C336.437 57.7342 336.717 57.8157 336.936 57.9915C337.155 58.1672 337.296 58.4229 337.327 58.7022C337.357 58.9815 337.276 59.2616 337.1 59.4808C336.924 59.7 336.669 59.8405 336.389 59.8712L319.781 61.7037L319.665 61.7089Z" fill="black"/>
<path d="M318.834 84.0671L319.576 90.386L330.571 83.1351C330.649 83.0854 330.706 83.0107 330.735 82.9234C330.764 82.8361 330.762 82.7417 330.729 82.6558C330.696 82.57 330.635 82.498 330.555 82.452C330.476 82.406 330.383 82.3887 330.292 82.4031L318.834 84.0671Z" fill="black"/>
<path d="M321.72 132.038C321.575 132.039 321.432 132.01 321.298 131.954C321.046 131.839 320.849 131.629 320.75 131.369C320.652 131.11 320.66 130.822 320.772 130.569L325.09 120.627C325.143 120.498 325.222 120.381 325.321 120.283C325.421 120.185 325.538 120.108 325.668 120.056C325.797 120.004 325.936 119.978 326.075 119.979C326.215 119.981 326.352 120.011 326.48 120.066C326.608 120.121 326.724 120.202 326.821 120.302C326.918 120.403 326.993 120.522 327.044 120.652C327.094 120.782 327.118 120.921 327.114 121.06C327.111 121.2 327.079 121.337 327.022 121.464L322.699 131.406C322.616 131.596 322.479 131.757 322.305 131.87C322.131 131.982 321.927 132.041 321.72 132.038Z" fill="black"/>
<path d="M219.543 283.89C219.264 283.89 218.996 283.779 218.799 283.582C218.601 283.384 218.49 283.116 218.49 282.837V197.153C218.49 196.874 218.601 196.606 218.799 196.409C218.996 196.211 219.264 196.1 219.543 196.1C219.823 196.1 220.091 196.211 220.288 196.409C220.486 196.606 220.597 196.874 220.597 197.153V282.837C220.597 283.116 220.486 283.384 220.288 283.582C220.091 283.779 219.823 283.89 219.543 283.89Z" fill="white"/>
<path d="M486.301 60.4241H390.523C384.09 60.4241 378.875 65.6389 378.875 72.0718V130.563C378.875 136.996 384.09 142.211 390.523 142.211H486.301C492.734 142.211 497.948 136.996 497.948 130.563V72.0718C497.948 65.6389 492.734 60.4241 486.301 60.4241Z" fill="white"/>
<path d="M486.299 143.264H390.521C387.154 143.26 383.926 141.92 381.545 139.54C379.164 137.159 377.824 133.93 377.82 130.563V72.0717C377.824 68.7045 379.164 65.4764 381.545 63.0955C383.926 60.7145 387.154 59.375 390.521 59.3708H486.299C489.666 59.375 492.894 60.7145 495.275 63.0955C497.656 65.4764 498.996 68.7045 499 72.0717V130.563C498.996 133.93 497.656 137.159 495.275 139.54C492.894 141.92 489.666 143.26 486.299 143.264ZM390.521 61.4771C387.712 61.4799 385.019 62.597 383.033 64.5833C381.046 66.5696 379.929 69.2627 379.927 72.0717V130.563C379.929 133.372 381.046 136.065 383.033 138.052C385.019 140.038 387.712 141.155 390.521 141.158H486.299C489.108 141.154 491.8 140.036 493.786 138.05C495.772 136.064 496.89 133.372 496.894 130.563V72.0717C496.891 69.2627 495.774 66.5696 493.788 64.5833C491.801 62.597 489.108 61.4799 486.299 61.4771H390.521Z" fill="black"/>
<path d="M443.8 90.3277C445.763 90.3277 447.355 88.7364 447.355 86.7733C447.355 84.8103 445.763 83.219 443.8 83.219C441.837 83.219 440.246 84.8103 440.246 86.7733C440.246 88.7364 441.837 90.3277 443.8 90.3277Z" fill="#FFC1EB"/>
<path d="M456.111 90.3277C458.074 90.3277 459.665 88.7364 459.665 86.7733C459.665 84.8103 458.074 83.219 456.111 83.219C454.148 83.219 452.557 84.8103 452.557 86.7733C452.557 88.7364 454.148 90.3277 456.111 90.3277Z" fill="#FFC1EB"/>
<path d="M468.427 90.3277C470.39 90.3277 471.982 88.7364 471.982 86.7733C471.982 84.8103 470.39 83.219 468.427 83.219C466.464 83.219 464.873 84.8103 464.873 86.7733C464.873 88.7364 466.464 90.3277 468.427 90.3277Z" fill="#FFC1EB"/>
<path d="M480.744 90.3277C482.707 90.3277 484.298 88.7364 484.298 86.7733C484.298 84.8103 482.707 83.219 480.744 83.219C478.781 83.219 477.189 84.8103 477.189 86.7733C477.189 88.7364 478.781 90.3277 480.744 90.3277Z" fill="#FFC1EB"/>
<path d="M409.444 104.135C413.257 104.135 416.348 101.044 416.348 97.2312C416.348 93.4186 413.257 90.3279 409.444 90.3279C405.632 90.3279 402.541 93.4186 402.541 97.2312C402.541 101.044 405.632 104.135 409.444 104.135Z" fill="#02A9F7"/>
<path d="M408.834 107.663C406.534 107.647 404.267 108.216 402.246 109.315C400.226 110.415 398.517 112.01 397.281 113.95C400.603 116.578 404.685 118.063 408.92 118.181C413.154 118.3 417.313 117.047 420.777 114.608C419.591 112.486 417.857 110.722 415.756 109.5C413.655 108.278 411.265 107.644 408.834 107.663Z" fill="#02A9F7"/>
<path d="M484.298 101.112H439.539C439.26 101.112 438.992 101.001 438.795 100.804C438.597 100.606 438.486 100.338 438.486 100.059C438.486 99.7797 438.597 99.5118 438.795 99.3143C438.992 99.1168 439.26 99.0059 439.539 99.0059H484.298C484.577 99.0059 484.845 99.1168 485.043 99.3143C485.24 99.5118 485.351 99.7797 485.351 100.059C485.351 100.338 485.24 100.606 485.043 100.804C484.845 101.001 484.577 101.112 484.298 101.112Z" fill="black"/>
<path d="M484.298 109.379H439.539C439.26 109.379 438.992 109.269 438.795 109.071C438.597 108.874 438.486 108.606 438.486 108.326C438.486 108.047 438.597 107.779 438.795 107.582C438.992 107.384 439.26 107.273 439.539 107.273H484.298C484.577 107.273 484.845 107.384 485.043 107.582C485.24 107.779 485.351 108.047 485.351 108.326C485.351 108.606 485.24 108.874 485.043 109.071C484.845 109.269 484.577 109.379 484.298 109.379Z" fill="black"/>
<path d="M467.675 117.657H439.561C439.282 117.657 439.014 117.546 438.816 117.349C438.619 117.151 438.508 116.883 438.508 116.604C438.508 116.325 438.619 116.057 438.816 115.859C439.014 115.662 439.282 115.551 439.561 115.551H467.675C467.954 115.551 468.222 115.662 468.419 115.859C468.617 116.057 468.728 116.325 468.728 116.604C468.728 116.883 468.617 117.151 468.419 117.349C468.222 117.546 467.954 117.657 467.675 117.657Z" fill="black"/>
<path d="M409.031 118.679C405.358 118.679 401.767 117.59 398.713 115.549C395.659 113.508 393.278 110.607 391.873 107.214C390.467 103.82 390.099 100.086 390.816 96.4833C391.532 92.8807 393.301 89.5714 395.899 86.9741C398.496 84.3767 401.805 82.6079 405.408 81.8913C409.011 81.1747 412.745 81.5425 416.138 82.9481C419.532 84.3538 422.433 86.7343 424.473 89.7884C426.514 92.8426 427.603 96.4334 427.603 100.107C427.598 105.031 425.639 109.751 422.157 113.233C418.676 116.715 413.955 118.673 409.031 118.679ZM409.031 83.646C405.774 83.646 402.591 84.6118 399.883 86.4213C397.175 88.2309 395.064 90.8028 393.818 93.8119C392.572 96.8209 392.246 100.132 392.882 103.326C393.518 106.52 395.087 109.454 397.39 111.757C399.693 114.059 402.628 115.627 405.822 116.262C409.016 116.897 412.327 116.57 415.336 115.323C418.345 114.076 420.916 111.964 422.725 109.256C424.533 106.547 425.498 103.363 425.497 100.107C425.491 95.7418 423.755 91.5574 420.668 88.4715C417.581 85.3856 413.396 83.6502 409.031 83.646Z" fill="black"/>
<path d="M431.199 174.711H396.455C392.047 174.711 388.473 178.285 388.473 182.693V217.437C388.473 221.845 392.047 225.419 396.455 225.419H431.199C435.607 225.419 439.181 221.845 439.181 217.437V182.693C439.181 178.285 435.607 174.711 431.199 174.711Z" fill="white"/>
<path d="M431.199 226.473H396.446C394.049 226.472 391.751 225.519 390.056 223.825C388.361 222.131 387.407 219.834 387.404 217.437V182.683C387.407 180.287 388.361 177.989 390.056 176.295C391.751 174.601 394.049 173.649 396.446 173.647H431.199C433.596 173.649 435.894 174.601 437.589 176.295C439.284 177.989 440.238 180.287 440.24 182.683V217.437C440.238 219.834 439.284 222.131 437.589 223.825C435.894 225.519 433.596 226.472 431.199 226.473ZM396.446 175.764C394.608 175.766 392.845 176.496 391.545 177.795C390.245 179.094 389.513 180.856 389.511 182.694V217.448C389.513 219.286 390.245 221.047 391.545 222.346C392.845 223.646 394.608 224.376 396.446 224.377H431.199C433.037 224.376 434.799 223.646 436.1 222.346C437.4 221.047 438.131 219.286 438.134 217.448V182.694C438.131 180.856 437.4 179.094 436.1 177.795C434.799 176.496 433.037 175.766 431.199 175.764H396.446Z" fill="black"/>
<path d="M405.717 212.066V200.149C405.712 199.935 405.766 199.724 405.873 199.539C405.98 199.353 406.135 199.2 406.323 199.096C407.987 198.164 412.562 195.063 413.094 188.781C413.289 186.511 414.284 185.442 415.332 185.184C416.543 184.889 417.791 186.153 417.965 186.322C420.814 189.292 417.839 196.1 417.565 196.711L421.33 196.611C422.067 196.592 422.8 196.719 423.488 196.983C424.176 197.248 424.805 197.646 425.339 198.154C425.873 198.662 426.302 199.271 426.601 199.945C426.899 200.619 427.062 201.345 427.08 202.082L427.212 207.474C427.23 208.221 427.099 208.965 426.825 209.66C426.552 210.356 426.142 210.99 425.62 211.525C425.098 212.059 424.474 212.484 423.785 212.775C423.096 213.065 422.356 213.214 421.609 213.214H406.897C406.589 213.214 406.294 213.094 406.074 212.879C405.853 212.665 405.725 212.373 405.717 212.066Z" fill="#02A9F7"/>
<path d="M405.85 197.574H402.332C401.617 197.574 401.037 198.154 401.037 198.87V212.982C401.037 213.697 401.617 214.277 402.332 214.277H405.85C406.565 214.277 407.145 213.697 407.145 212.982V198.87C407.145 198.154 406.565 197.574 405.85 197.574Z" fill="#FFC37A"/>
<path d="M109.005 40.1933C115.982 40.1933 121.638 34.5376 121.638 27.5609C121.638 20.5842 115.982 14.9285 109.005 14.9285C102.029 14.9285 96.373 20.5842 96.373 27.5609C96.373 34.5376 102.029 40.1933 109.005 40.1933Z" fill="#FFBB45"/>
<path d="M109.709 64.1895C116.068 52.1133 114.113 38.5803 105.344 33.9625C96.5744 29.3447 84.3103 35.3909 77.9514 47.467C71.5924 59.5431 73.5466 73.0762 82.3162 77.694C91.0857 82.3118 103.35 76.2656 109.709 64.1895Z" fill="#FFBB45"/>
<path d="M106.878 108.911C109.459 90.6577 99.525 74.1596 84.6891 72.0615C69.8531 69.9635 55.7337 83.0601 53.1524 101.314C50.5711 119.567 60.5054 136.065 75.3414 138.163C90.1773 140.261 104.297 127.165 106.878 108.911Z" fill="#FFBB45"/>
<path d="M13.0797 80.6392C19.5301 80.6392 24.7591 75.4102 24.7591 68.9599C24.7591 62.5095 19.5301 57.2805 13.0797 57.2805C6.62941 57.2805 1.40039 62.5095 1.40039 68.9599C1.40039 75.4102 6.62941 80.6392 13.0797 80.6392Z" fill="#FFBB45"/>
<path d="M25.6332 116.484C34.4308 114.424 39.3906 103.478 36.711 92.0358C34.0314 80.5934 24.7273 72.9877 15.9296 75.0479C7.13193 77.1082 2.17222 88.0542 4.85179 99.4965C7.53135 110.939 16.8355 118.545 25.6332 116.484Z" fill="#FFBB45"/>
<path d="M36.6421 167.997C49.4159 165.798 57.5767 151.271 54.8699 135.551C52.163 119.831 39.6136 108.871 26.8398 111.07C14.0661 113.27 5.90526 127.797 8.6121 143.517C11.3189 159.236 23.8684 170.197 36.6421 167.997Z" fill="#FFBB45"/>
<path d="M51.7979 220.044C51.54 220.046 51.2903 219.953 51.0962 219.783C50.9021 219.613 50.777 219.378 50.7448 219.122C44.526 169.788 27.3914 126.914 27.2176 126.509C27.1609 126.38 27.1308 126.24 27.129 126.099C27.1272 125.958 27.1538 125.818 27.2071 125.688C27.2605 125.557 27.3395 125.438 27.4396 125.339C27.5396 125.24 27.6586 125.161 27.7896 125.109C27.9205 125.056 28.0606 125.03 28.2017 125.033C28.3428 125.036 28.4819 125.066 28.6107 125.124C28.7396 125.181 28.8556 125.264 28.9519 125.367C29.0482 125.47 29.1227 125.592 29.1712 125.724C29.3449 126.151 46.5796 169.245 52.8669 218.859C52.8846 218.997 52.8749 219.136 52.8383 219.27C52.8018 219.404 52.7392 219.53 52.654 219.639C52.5689 219.749 52.4629 219.84 52.3422 219.909C52.2215 219.977 52.0884 220.021 51.9506 220.038L51.7979 220.044Z" fill="black"/>
<path d="M64.5198 220.586C64.2405 220.586 63.9726 220.475 63.7751 220.278C63.5776 220.08 63.4667 219.812 63.4667 219.533C63.335 170.035 70.3121 130.348 76.1834 105.746C82.5549 79.0648 89.0686 63.868 89.1212 63.7258C89.2347 63.4733 89.4431 63.2757 89.7012 63.1757C89.9593 63.0756 90.2464 63.0812 90.5004 63.1913C90.7544 63.3013 90.9549 63.507 91.0584 63.7637C91.162 64.0204 91.1603 64.3075 91.0537 64.563C90.9905 64.7105 84.5453 79.7809 78.2159 106.31C72.3763 130.785 65.4413 170.304 65.5782 219.522C65.5782 219.802 65.4673 220.07 65.2698 220.267C65.0723 220.465 64.8044 220.575 64.5251 220.575L64.5198 220.586Z" fill="black"/>
<path d="M70.57 219.533H44.0097C35.9919 219.533 29.4922 226.033 29.4922 234.051V334.415C29.4922 342.433 35.9919 348.932 44.0097 348.932H70.57C78.5878 348.932 85.0875 342.433 85.0875 334.415V234.051C85.0875 226.033 78.5878 219.533 70.57 219.533Z" fill="#BEEAFF"/>
<path d="M32.1997 342.018C31.9936 342.019 31.7919 341.958 31.6197 341.845C31.4474 341.732 31.3122 341.571 31.2308 341.381C31.1185 341.128 31.1108 340.84 31.2094 340.58C31.308 340.321 31.5049 340.111 31.7574 339.996C39.9971 336.428 48.8634 334.531 57.8419 334.415C66.8205 334.299 75.7327 335.967 84.0617 339.322C84.3122 339.432 84.5102 339.635 84.6136 339.889C84.7171 340.142 84.7179 340.425 84.6159 340.679C84.514 340.933 84.3172 341.137 84.0673 341.249C83.8174 341.36 83.534 341.37 83.2771 341.276C75.2054 338.025 66.5687 336.409 57.8678 336.521C49.1668 336.633 40.5746 338.471 32.5894 341.929C32.4664 341.983 32.3341 342.014 32.1997 342.018Z" fill="black"/>
<path d="M77.3781 241.001H37.9906C37.7113 241.001 37.4435 240.89 37.246 240.693C37.0485 240.495 36.9375 240.227 36.9375 239.948C36.9375 239.669 37.0485 239.401 37.246 239.203C37.4435 239.006 37.7113 238.895 37.9906 238.895H77.3781C77.6575 238.895 77.9253 239.006 78.1228 239.203C78.3203 239.401 78.4313 239.669 78.4313 239.948C78.4313 240.227 78.3203 240.495 78.1228 240.693C77.9253 240.89 77.6575 241.001 77.3781 241.001Z" fill="black"/>
<path d="M67.2758 336.516C66.9965 336.516 66.7286 336.405 66.5311 336.207C66.3336 336.01 66.2227 335.742 66.2227 335.463V240.259C66.2227 239.979 66.3336 239.712 66.5311 239.514C66.7286 239.317 66.9965 239.206 67.2758 239.206C67.5551 239.206 67.823 239.317 68.0205 239.514C68.218 239.712 68.3289 239.979 68.3289 240.259V335.463C68.3289 335.742 68.218 336.01 68.0205 336.207C67.823 336.405 67.5551 336.516 67.2758 336.516Z" fill="black"/>
<path d="M48.0707 336.516C47.7914 336.516 47.5235 336.405 47.326 336.207C47.1285 336.01 47.0176 335.742 47.0176 335.463V240.259C47.0176 239.979 47.1285 239.712 47.326 239.514C47.5235 239.317 47.7914 239.206 48.0707 239.206C48.35 239.206 48.6179 239.317 48.8154 239.514C49.0129 239.712 49.1239 239.979 49.1239 240.259V335.463C49.1239 335.742 49.0129 336.01 48.8154 336.207C48.6179 336.405 48.35 336.516 48.0707 336.516Z" fill="black"/>
</svg>
