<svg width="114" height="59" viewBox="0 0 114 59" fill="none" xmlns="http://www.w3.org/2000/svg">
<path d="M36.5126 6.0537C36.7266 6.94292 36.7008 7.86983 36.4376 8.74704C36.1743 9.62424 35.6824 10.4228 35.0081 11.0675C35.0081 11.0675 34.9932 11.0708 34.9896 11.0821C34.7378 11.2689 34.486 11.4617 34.2509 11.672C34.2509 11.672 34.2344 11.6756 34.2323 11.6867L34.2218 11.689C33.6403 12.0673 32.9905 12.3387 32.3056 12.4893C30.8764 12.756 29.3953 12.4799 28.1751 11.7191C26.9549 10.9584 26.0912 9.77266 25.7665 8.41244C25.4417 7.05222 25.6813 5.62402 26.4347 4.42954C27.1881 3.23506 28.3962 2.36785 29.8039 2.01111C29.8817 1.99399 29.9536 1.97819 30.033 1.96075C31.4565 1.70565 32.9276 1.98858 34.1379 2.75024C35.3481 3.51189 36.2036 4.69315 36.5251 6.04643L36.5126 6.0537Z" fill="#E07B02"/>
<path d="M28.6492 25.1928L18.994 45.792C18.3938 47.0258 17.3105 47.9833 15.979 48.4566C14.6474 48.9299 13.1751 48.881 11.8815 48.3203C10.5878 47.7597 9.57724 46.7327 9.06892 45.462C8.56061 44.1913 8.59559 42.7796 9.16628 41.533L19.0562 20.4381L28.6492 25.1928Z" fill="url(#paint0_linear_1378_877)"/>
<path d="M33.0723 15.7477L28.6459 25.1925L19.0529 20.4378L8.4998 15.187C7.23045 14.5567 6.27455 13.4687 5.84237 12.1625C5.41019 10.8562 5.53714 9.43865 6.19529 8.22164C6.85344 7.00463 7.98889 6.08786 9.35183 5.67301C10.7148 5.25816 12.1936 5.37921 13.4629 6.00953L23.4913 10.9904L33.0723 15.7477Z" fill="url(#paint1_linear_1378_877)"/>
<path d="M37.0071 37.7954H44.1496C43.9916 36.983 43.5854 36.3285 42.931 35.8321C42.2765 35.313 41.5205 35.0535 40.663 35.0535C39.7377 35.0535 38.9366 35.2904 38.2596 35.7644C37.6051 36.2383 37.1876 36.9153 37.0071 37.7954ZM49.8704 40.7066V41.3497H36.9056C36.9056 43.9224 38.1919 45.2087 40.7645 45.2087C42.096 45.2087 43.0777 44.6784 43.7096 43.6177H49.6334C49.1595 45.5585 48.0989 47.0367 46.4515 48.0522C44.8041 49.0677 42.9197 49.5755 40.7984 49.5755C37.8195 49.5755 35.3936 48.763 33.5205 47.1382C31.67 45.5134 30.7447 43.2454 30.7447 40.3342C30.7447 37.4682 31.6248 35.2115 33.3851 33.5641C35.1679 31.8941 37.4923 31.0591 40.3583 31.0591C43.3598 31.0591 45.6955 31.9279 47.3654 33.6656C49.0354 35.3807 49.8704 37.7277 49.8704 40.7066ZM59.4282 36.7122V49H53.2674V36.7122H51.2702V31.6346H53.2674V26.4216H59.4282V31.6346H62.9148V36.7122H59.4282ZM71.6264 36.7122V49H65.4655V36.7122H63.4683V31.6346H65.4655V26.4216H71.6264V31.6346H75.113V36.7122H71.6264Z" fill="url(#paint2_linear_1378_877)"/>
<path d="M83.2706 28.9154V50H77.7897V28.9154H83.2706Z" fill="url(#paint3_linear_1378_877)"/>
<circle cx="80.5" cy="23.5" r="3.5" fill="#E07B02"/>
<defs>
<linearGradient id="paint0_linear_1378_877" x1="12.703" y1="45.5325" x2="23.8981" y2="21.5876" gradientUnits="userSpaceOnUse">
<stop stop-color="#02A9F7"/>
<stop offset="0.19" stop-color="#02A7F4"/>
<stop offset="0.36" stop-color="#02A0E9"/>
<stop offset="0.51" stop-color="#0294D7"/>
<stop offset="0.66" stop-color="#0284BE"/>
<stop offset="0.81" stop-color="#026F9E"/>
<stop offset="0.94" stop-color="#02577A"/>
</linearGradient>
<linearGradient id="paint1_linear_1378_877" x1="28.0196" y1="18.9188" x2="2.88151" y2="5.87294" gradientUnits="userSpaceOnUse">
<stop offset="0.1" stop-color="#02A9F7"/>
<stop offset="0.2" stop-color="#02A4F0"/>
<stop offset="0.35" stop-color="#0298DD"/>
<stop offset="0.53" stop-color="#0283BD"/>
<stop offset="0.72" stop-color="#026691"/>
<stop offset="0.82" stop-color="#02577A"/>
</linearGradient>
<linearGradient id="paint2_linear_1378_877" x1="53" y1="13" x2="54.9444" y2="48.5433" gradientUnits="userSpaceOnUse">
<stop stop-color="#025D83"/>
<stop offset="1" stop-color="#02A9F7"/>
</linearGradient>
<linearGradient id="paint3_linear_1378_877" x1="95" y1="21" x2="96.6063" y2="50.3619" gradientUnits="userSpaceOnUse">
<stop stop-color="#025D83"/>
<stop offset="1" stop-color="#02A9F7"/>
</linearGradient>
</defs>
</svg>
