<svg width="485" height="400" viewBox="0 0 485 400" fill="none" xmlns="http://www.w3.org/2000/svg">
<path d="M137.041 115.846H16.8572C12.632 115.841 8.58133 114.16 5.59364 111.173C2.60596 108.185 0.925167 104.134 0.919922 99.9091V26.513C0.925167 22.2878 2.60596 18.2371 5.59364 15.2494C8.58133 12.2618 12.632 10.581 16.8572 10.5757H137.041C141.266 10.581 145.317 12.2618 148.304 15.2494C151.292 18.2371 152.973 22.2878 152.978 26.513V99.9091C152.973 104.134 151.292 108.185 148.304 111.173C145.317 114.16 141.266 115.841 137.041 115.846ZM16.8572 13.2187C13.3324 13.2222 9.953 14.624 7.46059 17.1164C4.96819 19.6088 3.56642 22.9882 3.56292 26.513V99.9091C3.56642 103.434 4.96819 106.813 7.46059 109.306C9.953 111.798 13.3324 113.2 16.8572 113.203H137.041C140.565 113.198 143.944 111.796 146.436 109.304C148.928 106.812 150.33 103.433 150.335 99.9091V26.513C150.332 22.9882 148.93 19.6088 146.438 17.1164C143.945 14.624 140.566 13.2222 137.041 13.2187H16.8572Z" fill="black"/>
<path d="M83.714 49.4209C86.1772 49.4209 88.174 47.424 88.174 44.9608C88.174 42.4976 86.1772 40.5008 83.714 40.5008C81.2507 40.5008 79.2539 42.4976 79.2539 44.9608C79.2539 47.424 81.2507 49.4209 83.714 49.4209Z" fill="#FFC1EB"/>
<path d="M99.1573 49.4209C101.621 49.4209 103.617 47.424 103.617 44.9608C103.617 42.4976 101.621 40.5008 99.1573 40.5008C96.6941 40.5008 94.6973 42.4976 94.6973 44.9608C94.6973 47.424 96.6941 49.4209 99.1573 49.4209Z" fill="#FFC1EB"/>
<path d="M114.616 49.4209C117.08 49.4209 119.076 47.424 119.076 44.9608C119.076 42.4976 117.08 40.5008 114.616 40.5008C112.153 40.5008 110.156 42.4976 110.156 44.9608C110.156 47.424 112.153 49.4209 114.616 49.4209Z" fill="#FFC1EB"/>
<path d="M130.071 49.4209C132.535 49.4209 134.531 47.424 134.531 44.9608C134.531 42.4976 132.535 40.5008 130.071 40.5008C127.608 40.5008 125.611 42.4976 125.611 44.9608C125.611 47.424 127.608 49.4209 130.071 49.4209Z" fill="#FFC1EB"/>
<path d="M40.6038 66.746C45.3879 66.746 49.2663 62.8677 49.2663 58.0836C49.2663 53.2994 45.3879 49.4211 40.6038 49.4211C35.8197 49.4211 31.9414 53.2994 31.9414 58.0836C31.9414 62.8677 35.8197 66.746 40.6038 66.746Z" fill="#02A9F7"/>
<path d="M39.8367 71.1729C36.9501 71.1535 34.1058 71.8672 31.5703 73.2471C29.0348 74.6269 26.891 76.6278 25.3398 79.0622C29.5079 82.3607 34.6307 84.2233 39.944 84.3722C45.2572 84.521 50.4763 82.9482 54.8225 79.8882C53.335 77.2257 51.1592 75.012 48.5228 73.4788C45.8864 71.9456 42.8864 71.1491 39.8367 71.1729Z" fill="#02A9F7"/>
<path d="M134.53 62.9534H78.3664C78.0159 62.9534 77.6798 62.8142 77.432 62.5663C77.1841 62.3185 77.0449 61.9824 77.0449 61.6319C77.0449 61.2814 77.1841 60.9453 77.432 60.6975C77.6798 60.4496 78.0159 60.3104 78.3664 60.3104H134.53C134.881 60.3104 135.217 60.4496 135.465 60.6975C135.712 60.9453 135.852 61.2814 135.852 61.6319C135.852 61.9824 135.712 62.3185 135.465 62.5663C135.217 62.8142 134.881 62.9534 134.53 62.9534Z" fill="black"/>
<path d="M134.53 73.3274H78.3664C78.0159 73.3274 77.6798 73.1881 77.432 72.9403C77.1841 72.6925 77.0449 72.3563 77.0449 72.0059C77.0449 71.6554 77.1841 71.3192 77.432 71.0714C77.6798 70.8236 78.0159 70.6844 78.3664 70.6844H134.53C134.881 70.6844 135.217 70.8236 135.465 71.0714C135.712 71.3192 135.852 71.6554 135.852 72.0059C135.852 72.3563 135.712 72.6925 135.465 72.9403C135.217 73.1881 134.881 73.3274 134.53 73.3274Z" fill="black"/>
<path d="M113.671 83.7142H78.3938C78.0433 83.7142 77.7072 83.575 77.4593 83.3271C77.2115 83.0793 77.0723 82.7432 77.0723 82.3927C77.0723 82.0422 77.2115 81.7061 77.4593 81.4583C77.7072 81.2104 78.0433 81.0712 78.3938 81.0712H113.671C114.022 81.0712 114.358 81.2104 114.606 81.4583C114.853 81.7061 114.993 82.0422 114.993 82.3927C114.993 82.7432 114.853 83.0793 114.606 83.3271C114.358 83.575 114.022 83.7142 113.671 83.7142Z" fill="black"/>
<path d="M40.08 84.9962C35.4708 84.9962 30.9651 83.6294 27.1327 81.0687C23.3002 78.5079 20.3132 74.8683 18.5493 70.6099C16.7855 66.3515 16.324 61.6657 17.2232 57.1451C18.1224 52.6244 20.342 48.4719 23.6012 45.2127C26.8604 41.9535 31.0129 39.734 35.5335 38.8348C40.0542 37.9355 44.74 38.397 48.9983 40.1609C53.2567 41.9248 56.8964 44.9118 59.4571 48.7442C62.0179 52.5766 63.3847 57.0824 63.3847 61.6916C63.3777 67.8702 60.9201 73.7938 56.5512 78.1627C52.1822 82.5317 46.2587 84.9892 40.08 84.9962ZM40.08 41.0366C35.9933 41.0366 31.9983 42.2485 28.6004 44.5191C25.2024 46.7898 22.5542 50.0171 20.9905 53.7929C19.4269 57.5687 19.0181 61.7234 19.8159 65.7315C20.6136 69.7397 22.5822 73.4212 25.4724 76.3105C28.3626 79.1998 32.0448 81.1672 36.0532 81.9636C40.0616 82.7601 44.2162 82.35 47.9915 80.7852C51.7668 79.2203 54.9932 76.571 57.2627 73.1724C59.5323 69.7737 60.743 65.7784 60.7417 61.6916C60.7347 56.2145 58.5554 50.9639 54.6819 47.0917C50.8084 43.2194 45.5571 41.0418 40.08 41.0366Z" fill="black"/>
<path d="M271.329 281.33H150.399C132.042 317.576 122.855 357.771 123.645 398.393L295.357 398.549C294.738 377.109 292.138 355.772 287.591 334.811C283.61 316.577 278.172 298.693 271.329 281.33Z" fill="#FFE6C1"/>
<path d="M260.769 135.785H164.092V238.841H260.769V135.785Z" fill="black"/>
<path d="M222.65 118.614H199.226C191.801 118.614 184.679 115.664 179.429 110.414C174.178 105.163 171.229 98.0417 171.229 90.6163V61.0196C171.229 53.7742 174.107 46.8256 179.23 41.7024C184.353 36.5791 191.302 33.7009 198.547 33.7009H222.552C232.125 33.7009 241.304 37.5034 248.073 44.2718C254.841 51.0402 258.644 60.2202 258.644 69.7922V82.6203C258.644 92.1664 254.852 101.321 248.102 108.072C241.351 114.822 232.196 118.614 222.65 118.614Z" fill="black"/>
<path d="M251.809 108.719L266.15 61.3072C266.35 60.6447 266.693 60.0345 267.156 59.52C267.619 59.0056 268.19 58.5995 268.828 58.3309C269.466 58.0623 270.155 57.9376 270.846 57.9658C271.538 57.9941 272.215 58.1745 272.828 58.4942L288.314 66.5478C288.986 66.8972 289.564 67.4038 289.998 68.0243C290.433 68.6449 290.711 69.3612 290.809 70.1123C290.907 70.8634 290.823 71.6271 290.563 72.3385C290.303 73.0499 289.875 73.6881 289.315 74.1986L251.809 108.719Z" fill="#FB6D6D"/>
<path d="M248.137 106.861L289.077 81.372C289.713 80.9768 290.43 80.7299 291.174 80.6495C291.919 80.5691 292.672 80.6574 293.377 80.9077C294.083 81.158 294.723 81.5639 295.25 82.0954C295.778 82.6269 296.179 83.2703 296.423 83.9779L301.854 99.6995C302.112 100.446 302.189 101.243 302.078 102.026C301.968 102.808 301.672 103.552 301.217 104.198C300.762 104.844 300.16 105.372 299.46 105.739C298.761 106.106 297.984 106.301 297.194 106.309L248.137 106.861Z" fill="#FB6D6D"/>
<path d="M260.767 110.296C259.112 110.296 257.495 109.805 256.12 108.886C254.744 107.967 253.672 106.661 253.039 105.132C252.406 103.604 252.24 101.922 252.563 100.3C252.886 98.6773 253.682 97.1869 254.852 96.0171C256.022 94.8474 257.512 94.0508 259.135 93.7281C260.757 93.4053 262.439 93.571 263.967 94.204C265.496 94.8371 266.802 95.9091 267.721 97.2846C268.64 98.6601 269.131 100.277 269.131 101.932C269.128 104.149 268.245 106.275 266.678 107.843C265.11 109.41 262.984 110.293 260.767 110.296ZM260.767 95.8684C259.567 95.8684 258.395 96.2239 257.398 96.8902C256.401 97.5564 255.624 98.5033 255.165 99.6112C254.706 100.719 254.586 101.938 254.82 103.114C255.054 104.291 255.631 105.371 256.479 106.219C257.327 107.067 258.408 107.644 259.584 107.878C260.76 108.112 261.979 107.992 263.087 107.533C264.195 107.074 265.142 106.297 265.808 105.3C266.474 104.303 266.83 103.131 266.83 101.932C266.827 100.324 266.187 98.784 265.05 97.6476C263.914 96.5112 262.374 95.8714 260.767 95.8684Z" fill="black"/>
<path d="M245.632 89.2069C245.964 86.0666 245.047 82.9218 243.078 80.4532C241.108 77.9845 238.246 76.3906 235.111 76.0164L235.186 67.8996C235.226 65.3253 234.758 62.7684 233.807 60.3755C232.857 57.9827 231.444 55.8009 229.649 53.9555C227.854 52.11 225.712 50.6371 223.346 49.6214C220.98 48.6056 218.437 48.0669 215.863 48.0361L185.95 47.8233C182.031 47.8187 178.271 49.3682 175.493 52.132C172.715 54.8959 171.147 58.6485 171.131 62.567L170.815 99.1013C170.771 102.165 171.331 105.208 172.464 108.056C173.597 110.903 175.28 113.499 177.417 115.696C179.554 117.892 182.104 119.646 184.919 120.856C187.734 122.067 190.761 122.71 193.825 122.75H195.206L195.022 142.999L234.547 143.281L234.766 119.298H234.731L234.91 100.01C237.667 99.7188 240.24 98.4849 242.193 96.5168C244.147 94.5486 245.361 91.9667 245.632 89.2069Z" fill="white"/>
<path d="M322.535 190.48L275.129 218.426L304.57 279.31C304.57 279.31 317.859 304.541 342.779 292.714C347.807 290.283 352.29 286.858 355.958 282.646C359.627 278.434 362.403 273.523 364.12 268.208L389.736 190.48C389.736 190.48 427.369 177.704 432.949 144.822C433.165 143.78 433.182 142.707 433.001 141.658C432.716 140.09 432.001 138.633 430.936 137.448C431.318 136.58 431.626 135.681 431.856 134.761C432.374 132.673 432.869 130.637 431.178 128.911C430.474 128.149 429.504 127.687 428.468 127.623C427.433 127.559 426.413 127.896 425.621 128.566C426.012 126.426 425.425 124.539 424.108 123.711C423.566 123.392 422.94 123.245 422.313 123.291C419.339 123.469 417.176 127.547 416.56 128.686C414.041 133.288 408.72 141.072 400.839 151.984C400.839 151.984 412.177 136.608 406.143 132.374C404.342 131.114 402.191 132.88 401.006 134.134C398.814 136.435 397.968 139.616 396.34 142.262C394.194 145.581 391.325 148.372 387.947 150.425C382.626 153.808 376.736 155.603 371.881 159.727C369.67 161.585 367.699 163.711 366.013 166.055C364.04 168.828 363.344 172.101 361.641 174.902L335.289 218.017L322.535 190.48Z" fill="white"/>
<path d="M329.918 297.011C312.833 297.011 303.663 280.058 303.554 279.845L273.641 217.971L323.049 188.846L335.428 215.601L360.647 174.315C361.348 173.099 361.952 171.83 362.454 170.519C363.128 168.723 364.005 167.009 365.065 165.411C366.805 162.982 368.839 160.779 371.123 158.853C374.16 156.264 377.6 154.561 380.902 152.916C383.094 151.88 385.229 150.728 387.299 149.465C390.541 147.512 393.295 144.846 395.352 141.67C395.921 140.707 396.433 139.712 396.888 138.69C397.757 136.844 398.654 134.939 400.162 133.352C403.412 129.9 405.713 130.688 406.794 131.448C407.381 131.862 407.876 132.393 408.249 133.008C408.621 133.623 408.862 134.308 408.957 135.02C409.122 136.282 409.051 137.563 408.75 138.799C411.983 134.077 414.203 130.591 415.544 128.146L415.578 128.071C416.349 126.662 418.69 122.364 422.24 122.157C423.102 122.085 423.966 122.287 424.708 122.733C425.342 123.168 425.867 123.746 426.239 124.42C426.612 125.094 426.822 125.846 426.853 126.616C427.765 126.387 428.721 126.404 429.623 126.666C430.526 126.927 431.343 127.424 431.99 128.105C434.147 130.297 433.492 132.926 432.968 135.037C432.784 135.789 432.547 136.527 432.261 137.246C433.107 138.34 433.707 139.604 434.02 140.951C434.333 142.299 434.351 143.698 434.073 145.052C431.772 158.761 423.39 171.175 409.912 180.914C403.968 185.22 397.49 188.737 390.641 191.377L365.215 268.565C363.442 274.025 360.584 279.071 356.813 283.4C353.042 287.728 348.435 291.25 343.269 293.755C339.117 295.824 334.555 296.936 329.918 297.011ZM276.626 218.88L305.607 278.81C308.027 282.986 311.247 286.643 315.082 289.573C323.245 295.665 332.397 296.372 342.285 291.673C347.169 289.302 351.524 285.97 355.088 281.875C358.653 277.781 361.353 273.009 363.029 267.846L388.835 189.577L389.381 189.393C389.749 189.266 426.433 176.438 431.829 144.627C432.021 143.716 432.039 142.777 431.881 141.86C431.633 140.502 431.013 139.24 430.092 138.213L429.597 137.637L429.896 136.959C430.253 136.152 430.54 135.317 430.753 134.462C431.288 132.293 431.559 130.907 430.368 129.693C429.873 129.144 429.186 128.807 428.449 128.752C427.712 128.696 426.982 128.926 426.41 129.394L423.891 131.695L424.506 128.347C424.805 126.708 424.408 125.229 423.517 124.683C423.178 124.484 422.786 124.398 422.395 124.435C420.888 124.522 419.277 126.115 417.62 129.158L417.58 129.227C415.193 133.588 410.395 140.732 402.048 152.301L401.79 152.663L399.931 151.305L400.305 150.788C402.606 147.509 407.415 139.645 406.719 135.371C406.673 134.962 406.54 134.567 406.331 134.212C406.122 133.858 405.841 133.551 405.506 133.312C404.355 132.506 402.578 134.169 401.864 134.922C400.61 136.234 399.834 137.896 398.988 139.657C398.491 140.753 397.936 141.823 397.326 142.861C395.094 146.331 392.102 149.248 388.576 151.392C386.427 152.701 384.209 153.893 381.932 154.964C378.584 156.626 375.42 158.191 372.595 160.596C370.474 162.402 368.586 164.466 366.975 166.739C366.016 168.199 365.225 169.762 364.617 171.399C364.066 172.82 363.408 174.196 362.649 175.518L335.175 220.468L322.054 192.12L276.626 218.88Z" fill="black"/>
<path d="M233.517 93.8032C233.358 93.8117 233.199 93.8117 233.04 93.8032C232.111 93.7087 231.231 93.341 230.511 92.7464C229.791 92.1519 229.263 91.3573 228.994 90.463C228.726 89.5686 228.728 88.6148 229.002 87.7219C229.275 86.8291 229.807 86.0373 230.53 85.4467C231.254 84.856 232.136 84.493 233.065 84.4036C233.995 84.3141 234.93 84.5021 235.752 84.944C236.575 85.3858 237.248 86.0615 237.687 86.8858C238.126 87.7102 238.31 88.646 238.217 89.5751C238.099 90.7388 237.554 91.8174 236.687 92.6026C235.82 93.3877 234.693 93.8237 233.523 93.8262L233.517 93.8032ZM233.517 86.6586C233.049 86.6587 232.59 86.7948 232.197 87.0504C231.804 87.3059 231.494 87.67 231.304 88.0984C231.114 88.5268 231.052 89.0012 231.127 89.4639C231.201 89.9267 231.408 90.3579 231.722 90.7054C232.037 91.0529 232.445 91.3017 232.898 91.4216C233.351 91.5415 233.829 91.5274 234.275 91.3809C234.72 91.2345 235.113 90.962 235.406 90.5965C235.7 90.2311 235.881 89.7883 235.928 89.322C235.99 88.683 235.797 88.0453 235.391 87.5482C234.984 87.0512 234.398 86.7355 233.759 86.6701L233.517 86.6586Z" fill="black"/>
<path d="M195.723 121.628L219.308 121.053C219.461 121.047 219.612 121.097 219.731 121.192C219.851 121.288 219.932 121.424 219.96 121.575C219.988 121.725 219.961 121.881 219.883 122.014C219.806 122.146 219.683 122.246 219.538 122.295L195.625 130.924L195.723 121.628Z" fill="black"/>
<path d="M229.985 90.8119C229.699 90.8133 229.422 90.708 229.21 90.5166C228.997 90.3251 228.863 90.0612 228.834 89.7764C228.704 88.4998 228.913 87.2115 229.439 86.0411C229.965 84.8707 230.79 83.8595 231.832 83.1093C232.831 82.4273 233.979 81.9947 235.18 81.8476C236.381 81.7005 237.6 81.8431 238.735 82.2637C238.881 82.3141 239.017 82.3937 239.132 82.4977C239.247 82.6018 239.34 82.7281 239.405 82.869C239.47 83.01 239.506 83.1627 239.511 83.3179C239.516 83.4731 239.489 83.6276 239.432 83.7722C239.375 83.9167 239.29 84.0483 239.181 84.1589C239.072 84.2696 238.942 84.3571 238.798 84.4161C238.654 84.4751 238.5 84.5044 238.345 84.5022C238.19 84.5001 238.037 84.4665 237.895 84.4036C237.118 84.1251 236.287 84.0321 235.468 84.132C234.649 84.2319 233.865 84.5219 233.178 84.9788C232.465 85.4921 231.901 86.184 231.541 86.9849C231.182 87.7858 231.04 88.6673 231.13 89.5406C231.145 89.6909 231.13 89.8428 231.087 89.9874C231.043 90.1321 230.971 90.2668 230.876 90.3837C230.78 90.5007 230.662 90.5977 230.529 90.6692C230.396 90.7407 230.25 90.7853 230.1 90.8004L229.985 90.8119Z" fill="black"/>
<path d="M114.129 187.115L161.535 215.061L132.094 275.945C132.094 275.945 118.8 301.176 93.8857 289.349C88.8563 286.919 84.3718 283.495 80.7035 279.283C77.0352 275.071 74.2594 270.158 72.5439 264.843L46.9222 187.115C46.9222 187.115 9.28917 174.338 3.71498 141.457C3.49935 140.415 3.48178 139.342 3.66321 138.293C3.94459 136.726 4.65556 135.269 5.71686 134.082C5.33452 133.215 5.02661 132.316 4.79646 131.396C4.27873 129.313 3.78401 127.271 5.481 125.546C6.1843 124.785 7.1536 124.325 8.18743 124.261C9.22127 124.196 10.2401 124.533 11.0322 125.2C10.641 123.061 11.2335 121.174 12.5451 120.345C13.0879 120.029 13.7131 119.883 14.3399 119.925C17.3139 120.104 19.4769 124.182 20.0924 125.321C22.6178 129.923 27.9389 137.712 35.814 148.619C35.814 148.619 24.4758 133.242 30.5102 129.009C32.3108 127.749 34.4622 129.521 35.653 130.769C37.8447 133.07 38.6846 136.257 40.3125 138.897C42.4621 142.214 45.3306 145.003 48.7054 147.06C54.0265 150.443 59.9171 152.237 64.778 156.362C66.9867 158.222 68.9575 160.347 70.6456 162.69C72.6129 165.462 73.3147 168.73 75.0175 171.531L101.364 214.646L114.129 187.115Z" fill="white"/>
<path d="M106.751 293.646C102.11 293.575 97.5453 292.462 93.3932 290.39C88.2282 287.885 83.6225 284.362 79.8523 280.034C76.0821 275.705 73.2253 270.659 71.4531 265.2L45.9866 188.012C39.1365 185.374 32.6586 181.857 26.7157 177.548C13.2433 167.815 4.89064 155.395 2.55511 141.647C2.28243 140.299 2.30367 138.908 2.61737 137.569C2.93107 136.229 3.52986 134.974 4.37291 133.887C4.09225 133.166 3.85596 132.428 3.66535 131.678C3.14187 129.561 2.51484 126.938 4.64328 124.74C5.29144 124.06 6.10833 123.564 7.01072 123.302C7.91311 123.04 8.86875 123.022 9.78028 123.25C9.81232 122.481 10.0229 121.73 10.3953 121.056C10.7677 120.382 11.2917 119.804 11.926 119.367C12.6681 118.922 13.5313 118.721 14.3938 118.792C17.9431 119.005 20.2844 123.296 21.0552 124.706L21.0955 124.781C22.4588 127.271 24.6448 130.717 27.8892 135.446C27.5849 134.206 27.5146 132.92 27.6821 131.655C27.7748 130.942 28.015 130.256 28.3874 129.641C28.7598 129.026 29.2563 128.495 29.8451 128.082C30.9265 127.323 33.2276 126.564 36.4777 129.987C37.9791 131.574 38.8823 133.484 39.7509 135.325C40.2037 136.348 40.7165 137.343 41.2868 138.305C43.3353 141.48 46.0795 144.147 49.3116 146.105C51.383 147.365 53.5181 148.517 55.7084 149.557C59.0334 151.202 62.4734 152.91 65.4877 155.493C67.7714 157.421 69.8079 159.624 71.5508 162.051C72.6099 163.65 73.4841 165.364 74.1567 167.159C74.6642 168.471 75.2699 169.742 75.9688 170.962L101.194 212.242L113.573 185.487L162.987 214.618L133.074 276.451C133.005 276.687 123.83 293.646 106.751 293.646ZM8.54349 125.385C7.7014 125.401 6.89957 125.748 6.31151 126.351C5.11498 127.565 5.38535 128.957 5.92609 131.12C6.13531 131.976 6.42022 132.811 6.77746 133.616L7.0766 134.295L6.58763 134.87C5.66136 135.894 5.04146 137.158 4.7986 138.518C4.63844 139.421 4.65406 140.347 4.84462 141.244C10.252 173.125 46.9243 185.924 47.2982 186.051L47.839 186.235L73.639 264.503C75.3133 269.668 78.0137 274.442 81.5783 278.537C85.1429 282.632 89.4981 285.965 94.3826 288.336C104.294 293.042 113.469 292.323 121.644 286.185C125.465 283.257 128.671 279.603 131.078 275.433L160.036 215.538L114.643 188.777L101.521 217.091L74.0474 172.135C73.2853 170.816 72.6275 169.439 72.0801 168.016C71.4698 166.38 70.6787 164.817 69.7215 163.357C68.0876 161.1 66.1805 159.054 64.0438 157.265C61.2193 154.86 58.0612 153.296 54.7132 151.633C52.4477 150.562 50.2413 149.369 48.1036 148.061C44.5762 145.918 41.5823 143.001 39.3482 139.53C38.7361 138.494 38.183 137.424 37.6915 136.326C36.8631 134.566 36.0808 132.909 34.8153 131.591C34.1019 130.838 32.3187 129.175 31.1682 129.981C30.8336 130.221 30.5529 130.528 30.3439 130.882C30.1349 131.237 30.0022 131.631 29.9544 132.04C29.2583 136.314 34.0271 144.12 36.3569 147.44L36.7423 147.975L34.8843 149.332L34.6254 148.97C26.2612 137.373 21.4636 130.251 19.0936 125.902L19.0533 125.827C17.3909 122.784 15.7859 121.197 14.273 121.105C13.8826 121.07 13.4909 121.156 13.1513 121.352C12.2596 121.927 11.8627 123.377 12.1676 125.022L12.7773 128.364L10.2635 126.063C9.79659 125.628 9.18202 125.385 8.54349 125.385Z" fill="black"/>
<path d="M176.062 85.882C177.349 85.882 178.392 84.8389 178.392 83.5522C178.392 82.2655 177.349 81.2224 176.062 81.2224C174.775 81.2224 173.732 82.2655 173.732 83.5522C173.732 84.8389 174.775 85.882 176.062 85.882Z" fill="black"/>
<path d="M201.05 85.5023C202.337 85.5023 203.38 84.4593 203.38 83.1726C203.38 81.8859 202.337 80.8428 201.05 80.8428C199.764 80.8428 198.721 81.8859 198.721 83.1726C198.721 84.4593 199.764 85.5023 201.05 85.5023Z" fill="black"/>
<path d="M185.276 93.8549C185.145 93.8541 185.015 93.8308 184.891 93.7859C183.165 93.2107 181.439 92.3593 181.439 90.8521C181.459 90.5703 181.534 90.2951 181.661 90.0424C181.787 89.7897 181.962 89.5644 182.176 89.3795C182.325 89.2283 182.465 89.0689 182.596 88.902C183.179 88.1464 183.529 87.2366 183.602 86.2846L184.569 76.189C184.598 75.8838 184.747 75.6027 184.983 75.4075C185.219 75.2122 185.523 75.1188 185.829 75.1478C186.134 75.1767 186.415 75.3258 186.61 75.562C186.805 75.7983 186.899 76.1024 186.87 76.4076L185.892 86.509C185.776 87.8899 185.265 89.2081 184.419 90.3057C184.241 90.5358 184.086 90.7083 183.953 90.8521C184.497 91.1739 185.076 91.4307 185.679 91.6172C185.936 91.7063 186.154 91.8838 186.293 92.1181C186.431 92.3524 186.483 92.6284 186.437 92.8969C186.392 93.1654 186.252 93.4091 186.044 93.5845C185.836 93.7599 185.572 93.8558 185.299 93.8549H185.276Z" fill="black"/>
<path d="M188.75 103.91C186.988 103.861 185.269 103.347 183.769 102.42C183.636 102.341 183.52 102.236 183.429 102.111C183.337 101.986 183.272 101.843 183.237 101.692C183.202 101.542 183.198 101.385 183.224 101.233C183.251 101.08 183.309 100.934 183.393 100.805C183.478 100.675 183.588 100.563 183.716 100.477C183.845 100.391 183.99 100.331 184.142 100.302C184.294 100.273 184.45 100.275 184.602 100.308C184.753 100.341 184.896 100.404 185.023 100.493C185.063 100.522 187.433 102.012 189.763 101.5C190.4 101.339 190.998 101.049 191.519 100.648C192.04 100.248 192.474 99.7446 192.794 99.1703C192.958 98.9125 193.217 98.73 193.514 98.6631C193.812 98.5963 194.124 98.6504 194.382 98.8136C194.64 98.9769 194.822 99.2359 194.889 99.5336C194.956 99.8314 194.902 100.143 194.739 100.401C194.149 101.471 193.281 102.362 192.227 102.979C191.173 103.597 189.972 103.918 188.75 103.91Z" fill="black"/>
<path d="M150.399 281.33L140.332 232.433C138.619 224.118 139.054 215.504 141.597 207.404L164.09 135.779H184.149L188.751 145.996C198.628 167.93 229.933 167.458 239.149 145.242L243.072 135.779H260.767L282.931 208.601C285.791 217.987 285.933 227.992 283.339 237.455L271.328 281.33H150.399Z" fill="#FFE6C1"/>
<path d="M214.822 64.4998H203.709C200.273 64.4998 196.978 63.135 194.548 60.7055C192.119 58.276 190.754 54.981 190.754 51.5452V43.2155H214.822V64.4998Z" fill="black"/>
<path d="M260.766 135.785L284.391 214.692L328.824 188.478C323.914 179.476 318.46 170.781 312.492 162.442C301.959 147.739 296.5 140.312 287.25 136.556C277.419 132.529 267.542 133.927 260.766 135.785Z" fill="black"/>
<path d="M245.695 77.0519H225.734C223.809 77.0511 221.903 76.6712 220.125 75.9339C218.347 75.1966 216.732 74.1163 215.371 72.7547C214.01 71.3931 212.931 69.7769 212.196 67.9983C211.46 66.2197 211.081 64.3135 211.082 62.3887V55.7618H245.701L245.695 77.0519Z" fill="black"/>
<path d="M238.64 43.2155H204.24V64.5056H238.64V43.2155Z" fill="black"/>
<path d="M255.15 157.236C270.266 157.236 282.52 144.982 282.52 129.866C282.52 114.749 270.266 102.495 255.15 102.495C240.033 102.495 227.779 114.749 227.779 129.866C227.779 144.982 240.033 157.236 255.15 157.236Z" fill="black"/>
<path d="M235.145 176.317C246.338 176.317 255.411 167.244 255.411 156.051C255.411 144.859 246.338 135.785 235.145 135.785C223.952 135.785 214.879 144.859 214.879 156.051C214.879 167.244 223.952 176.317 235.145 176.317Z" fill="black"/>
<path d="M271.528 177.468C282.721 177.468 291.794 168.394 291.794 157.202C291.794 146.009 282.721 136.936 271.528 136.936C260.335 136.936 251.262 146.009 251.262 157.202C251.262 168.394 260.335 177.468 271.528 177.468Z" fill="black"/>
<path d="M230.225 246.199H194.622C189.312 246.193 184.222 244.08 180.467 240.325C176.713 236.57 174.602 231.479 174.598 226.169V202.089C174.598 199.51 175.621 197.037 177.442 195.212C179.264 193.387 181.735 192.36 184.314 192.355H240.533C243.11 192.358 245.581 193.384 247.404 195.206C249.227 197.029 250.252 199.5 250.255 202.077V226.157C250.252 231.47 248.141 236.564 244.385 240.321C240.63 244.079 235.537 246.193 230.225 246.199ZM184.314 194.656C182.347 194.659 180.462 195.442 179.072 196.834C177.682 198.225 176.9 200.111 176.899 202.077V226.157C176.903 230.857 178.772 235.363 182.094 238.687C185.417 242.01 189.922 243.88 194.622 243.886H230.225C234.925 243.882 239.432 242.013 242.756 238.689C246.08 235.365 247.949 230.858 247.954 226.157V202.089C247.954 200.119 247.172 198.231 245.781 196.837C244.39 195.444 242.502 194.659 240.533 194.656H184.314Z" fill="white"/>
<path d="M251.264 203.901C262.457 203.901 271.53 194.827 271.53 183.635C271.53 172.442 262.457 163.368 251.264 163.368C240.071 163.368 230.998 172.442 230.998 183.635C230.998 194.827 240.071 203.901 251.264 203.901Z" fill="black"/>
<path d="M322.365 238.266C322.157 238.266 321.952 238.208 321.774 238.1C321.595 237.992 321.45 237.838 321.352 237.654C321.255 237.469 321.209 237.262 321.22 237.054C321.232 236.845 321.299 236.644 321.416 236.471L334.33 217.39C334.415 217.265 334.524 217.157 334.65 217.074C334.776 216.99 334.917 216.933 335.066 216.904C335.214 216.875 335.367 216.876 335.515 216.906C335.663 216.936 335.804 216.995 335.93 217.08C336.055 217.164 336.163 217.273 336.246 217.399C336.33 217.525 336.387 217.666 336.416 217.815C336.445 217.963 336.444 218.116 336.414 218.264C336.384 218.413 336.325 218.554 336.24 218.679L323.32 237.76C323.215 237.916 323.072 238.044 322.906 238.132C322.739 238.221 322.554 238.267 322.365 238.266Z" fill="black"/>
<path d="M418.419 161.867C418.186 161.868 417.959 161.798 417.767 161.667C417.575 161.535 417.428 161.349 417.344 161.133C417.259 160.916 417.243 160.679 417.296 160.453C417.35 160.226 417.47 160.021 417.642 159.865C424.724 153.411 429.596 137.706 429.642 137.551C429.686 137.406 429.758 137.272 429.855 137.155C429.951 137.038 430.069 136.942 430.203 136.871C430.336 136.8 430.482 136.756 430.633 136.741C430.784 136.727 430.936 136.742 431.08 136.786C431.225 136.83 431.359 136.902 431.476 136.999C431.593 137.095 431.69 137.213 431.761 137.347C431.832 137.48 431.876 137.626 431.89 137.777C431.905 137.928 431.889 138.079 431.845 138.224C431.638 138.891 426.743 154.682 419.19 161.568C418.979 161.76 418.704 161.866 418.419 161.867Z" fill="black"/>
<path d="M411.271 155.643C411.032 155.644 410.799 155.571 410.604 155.433C410.408 155.296 410.261 155.101 410.181 154.876C410.102 154.651 410.094 154.407 410.159 154.177C410.225 153.948 410.36 153.744 410.546 153.595C417.098 148.28 424.461 128.364 424.536 128.169C424.653 127.9 424.868 127.687 425.138 127.572C425.407 127.456 425.71 127.448 425.985 127.549C426.26 127.649 426.487 127.851 426.618 128.112C426.75 128.374 426.776 128.676 426.693 128.957C426.382 129.802 419.037 149.666 411.995 155.384C411.791 155.551 411.535 155.642 411.271 155.643Z" fill="black"/>
<path d="M114.295 234.924C114.108 234.924 113.924 234.878 113.759 234.791C113.593 234.704 113.452 234.578 113.346 234.424L100.426 215.337C100.334 215.212 100.268 215.07 100.232 214.919C100.196 214.768 100.192 214.612 100.218 214.459C100.244 214.306 100.301 214.16 100.385 214.03C100.469 213.9 100.578 213.788 100.707 213.701C100.835 213.614 100.98 213.554 101.132 213.524C101.284 213.495 101.441 213.496 101.592 213.529C101.744 213.561 101.887 213.624 102.014 213.713C102.141 213.802 102.248 213.916 102.33 214.048L115.25 233.129C115.367 233.302 115.435 233.504 115.446 233.713C115.457 233.922 115.411 234.129 115.313 234.314C115.214 234.498 115.068 234.653 114.889 234.76C114.709 234.868 114.504 234.924 114.295 234.924Z" fill="black"/>
<path d="M18.2369 158.508C17.9518 158.507 17.6771 158.4 17.4661 158.208C9.91877 151.305 5.01762 135.532 4.81053 134.865C4.75761 134.718 4.73504 134.562 4.74416 134.407C4.75329 134.251 4.79393 134.099 4.86362 133.96C4.93331 133.82 5.03059 133.696 5.14957 133.596C5.26855 133.495 5.40674 133.42 5.55576 133.374C5.70478 133.328 5.86151 133.313 6.01646 133.33C6.17141 133.347 6.32133 133.395 6.45714 133.472C6.59294 133.548 6.7118 133.651 6.80649 133.775C6.90118 133.899 6.96973 134.041 7.00799 134.192C7.05976 134.347 11.9321 150.051 19.0077 156.511C19.1777 156.668 19.2964 156.873 19.3485 157.098C19.4006 157.323 19.3837 157.559 19.2999 157.774C19.216 157.99 19.0692 158.175 18.8786 158.306C18.688 158.437 18.4624 158.507 18.2312 158.508H18.2369Z" fill="black"/>
<path d="M25.3855 152.278C25.1214 152.277 24.8654 152.186 24.6607 152.019C17.6139 146.306 10.2794 126.437 9.95726 125.597C9.90514 125.455 9.88149 125.304 9.88768 125.153C9.89388 125.002 9.92978 124.854 9.99335 124.716C10.0569 124.579 10.1469 124.456 10.2582 124.353C10.3694 124.251 10.4998 124.171 10.6418 124.119C10.7838 124.067 10.9347 124.043 11.0859 124.049C11.237 124.056 11.3855 124.091 11.5228 124.155C11.6601 124.219 11.7835 124.309 11.886 124.42C11.9885 124.531 12.0681 124.661 12.1202 124.804C12.195 125.005 19.5525 144.937 26.1103 150.235C26.2942 150.385 26.4273 150.589 26.4912 150.817C26.5552 151.046 26.5469 151.288 26.4675 151.512C26.3881 151.735 26.2416 151.929 26.0479 152.066C25.8542 152.203 25.6228 152.277 25.3855 152.278Z" fill="black"/>
<path d="M209.5 399.619C209.195 399.619 208.902 399.497 208.687 399.282C208.471 399.066 208.35 398.773 208.35 398.468V342.79C208.35 342.484 208.471 342.192 208.687 341.976C208.902 341.76 209.195 341.639 209.5 341.639C209.805 341.639 210.098 341.76 210.314 341.976C210.529 342.192 210.651 342.484 210.651 342.79V398.468C210.651 398.773 210.529 399.066 210.314 399.282C210.098 399.497 209.805 399.619 209.5 399.619Z" fill="white"/>
<path d="M209.5 309.132C209.195 309.132 208.902 309.01 208.687 308.795C208.471 308.579 208.35 308.286 208.35 307.981V281.33C208.35 281.024 208.471 280.732 208.687 280.516C208.902 280.3 209.195 280.179 209.5 280.179C209.805 280.179 210.098 280.3 210.314 280.516C210.529 280.732 210.651 281.024 210.651 281.33V307.981C210.651 308.286 210.529 308.579 210.314 308.795C210.098 309.01 209.805 309.132 209.5 309.132Z" fill="white"/>
<path d="M281.147 310.99C281.08 310.995 281.013 310.995 280.946 310.99C266.731 308.493 259.316 300.635 255.606 294.44C253.173 290.479 251.576 286.063 250.912 281.462C250.897 281.311 250.912 281.158 250.956 281.013C250.999 280.868 251.071 280.732 251.168 280.615C251.264 280.497 251.382 280.4 251.516 280.328C251.65 280.256 251.796 280.212 251.947 280.196C252.099 280.181 252.251 280.196 252.397 280.24C252.542 280.284 252.677 280.356 252.795 280.452C252.912 280.548 253.01 280.667 253.081 280.8C253.153 280.934 253.198 281.081 253.213 281.232C253.877 285.512 255.383 289.617 257.642 293.312C262.693 301.642 270.672 306.819 281.36 308.7C281.665 308.726 281.948 308.872 282.145 309.106C282.342 309.34 282.439 309.643 282.413 309.948C282.387 310.254 282.241 310.536 282.007 310.733C281.773 310.931 281.47 311.027 281.165 311.001L281.147 310.99Z" fill="white"/>
<path d="M142.711 312.52C140.993 312.514 139.277 312.401 137.574 312.18C137.269 312.141 136.991 311.983 136.803 311.74C136.615 311.496 136.531 311.188 136.57 310.883C136.609 310.578 136.767 310.301 137.011 310.113C137.254 309.924 137.562 309.84 137.867 309.879C146.427 310.978 153.318 309.264 158.352 304.8C167.654 296.545 167.648 281.473 167.648 281.324C167.648 281.019 167.769 280.726 167.985 280.51C168.201 280.295 168.493 280.173 168.798 280.173C169.103 280.173 169.396 280.295 169.612 280.51C169.828 280.726 169.949 281.019 169.949 281.324C169.949 281.98 169.949 297.569 159.888 306.526C155.401 310.512 149.637 312.52 142.711 312.52Z" fill="white"/>
<path d="M107.26 186.217L141.97 206.213L164.089 135.785C164.089 135.785 133.422 127.237 107.26 186.217Z" fill="black"/>
<path d="M52.4401 307.084H15.4974C13.6488 307.082 11.8763 306.347 10.5691 305.04C9.26196 303.733 8.52691 301.96 8.52539 300.112V263.175C8.52844 261.327 9.26415 259.556 10.5712 258.25C11.8782 256.944 13.6498 256.21 15.4974 256.208H52.4286C54.2773 256.21 56.0498 256.945 57.3569 258.252C58.6641 259.559 59.3992 261.332 59.4007 263.18V300.117C59.3977 301.963 58.6635 303.732 57.359 305.038C56.0544 306.344 54.2858 307.079 52.4401 307.084ZM15.4974 258.509C14.2591 258.511 13.0719 259.004 12.1962 259.879C11.3205 260.755 10.8279 261.942 10.8264 263.18V300.117C10.8279 301.356 11.3205 302.543 12.1962 303.419C13.0719 304.294 14.2591 304.787 15.4974 304.788H52.4286C53.667 304.787 54.8542 304.294 55.7299 303.419C56.6055 302.543 57.0982 301.356 57.0997 300.117V263.175C57.0982 261.936 56.6055 260.749 55.7299 259.873C54.8542 258.998 53.667 258.505 52.4286 258.504L15.4974 258.509Z" fill="black"/>
<path d="M25.6324 277.613C24.4851 277.615 23.3632 277.275 22.4088 276.639C21.4543 276.002 20.7102 275.096 20.2706 274.037C19.831 272.977 19.7157 271.81 19.9393 270.685C20.1628 269.56 20.7152 268.526 21.5265 267.715C22.3378 266.903 23.3715 266.351 24.4968 266.128C25.6222 265.904 26.7886 266.019 27.8483 266.459C28.9081 266.898 29.8137 267.643 30.4504 268.597C31.0871 269.551 31.4263 270.673 31.4252 271.821C31.4237 273.357 30.8129 274.829 29.7269 275.915C28.6408 277.001 27.1683 277.612 25.6324 277.613ZM25.6324 268.323C24.9404 268.322 24.2636 268.526 23.6877 268.91C23.1118 269.293 22.6626 269.839 22.397 270.478C22.1314 271.117 22.0613 271.821 22.1956 272.499C22.3299 273.178 22.6626 273.802 23.1515 274.292C23.6404 274.781 24.2636 275.115 24.9422 275.251C25.6208 275.386 26.3244 275.317 26.9638 275.052C27.6032 274.788 28.1498 274.34 28.5344 273.764C28.9189 273.189 29.1242 272.513 29.1242 271.821C29.1242 270.894 28.7565 270.005 28.1018 269.35C27.4472 268.694 26.559 268.325 25.6324 268.323Z" fill="black"/>
<path d="M42.3162 295.418C41.1705 295.418 40.0505 295.078 39.0979 294.441C38.1453 293.805 37.4028 292.9 36.9644 291.842C36.5259 290.783 36.4112 289.618 36.6347 288.495C36.8583 287.371 37.41 286.339 38.2201 285.529C39.0302 284.718 40.0624 284.167 41.1861 283.943C42.3098 283.72 43.4745 283.834 44.533 284.273C45.5915 284.711 46.4962 285.454 47.1328 286.406C47.7693 287.359 48.109 288.479 48.109 289.625C48.1075 291.161 47.4967 292.633 46.4107 293.719C45.3246 294.805 43.8521 295.416 42.3162 295.418ZM42.3162 286.133C41.6256 286.133 40.9505 286.338 40.3763 286.721C39.8021 287.105 39.3545 287.65 39.0902 288.288C38.826 288.927 38.7568 289.629 38.8915 290.306C39.0263 290.983 39.3588 291.605 39.8472 292.094C40.3355 292.582 40.9577 292.915 41.635 293.049C42.3124 293.184 43.0144 293.115 43.6525 292.851C44.2905 292.586 44.8359 292.139 45.2195 291.565C45.6032 290.99 45.808 290.315 45.808 289.625C45.8095 289.165 45.7203 288.71 45.5455 288.285C45.3707 287.86 45.1138 287.474 44.7894 287.148C44.465 286.823 44.0795 286.565 43.6551 286.388C43.2307 286.212 42.7757 286.121 42.3162 286.121V286.133Z" fill="black"/>
<path d="M22.974 298.829C22.7709 298.825 22.5724 298.767 22.3988 298.662C22.1383 298.504 21.9509 298.25 21.8776 297.955C21.8043 297.659 21.8511 297.347 22.0076 297.086L41.3246 265.015C41.4825 264.754 41.7379 264.566 42.0345 264.492C42.3312 264.419 42.6449 264.466 42.9065 264.624C43.1682 264.782 43.3564 265.038 43.4297 265.334C43.5031 265.631 43.4556 265.945 43.2977 266.206L23.9807 298.271C23.8767 298.444 23.7289 298.587 23.5522 298.685C23.3755 298.783 23.1761 298.832 22.974 298.829Z" fill="black"/>
<path d="M462.422 317.651H412.375C408.969 317.648 405.703 316.294 403.295 313.885C400.887 311.477 399.532 308.212 399.529 304.806V205.765C399.535 202.365 400.888 199.106 403.291 196.7C405.694 194.295 408.952 192.94 412.352 192.931H462.399C465.804 192.934 469.07 194.288 471.478 196.696C473.887 199.105 475.241 202.37 475.244 205.776V304.806C475.239 308.207 473.888 311.468 471.485 313.876C469.082 316.283 465.823 317.64 462.422 317.651ZM412.352 195.232C409.556 195.235 406.876 196.347 404.899 198.323C402.922 200.3 401.81 202.98 401.807 205.776V304.806C401.81 307.601 402.922 310.281 404.899 312.258C406.876 314.235 409.556 315.347 412.352 315.35H462.399C465.194 315.347 467.874 314.235 469.851 312.258C471.828 310.281 472.94 307.601 472.943 304.806V205.765C472.937 202.975 471.827 200.301 469.855 198.327C467.884 196.354 465.211 195.241 462.422 195.232H412.352Z" fill="black"/>
<path d="M452.669 266.776H422.1C419.158 266.776 416.773 269.161 416.773 272.103V290.562C416.773 293.504 419.158 295.889 422.1 295.889H452.669C455.611 295.889 457.996 293.504 457.996 290.562V272.103C457.996 269.161 455.611 266.776 452.669 266.776Z" fill="#89D6FB"/>
<path d="M456.92 278.367H417.936C417.631 278.367 417.338 278.246 417.122 278.03C416.906 277.814 416.785 277.522 416.785 277.217C416.785 276.911 416.906 276.619 417.122 276.403C417.338 276.187 417.631 276.066 417.936 276.066H456.92C457.226 276.066 457.518 276.187 457.734 276.403C457.95 276.619 458.071 276.911 458.071 277.217C458.071 277.522 457.95 277.814 457.734 278.03C457.518 278.246 457.226 278.367 456.92 278.367Z" fill="black"/>
<path d="M429.955 292.3H424.956C423.895 292.26 422.892 291.811 422.155 291.046C421.419 290.282 421.008 289.262 421.008 288.201C421.008 287.14 421.419 286.12 422.155 285.356C422.892 284.591 423.895 284.142 424.956 284.102H429.955C431.015 284.142 432.019 284.591 432.755 285.356C433.491 286.12 433.903 287.14 433.903 288.201C433.903 289.262 433.491 290.282 432.755 291.046C432.019 291.811 431.015 292.26 429.955 292.3ZM424.956 286.403C424.497 286.429 424.065 286.63 423.749 286.964C423.433 287.299 423.257 287.741 423.257 288.201C423.257 288.661 423.433 289.103 423.749 289.438C424.065 289.772 424.497 289.973 424.956 289.999H429.955C430.414 289.973 430.846 289.772 431.162 289.438C431.478 289.103 431.654 288.661 431.654 288.201C431.654 287.741 431.478 287.299 431.162 286.964C430.846 286.63 430.414 286.429 429.955 286.403H424.956Z" fill="black"/>
<path d="M454.402 215.141H420.301C417.36 215.141 414.975 217.526 414.975 220.468V238.928C414.975 241.87 417.36 244.255 420.301 244.255H454.402C457.344 244.255 459.729 241.87 459.729 238.928V220.468C459.729 217.526 457.344 215.141 454.402 215.141Z" fill="#FFE6C1"/>
<path d="M437.351 237.052C435.893 237.052 434.467 236.62 433.254 235.81C432.041 234.999 431.096 233.847 430.538 232.5C429.98 231.152 429.834 229.67 430.118 228.239C430.403 226.808 431.105 225.494 432.137 224.463C433.168 223.432 434.482 222.729 435.913 222.445C437.343 222.16 438.826 222.306 440.173 222.864C441.521 223.423 442.673 224.368 443.483 225.581C444.294 226.793 444.726 228.219 444.726 229.678C444.724 231.633 443.947 233.508 442.564 234.891C441.182 236.273 439.307 237.051 437.351 237.052ZM437.351 224.604C436.348 224.604 435.367 224.902 434.532 225.459C433.698 226.017 433.048 226.809 432.664 227.736C432.28 228.663 432.179 229.683 432.375 230.668C432.571 231.652 433.054 232.556 433.764 233.265C434.473 233.975 435.377 234.458 436.361 234.654C437.346 234.85 438.366 234.749 439.293 234.365C440.22 233.981 441.012 233.331 441.57 232.497C442.127 231.662 442.425 230.681 442.425 229.678C442.423 228.333 441.888 227.043 440.937 226.092C439.986 225.141 438.696 224.606 437.351 224.604Z" fill="black"/>
<path d="M419.191 237.052H414.975V234.751H419.191C420.316 234.625 421.354 234.089 422.108 233.245C422.863 232.402 423.279 231.31 423.279 230.178C423.279 229.047 422.863 227.955 422.108 227.111C421.354 226.267 420.316 225.731 419.191 225.605H414.975V223.304H419.191C420.906 223.461 422.5 224.253 423.661 225.525C424.821 226.797 425.465 228.456 425.465 230.178C425.465 231.9 424.821 233.56 423.661 234.831C422.5 236.103 420.906 236.895 419.191 237.052Z" fill="black"/>
<path d="M459.799 237.087H455.566C453.845 236.938 452.242 236.148 451.075 234.875C449.907 233.602 449.26 231.937 449.26 230.21C449.26 228.482 449.907 226.818 451.075 225.545C452.242 224.271 453.845 223.482 455.566 223.333H459.782V225.634H455.566C454.436 225.754 453.39 226.288 452.631 227.133C451.871 227.978 451.451 229.074 451.451 230.21C451.451 231.346 451.871 232.442 452.631 233.287C453.39 234.132 454.436 234.666 455.566 234.786H459.782L459.799 237.087Z" fill="black"/>
<path d="M467.508 119.764H326.519C322.112 119.752 317.888 117.996 314.771 114.88C311.654 111.764 309.896 107.541 309.883 103.134V16.7424C309.895 12.334 311.652 8.1095 314.769 4.99222C317.886 1.87494 322.111 0.1183 326.519 0.106155H467.508C471.916 0.1183 476.141 1.87494 479.258 4.99222C482.375 8.1095 484.132 12.334 484.144 16.7424V103.134C484.13 107.541 482.373 111.764 479.256 114.88C476.139 117.996 471.915 119.752 467.508 119.764ZM326.519 2.41291C322.721 2.42505 319.082 3.93926 316.396 6.62502C313.71 9.31079 312.196 12.95 312.184 16.7482V103.134C312.188 106.934 313.7 110.577 316.388 113.263C319.075 115.95 322.719 117.46 326.519 117.463H467.508C471.308 117.46 474.951 115.95 477.639 113.263C480.326 110.577 481.838 106.934 481.843 103.134V16.7424C481.831 12.9442 480.317 9.30504 477.631 6.61928C474.945 3.93352 471.306 2.4193 467.508 2.40716L326.519 2.41291Z" fill="black"/>
<path d="M383.253 23.2543H338.993C334.434 23.2543 330.738 26.9501 330.738 31.5092V83.4774C330.738 88.0365 334.434 91.7323 338.993 91.7323H383.253C387.812 91.7323 391.508 88.0365 391.508 83.4774V31.5092C391.508 26.9501 387.812 23.2543 383.253 23.2543Z" fill="#89D6FB"/>
<path d="M362.274 59.9381H359.973V91.738H362.274V59.9381Z" fill="black"/>
<path d="M418.183 24.6924H407.471C405.867 24.6924 404.566 25.9931 404.566 27.5975V38.3086C404.566 39.913 405.867 41.2137 407.471 41.2137H418.183C419.787 41.2137 421.088 39.913 421.088 38.3086V27.5975C421.088 25.9931 419.787 24.6924 418.183 24.6924Z" fill="#FFE6C1"/>
<path d="M441.356 24.6924H430.645C429.041 24.6924 427.74 25.9931 427.74 27.5975V38.3086C427.74 39.913 429.041 41.2137 430.645 41.2137H441.356C442.961 41.2137 444.261 39.913 444.261 38.3086V27.5975C444.261 25.9931 442.961 24.6924 441.356 24.6924Z" fill="#FFE6C1"/>
<path d="M464.534 24.6924H453.823C452.219 24.6924 450.918 25.9931 450.918 27.5975V38.3086C450.918 39.913 452.219 41.2137 453.823 41.2137H464.534C466.139 41.2137 467.439 39.913 467.439 38.3086V27.5975C467.439 25.9931 466.139 24.6924 464.534 24.6924Z" fill="#FFE6C1"/>
<path d="M467.441 57.4128H405.711C405.406 57.4128 405.113 57.2916 404.898 57.0758C404.682 56.86 404.561 56.5674 404.561 56.2623C404.561 55.9571 404.682 55.6645 404.898 55.4487C405.113 55.233 405.406 55.1118 405.711 55.1118H467.441C467.746 55.1118 468.039 55.233 468.255 55.4487C468.471 55.6645 468.592 55.9571 468.592 56.2623C468.592 56.5674 468.471 56.86 468.255 57.0758C468.039 57.2916 467.746 57.4128 467.441 57.4128Z" fill="black"/>
<path d="M467.441 69.5908H405.711C405.406 69.5908 405.113 69.4696 404.898 69.2539C404.682 69.0381 404.561 68.7455 404.561 68.4403C404.561 68.1352 404.682 67.8426 404.898 67.6268C405.113 67.4111 405.406 67.2898 405.711 67.2898H467.441C467.746 67.2898 468.039 67.4111 468.255 67.6268C468.471 67.8426 468.592 68.1352 468.592 68.4403C468.592 68.7455 468.471 69.0381 468.255 69.2539C468.039 69.4696 467.746 69.5908 467.441 69.5908Z" fill="black"/>
<path d="M445.955 81.769H405.688C405.382 81.769 405.09 81.6478 404.874 81.432C404.658 81.2162 404.537 80.9236 404.537 80.6185C404.537 80.3133 404.658 80.0207 404.874 79.8049C405.09 79.5892 405.382 79.468 405.688 79.468H445.955C446.26 79.468 446.553 79.5892 446.769 79.8049C446.985 80.0207 447.106 80.3133 447.106 80.6185C447.106 80.9236 446.985 81.2162 446.769 81.432C446.553 81.6478 446.26 81.769 445.955 81.769Z" fill="black"/>
<path d="M372.583 59.9381H349.526C349.285 59.9381 349.046 59.8905 348.823 59.7979C348.6 59.7053 348.397 59.5696 348.227 59.3986C348.056 59.2276 347.921 59.0246 347.829 58.8013C347.738 58.578 347.691 58.3388 347.691 58.0973V46.4369C347.691 46.1608 347.801 45.896 347.996 45.7007C348.192 45.5054 348.456 45.3957 348.733 45.3957H373.371C373.508 45.395 373.644 45.4213 373.771 45.4733C373.898 45.5253 374.013 45.6019 374.111 45.6987C374.208 45.7954 374.285 45.9105 374.338 46.0372C374.391 46.1639 374.418 46.2997 374.418 46.4369V58.0973C374.418 58.3388 374.371 58.578 374.28 58.8013C374.188 59.0246 374.053 59.2276 373.882 59.3986C373.712 59.5696 373.509 59.7053 373.286 59.7979C373.063 59.8905 372.824 59.9381 372.583 59.9381Z" fill="#FFBB45"/>
<path d="M361.055 49.5721C368.435 49.5721 374.418 47.7023 374.418 45.3958C374.418 43.0892 368.435 41.2194 361.055 41.2194C353.674 41.2194 347.691 43.0892 347.691 45.3958C347.691 47.7023 353.674 49.5721 361.055 49.5721Z" fill="black"/>
<path d="M269.521 282.48H152.17C151.865 282.48 151.572 282.359 151.357 282.143C151.141 281.927 151.02 281.635 151.02 281.33C151.02 281.024 151.141 280.732 151.357 280.516C151.572 280.3 151.865 280.179 152.17 280.179H269.521C269.827 280.179 270.119 280.3 270.335 280.516C270.551 280.732 270.672 281.024 270.672 281.33C270.672 281.635 270.551 281.927 270.335 282.143C270.119 282.359 269.827 282.48 269.521 282.48Z" fill="white"/>
</svg>
