<svg width="582" height="386" viewBox="0 0 582 386" fill="none" xmlns="http://www.w3.org/2000/svg">
<path d="M124.895 225.749C97.6952 198.973 86.2072 171.038 92.5465 147.092C100.682 116.363 136.823 95.1155 191.704 88.7991L191.906 90.5618C137.79 96.7898 102.2 117.56 94.2616 147.546C88.0921 170.85 99.4133 198.175 126.14 224.486L124.895 225.749Z" fill="#F0F0F0"/>
<path d="M387.329 320.798C353.382 320.798 316.492 315.753 279.85 306.052C234.537 294.056 192.991 275.95 159.701 253.689L160.687 252.215C193.816 274.367 235.179 292.391 280.304 304.337C321.083 315.134 362.168 320.136 399.102 318.816L399.166 320.588C395.265 320.728 391.32 320.798 387.329 320.798Z" fill="#F0F0F0"/>
<path d="M465.206 309.642L464.638 307.961C494.999 297.696 513.989 281.16 519.554 260.139C526.629 233.416 511.26 202.406 476.278 172.821C441.118 143.086 390.417 118.413 333.512 103.348L333.966 101.633C391.119 116.764 442.067 141.565 477.423 171.467C512.957 201.519 528.529 233.171 521.269 260.593C515.545 282.217 496.158 299.177 465.206 309.642Z" fill="#F0F0F0"/>
<path d="M186.422 321.539C119.718 291.955 68.3173 253.573 41.6895 213.463L43.1672 212.482C69.611 252.314 120.742 290.468 187.141 319.917L186.422 321.539Z" fill="#F0F0F0"/>
<path d="M420.948 372.791C414.068 372.791 407.07 372.638 399.955 372.33L400.031 370.558C453.13 372.857 499.981 366.503 535.526 352.178L536.189 353.824C505.182 366.318 465.661 372.791 420.948 372.791Z" fill="#F0F0F0"/>
<path d="M382.244 90.3899C371.219 86.8003 359.879 83.4581 348.539 80.4558C283.28 63.1795 219.129 57.0454 163.02 62.7204L162.842 60.955C219.16 55.2615 283.53 61.4102 348.993 78.7407C360.365 81.7517 371.737 85.1034 382.794 88.7033L382.244 90.3899Z" fill="#F0F0F0"/>
<path d="M83.2058 228.41C56.0057 201.634 44.5178 173.699 50.857 149.753C58.9924 119.023 95.1338 97.7764 150.014 91.46L150.217 93.2227C96.1005 99.4507 60.5104 120.221 52.5721 150.207C46.4026 173.511 57.7239 200.836 84.4505 227.147L83.2058 228.41Z" fill="#F0F0F0"/>
<path d="M345.642 323.459C311.694 323.459 274.805 318.414 238.163 308.713C192.85 296.717 151.303 278.611 118.014 256.35L118.999 254.876C152.129 277.029 193.491 295.052 238.617 306.998C279.396 317.794 320.48 322.797 357.414 321.477L357.478 323.249C353.578 323.389 349.632 323.459 345.642 323.459Z" fill="#F0F0F0"/>
<path d="M423.521 312.303L422.952 310.622C453.314 300.357 472.303 283.821 477.869 262.8C484.943 236.077 469.574 205.067 434.592 175.482C399.433 145.747 348.731 121.074 291.826 106.009L292.28 104.294C349.434 119.425 400.382 144.226 435.738 174.128C471.272 204.18 486.843 235.832 479.584 263.254C473.859 284.878 454.473 301.838 423.521 312.303Z" fill="#F0F0F0"/>
<path d="M144.733 324.2C78.0287 294.616 26.6278 256.234 0 216.124L1.47775 215.143C27.9216 254.975 79.0525 293.129 145.452 322.578L144.733 324.2Z" fill="#F0F0F0"/>
<path d="M379.261 375.452C372.381 375.452 365.383 375.299 358.268 374.991L358.344 373.219C411.443 375.518 458.293 369.164 493.838 354.839L494.502 356.485C463.494 368.979 423.973 375.452 379.261 375.452Z" fill="#F0F0F0"/>
<path d="M340.559 93.0509C329.534 89.4613 318.193 86.1191 306.853 83.1168C241.594 65.8405 177.444 59.7065 121.335 65.3814L121.156 63.616C177.474 57.9225 241.844 64.0712 307.307 81.4018C318.679 84.4127 330.052 87.7644 341.108 91.3644L340.559 93.0509Z" fill="#F0F0F0"/>
<path d="M30.2356 180.896C42.9836 166.602 63.3189 157.891 81.7473 163.106C64.7464 175.137 52.549 192.794 47.3132 212.952C45.3221 220.734 43.9179 229.596 37.4463 234.354C33.4195 237.315 28.084 238.022 23.1319 237.348C18.1796 236.673 13.4971 234.748 8.87778 232.839L7.63477 232.947C11.2085 214.131 17.4875 195.189 30.2356 180.896Z" fill="#E6E6E6"/>
<path d="M81.6931 163.504C66.2858 167.234 52.4455 175.725 42.1383 187.769C39.8733 190.322 38.025 193.217 36.6614 196.346C35.4316 199.437 35.0519 202.801 35.5618 206.088C35.9757 209.163 36.7551 212.26 36.4144 215.382C36.2162 216.977 35.6831 218.512 34.8499 219.887C34.0167 221.262 32.9023 222.445 31.5798 223.359C28.3437 225.722 24.4515 226.782 20.6093 227.685C16.3432 228.689 11.8962 229.663 8.41861 232.499C7.99726 232.842 7.48888 232.168 7.9096 231.825C13.9599 226.893 22.3685 227.526 29.0626 223.943C32.1862 222.271 34.8249 219.648 35.4665 216.048C36.0275 212.901 35.2265 209.706 34.7805 206.597C34.2361 203.397 34.4833 200.113 35.5008 197.031C36.7007 193.842 38.4344 190.881 40.6277 188.275C45.4719 182.328 51.221 177.179 57.6646 173.018C64.9922 168.228 73.0852 164.726 81.5935 162.665C82.1201 162.538 82.2164 163.377 81.6931 163.504L81.6931 163.504Z" fill="white"/>
<path d="M45.228 183.695C43.442 181.692 42.4264 179.118 42.3626 176.435C42.2987 173.752 43.1908 171.133 44.8794 169.047C45.2225 168.626 45.8928 169.139 45.5492 169.561C43.9732 171.501 43.1425 173.94 43.207 176.439C43.2716 178.937 44.2272 181.33 45.9014 183.186C46.2647 183.59 45.5893 184.097 45.228 183.695H45.228Z" fill="white"/>
<path d="M35.1447 204.557C40.6195 204.92 46.0302 203.207 50.2979 199.759C50.7205 199.417 51.229 200.09 50.807 200.432C46.3592 204.012 40.7249 205.784 35.0285 205.393C34.4856 205.355 34.6048 204.519 35.1447 204.557Z" fill="white"/>
<path d="M65.1811 169.331C65.7106 170.25 66.4601 171.023 67.3623 171.581C68.2646 172.139 69.2913 172.465 70.3503 172.528C70.8934 172.558 70.7736 173.394 70.234 173.364C69.0644 173.289 67.9309 172.928 66.9327 172.314C65.9345 171.699 65.1019 170.85 64.5077 169.84C64.4437 169.749 64.4166 169.638 64.4319 169.528C64.4472 169.418 64.5036 169.318 64.5899 169.249C64.6794 169.182 64.7917 169.153 64.9024 169.168C65.0131 169.183 65.1132 169.242 65.1811 169.331Z" fill="white"/>
<path d="M107.907 222.441C107.567 222.431 107.227 222.421 106.883 222.418C102.316 222.313 97.7475 222.579 93.2232 223.215C92.8726 223.258 92.518 223.308 92.1694 223.361C81.2856 225.008 70.8021 228.66 61.2517 234.134C57.4534 236.315 53.8266 238.783 50.4026 241.514C45.6743 245.287 40.8476 249.754 35.3119 251.688C34.7366 251.896 34.149 252.069 33.5524 252.204L7.86269 234.455C7.82455 234.385 7.78209 234.321 7.74366 234.251L6.68555 233.59C6.85229 233.436 7.02853 233.281 7.19528 233.128C7.29163 233.039 7.39374 232.953 7.49007 232.864C7.55612 232.806 7.62249 232.748 7.67876 232.691C7.70067 232.672 7.72287 232.652 7.74076 232.639C7.79703 232.582 7.85528 232.536 7.9075 232.486C8.89022 231.615 9.88078 230.749 10.8792 229.889C10.8832 229.883 10.8832 229.883 10.893 229.881C18.5169 223.346 26.7534 217.39 35.632 212.874C35.8992 212.738 36.1701 212.596 36.449 212.469C40.4624 210.455 44.6336 208.773 48.921 207.439C51.271 206.716 53.6561 206.113 56.0671 205.631C62.2993 204.398 68.6865 204.153 74.9947 204.905C87.5698 206.407 99.5248 211.913 107.319 221.688C107.518 221.938 107.712 222.184 107.907 222.441Z" fill="#E6E6E6"/>
<path d="M107.625 222.727C93.0768 216.429 76.9144 214.875 61.4332 218.286C58.0874 218.961 54.8689 220.16 51.8963 221.837C49.0533 223.565 46.7249 226.022 45.1528 228.954C43.6321 231.658 42.3897 234.6 40.2382 236.887C39.1194 238.042 37.7693 238.947 36.2763 239.543C34.7833 240.139 33.1811 240.413 31.5749 240.346C27.5683 240.285 23.8228 238.787 20.2109 237.196C16.2006 235.428 12.0631 233.529 7.57951 233.699C7.03626 233.719 7.03607 232.875 7.5785 232.855C15.3791 232.559 21.7116 238.127 29.2136 239.297C32.7141 239.843 36.4004 239.337 39.0799 236.849C41.4229 234.674 42.7067 231.641 44.2228 228.889C45.7144 226.007 47.8892 223.533 50.5571 221.685C53.4348 219.862 56.6017 218.542 59.9223 217.781C67.3708 215.949 75.061 215.299 82.7112 215.856C91.4458 216.443 100.016 218.52 108.05 221.997C108.547 222.213 108.119 222.941 107.625 222.727Z" fill="white"/>
<path d="M66.3524 216.894C66.1328 214.219 66.8711 211.553 68.4357 209.372C70.0003 207.191 72.2892 205.638 74.8936 204.988C75.421 204.859 75.6471 205.672 75.119 205.802C72.6926 206.402 70.5606 207.85 69.1079 209.884C67.6551 211.917 66.9772 214.404 67.1965 216.893C67.2436 217.435 66.3992 217.432 66.3524 216.894Z" fill="white"/>
<path d="M45.7439 227.481C49.8963 231.068 55.2479 232.957 60.7317 232.773C61.275 232.755 61.2754 233.599 60.7327 233.617C55.0258 233.798 49.4606 231.82 45.1478 228.079C44.7369 227.722 45.3353 227.126 45.7439 227.481Z" fill="white"/>
<path d="M90.9321 217.438C90.8014 218.491 90.9342 219.56 91.3186 220.549C91.7031 221.537 92.3271 222.415 93.1346 223.103C93.5497 223.455 92.9509 224.05 92.5384 223.701C91.6498 222.936 90.9618 221.966 90.5347 220.875C90.1075 219.783 89.9541 218.604 90.0879 217.439C90.0914 217.329 90.1368 217.223 90.2151 217.145C90.2934 217.066 90.3987 217.021 90.5095 217.017C90.6212 217.017 90.7283 217.062 90.8074 217.141C90.8866 217.22 90.9314 217.327 90.932 217.438H90.9321Z" fill="white"/>
<path d="M529.753 298.063C522.55 280.317 506.326 265.278 487.217 263.995C499.185 281.041 504.738 301.77 502.894 322.516C502.154 330.514 500.498 339.332 504.994 345.989C507.792 350.13 512.579 352.59 517.47 353.619C522.36 354.648 527.418 354.408 532.41 354.164L533.544 354.683C536.502 335.76 536.955 315.81 529.753 298.063Z" fill="#E6E6E6"/>
<path d="M487.133 264.389C500.391 273.081 510.572 285.729 516.232 300.537C517.507 303.703 518.275 307.05 518.507 310.456C518.627 313.78 517.854 317.076 516.269 320.001C514.845 322.758 513.07 325.413 512.342 328.467C511.992 330.036 511.979 331.662 512.301 333.237C512.624 334.812 513.276 336.3 514.214 337.606C516.468 340.919 519.777 343.225 523.092 345.367C526.773 347.746 530.634 350.159 532.956 353.998C533.238 354.463 533.943 353.999 533.662 353.535C529.621 346.855 521.489 344.626 516.389 339.002C514.009 336.377 512.405 333.02 513.011 329.414C513.54 326.261 515.368 323.521 516.833 320.742C518.422 317.912 519.293 314.736 519.37 311.491C519.312 308.085 518.674 304.714 517.484 301.521C514.921 294.292 511.237 287.511 506.567 281.426C501.275 274.451 494.83 268.434 487.509 263.633C487.056 263.336 486.683 264.094 487.133 264.389Z" fill="white"/>
<path d="M514.691 295.662C517.047 294.375 518.868 292.293 519.83 289.787C520.792 287.281 520.832 284.515 519.943 281.982C519.761 281.471 518.957 281.729 519.139 282.241C519.971 284.598 519.934 287.175 519.033 289.506C518.133 291.838 516.428 293.771 514.228 294.956C513.75 295.214 514.216 295.918 514.691 295.662Z" fill="white"/>
<path d="M517.176 318.698C511.898 317.201 507.378 313.768 504.517 309.086C504.234 308.622 503.529 309.086 503.812 309.549C506.797 314.416 511.509 317.978 517.005 319.525C517.529 319.672 517.698 318.844 517.176 318.698Z" fill="white"/>
<path d="M500.728 275.427C499.92 276.114 498.954 276.591 497.917 276.813C496.88 277.035 495.804 276.997 494.785 276.7C494.263 276.547 494.095 277.374 494.613 277.527C495.74 277.849 496.929 277.89 498.076 277.647C499.222 277.404 500.292 276.884 501.191 276.132C501.282 276.069 501.345 275.973 501.367 275.864C501.39 275.756 501.37 275.642 501.312 275.548C501.251 275.455 501.154 275.39 501.045 275.367C500.936 275.344 500.822 275.366 500.728 275.427Z" fill="white"/>
<path d="M442.635 311.086C442.958 311.191 443.281 311.297 443.606 311.409C447.943 312.845 452.156 314.632 456.204 316.75C456.52 316.909 456.837 317.075 457.147 317.243C466.845 322.451 475.491 329.415 482.646 337.78C485.49 341.111 488.076 344.654 490.383 348.378C493.568 353.52 496.613 359.35 501.176 363.031C501.648 363.421 502.144 363.781 502.66 364.109L532.821 356.027C532.88 355.974 532.942 355.928 533.001 355.875L534.22 355.607C534.115 355.407 534.001 355.201 533.896 355.001C533.835 354.885 533.767 354.77 533.707 354.653C533.664 354.576 533.621 354.499 533.587 354.427C533.573 354.402 533.558 354.376 533.546 354.357C533.512 354.285 533.473 354.222 533.441 354.157C532.808 353.006 532.166 351.858 531.515 350.712C531.513 350.705 531.513 350.705 531.504 350.7C526.52 341.983 520.765 333.605 513.92 326.368C513.714 326.15 513.507 325.925 513.287 325.711C510.184 322.466 506.821 319.48 503.231 316.782C501.261 315.312 499.217 313.942 497.109 312.678C491.653 309.422 485.72 307.045 479.526 305.633C467.178 302.82 454.068 303.988 443.442 310.575C443.17 310.744 442.905 310.911 442.635 311.086Z" fill="#E6E6E6"/>
<path d="M442.805 311.451C458.623 310.409 474.367 314.378 487.802 322.794C490.726 324.554 493.354 326.764 495.59 329.343C497.687 331.926 499.054 335.023 499.55 338.312C500.073 341.37 500.254 344.559 501.512 347.436C502.177 348.9 503.145 350.206 504.351 351.269C505.556 352.332 506.973 353.129 508.509 353.606C512.303 354.895 516.334 354.743 520.27 354.458C524.642 354.141 529.177 353.743 533.342 355.41C533.847 355.612 534.131 354.817 533.627 354.615C526.379 351.715 518.544 354.831 511.085 353.411C507.605 352.749 504.303 351.033 502.616 347.79C501.14 344.953 500.95 341.665 500.447 338.564C500.011 335.348 498.794 332.288 496.903 329.65C494.805 326.966 492.266 324.658 489.394 322.826C482.995 318.597 475.97 315.4 468.578 313.354C460.154 310.971 451.385 310.047 442.649 310.621C442.109 310.657 442.268 311.486 442.805 311.451Z" fill="white"/>
<path d="M483.636 319.829C484.742 317.384 484.942 314.624 484.202 312.045C483.461 309.465 481.828 307.232 479.593 305.745C479.14 305.446 478.653 306.136 479.107 306.436C481.191 307.816 482.712 309.896 483.397 312.3C484.082 314.704 483.884 317.273 482.841 319.545C482.615 320.038 483.411 320.32 483.636 319.829H483.636Z" fill="white"/>
<path d="M499.489 336.727C494.373 338.709 488.698 338.69 483.595 336.674C483.089 336.474 482.805 337.269 483.31 337.469C488.624 339.557 494.53 339.565 499.85 337.49C500.357 337.292 499.993 336.53 499.489 336.727Z" fill="white"/>
<path d="M460.302 312.08C460.071 313.116 459.587 314.078 458.892 314.88C458.198 315.682 457.315 316.299 456.323 316.675C455.814 316.867 456.178 317.629 456.684 317.438C457.778 317.017 458.752 316.335 459.521 315.45C460.29 314.566 460.831 313.507 461.096 312.365C461.13 312.259 461.123 312.145 461.076 312.045C461.028 311.944 460.945 311.866 460.841 311.825C460.736 311.788 460.62 311.794 460.519 311.842C460.418 311.89 460.34 311.975 460.302 312.08V312.08Z" fill="white"/>
<path d="M390.016 358.492C393.935 358.492 397.112 355.315 397.112 351.396C397.112 347.477 393.935 344.3 390.016 344.3C386.097 344.3 382.92 347.477 382.92 351.396C382.92 355.315 386.097 358.492 390.016 358.492Z" fill="#E07B02"/>
<path d="M415.151 237.632C419.07 237.632 422.247 234.455 422.247 230.536C422.247 226.618 419.07 223.441 415.151 223.441C411.232 223.441 408.055 226.618 408.055 230.536C408.055 234.455 411.232 237.632 415.151 237.632Z" fill="#C2C2C2"/>
<path d="M283.113 40.8052C287.032 40.8052 290.209 37.6283 290.209 33.7093C290.209 29.7904 287.032 26.6134 283.113 26.6134C279.195 26.6134 276.018 29.7904 276.018 33.7093C276.018 37.6283 279.195 40.8052 283.113 40.8052Z" fill="#C2C2C2"/>
<path d="M134.416 305.908C134.416 307.714 134.476 309.52 134.602 311.312C134.736 313.453 134.966 315.579 135.278 317.69C136.328 324.798 138.333 331.732 141.24 338.302C141.389 338.63 141.537 338.957 141.686 339.284L141.909 339.774C141.983 339.938 142.065 340.101 142.139 340.257C142.243 340.473 142.34 340.681 142.444 340.889C142.57 341.149 142.697 341.41 142.831 341.67C142.846 341.699 142.86 341.737 142.883 341.774C142.994 341.997 143.098 342.212 143.217 342.435C143.239 342.484 143.264 342.531 143.292 342.577C143.418 342.829 143.552 343.09 143.686 343.342C143.834 343.61 143.975 343.885 144.124 344.152C144.481 344.814 144.853 345.468 145.232 346.122C145.343 346.316 145.455 346.509 145.574 346.702C145.678 346.881 145.782 347.059 145.893 347.237C145.968 347.356 146.042 347.483 146.116 347.602C146.235 347.802 146.354 347.996 146.48 348.196C146.755 348.635 147.038 349.073 147.313 349.512H147.32C147.447 349.713 147.581 349.913 147.714 350.107V350.114C148.108 350.709 148.517 351.303 148.926 351.891C148.927 351.891 148.928 351.891 148.929 351.891C148.93 351.891 148.931 351.892 148.931 351.893C148.932 351.893 148.933 351.894 148.933 351.895C148.933 351.896 148.933 351.897 148.933 351.898C149.261 352.374 149.602 352.835 149.937 353.295V353.303C150.16 353.593 150.376 353.89 150.599 354.18C150.777 354.418 150.963 354.663 151.149 354.901C151.186 354.953 151.23 354.998 151.268 355.05V355.057C151.32 355.124 151.372 355.184 151.424 355.25C152.212 356.261 153.024 357.25 153.862 358.216L153.996 358.372C154.04 358.425 154.092 358.477 154.137 358.536C154.211 358.618 154.278 358.7 154.352 358.781C154.419 358.863 154.494 358.945 154.568 359.027C158.934 363.944 163.884 368.31 169.308 372.028C170.029 372.526 170.765 373.009 171.501 373.477C171.687 373.596 171.873 373.715 172.059 373.826C172.111 373.864 172.17 373.901 172.222 373.938C172.326 373.997 172.423 374.057 172.527 374.124C172.624 374.183 172.72 374.243 172.824 374.302C173.218 374.548 173.62 374.785 174.021 375.023C174.118 375.083 174.222 375.142 174.326 375.202C174.423 375.254 174.527 375.313 174.631 375.373C174.631 375.38 174.631 375.38 174.638 375.38H174.646V375.388H174.653C175.151 375.677 175.656 375.96 176.169 376.235C176.444 376.384 176.727 376.54 177.009 376.681C177.649 377.03 178.295 377.365 178.942 377.684C179.172 377.796 179.41 377.907 179.641 378.026C179.834 378.116 180.027 378.212 180.221 378.301C180.28 378.331 180.332 378.353 180.384 378.383C180.548 378.457 180.704 378.532 180.867 378.606C181.046 378.688 181.224 378.77 181.395 378.851C181.596 378.941 181.789 379.03 181.99 379.112C182.733 379.446 183.484 379.766 184.235 380.071C186.925 381.173 189.675 382.126 192.471 382.925C192.597 382.962 192.731 382.999 192.865 383.036C194.062 383.371 195.266 383.676 196.477 383.951C198.596 384.441 200.734 384.843 202.892 385.155H202.907C203.167 385.192 203.42 385.229 203.68 385.266C203.703 385.266 203.725 385.274 203.755 385.274C203.755 385.281 203.755 385.281 203.762 385.274C204.045 385.311 204.334 385.348 204.617 385.385C204.636 385.391 204.656 385.394 204.676 385.393C204.944 385.43 205.219 385.46 205.487 385.489C205.777 385.519 206.066 385.549 206.356 385.579C206.579 385.601 206.802 385.623 207.025 385.646C207.044 385.652 207.065 385.655 207.085 385.653C207.286 385.668 207.486 385.69 207.687 385.705H207.717C207.888 385.72 208.066 385.735 208.237 385.75C210.311 385.913 212.392 385.988 214.503 385.988C216.785 385.988 219.053 385.898 221.29 385.705H221.312C221.795 385.66 222.271 385.616 222.747 385.571C222.873 385.556 222.992 385.549 223.119 385.534C223.141 385.534 223.171 385.527 223.193 385.527C223.23 385.519 223.267 385.519 223.312 385.512C223.332 385.513 223.352 385.51 223.371 385.504C223.535 385.489 223.698 385.467 223.869 385.452L224.427 385.385C224.613 385.363 224.799 385.333 224.984 385.311C225.029 385.304 225.066 385.304 225.111 385.296C225.245 385.281 225.378 385.259 225.512 385.237C225.579 385.229 225.646 385.222 225.705 385.214C225.839 385.192 225.966 385.177 226.099 385.155H226.107C230.186 384.568 234.212 383.661 238.149 382.442C238.357 382.375 238.565 382.315 238.773 382.249C238.781 382.249 238.788 382.241 238.796 382.241C238.855 382.219 238.922 382.204 238.981 382.182C239.539 382.003 240.089 381.817 240.639 381.624C241.397 381.371 242.148 381.096 242.899 380.814C243.1 380.732 243.3 380.658 243.501 380.576C243.91 380.42 244.311 380.256 244.713 380.093C245.396 379.818 246.08 379.528 246.757 379.231C247.389 378.948 248.013 378.666 248.637 378.368C248.652 378.361 248.675 378.361 248.689 378.346C248.831 378.279 248.972 378.212 249.106 378.145H249.113C252.536 376.502 255.838 374.617 258.992 372.503C260.003 371.827 260.999 371.128 261.98 370.407C262.768 369.82 263.541 369.225 264.314 368.616C268.128 365.582 271.659 362.208 274.862 358.536V358.529C275.093 358.276 275.308 358.016 275.531 357.756C275.569 357.718 275.598 357.681 275.628 357.651C275.769 357.481 275.903 357.317 276.044 357.153V357.146C276.23 356.93 276.416 356.707 276.594 356.484C276.639 356.432 276.676 356.388 276.713 356.343V356.336C276.862 356.157 277.003 355.979 277.152 355.793C277.226 355.704 277.293 355.615 277.367 355.526V355.518C277.806 354.968 278.23 354.418 278.653 353.853C278.765 353.704 278.876 353.548 278.995 353.392C279.531 352.671 280.051 351.935 280.556 351.199V351.192C280.75 350.917 280.935 350.634 281.129 350.359C281.315 350.077 281.5 349.794 281.686 349.512C281.872 349.215 282.065 348.925 282.251 348.627L282.273 348.583C282.459 348.3 282.645 348.003 282.824 347.713C282.965 347.475 283.106 347.245 283.247 347.014C283.336 346.858 283.433 346.702 283.522 346.539C283.557 346.488 283.589 346.436 283.619 346.383C283.827 346.018 284.035 345.654 284.243 345.29C284.489 344.866 284.726 344.435 284.964 344.004C285.054 343.826 285.15 343.647 285.247 343.469C285.284 343.409 285.314 343.35 285.343 343.29C285.455 343.082 285.566 342.867 285.67 342.651C285.782 342.443 285.893 342.227 286.005 342.012C286.109 341.804 286.221 341.588 286.325 341.372C286.406 341.209 286.481 341.045 286.562 340.882C286.568 340.869 286.576 340.856 286.585 340.845C286.622 340.763 286.659 340.689 286.689 340.614C286.698 340.603 286.705 340.59 286.711 340.577C286.793 340.414 286.867 340.243 286.949 340.079C287.053 339.863 287.15 339.64 287.254 339.425C287.321 339.276 287.395 339.12 287.462 338.964C287.559 338.748 287.663 338.533 287.752 338.31C287.856 338.087 287.953 337.864 288.049 337.633C288.077 337.578 288.102 337.521 288.124 337.463C288.176 337.358 288.213 337.254 288.257 337.15C288.376 336.875 288.495 336.593 288.607 336.318C288.74 336.006 288.867 335.686 288.986 335.374C289.105 335.084 289.216 334.787 289.328 334.489L289.372 334.385C291.104 329.823 292.418 325.113 293.297 320.314V320.306C293.793 317.566 294.148 314.802 294.36 312.025C294.368 311.869 294.382 311.721 294.39 311.572C294.524 309.691 294.583 307.803 294.583 305.908C294.583 305.068 294.568 304.235 294.546 303.403C294.027 285.991 287.818 269.229 276.869 255.681C276.632 255.383 276.394 255.086 276.148 254.788C275.903 254.491 275.65 254.201 275.405 253.911C267.256 244.369 256.979 236.874 245.403 232.032C233.826 227.189 221.273 225.135 208.757 226.034C196.241 226.933 184.111 230.76 173.345 237.208C162.579 243.655 153.479 252.541 146.778 263.151C146.414 263.731 146.049 264.318 145.7 264.905C145.343 265.5 145.001 266.095 144.659 266.697C137.925 278.667 134.397 292.173 134.416 305.908Z" fill="#FFF3E5"/>
<path d="M211.319 253.527C224.488 256.906 237.983 258.854 251.57 259.337C253.624 259.449 255.684 259.435 257.737 259.295C262.248 258.915 266.112 257.498 270.416 256.723C272.485 256.351 274.789 256.08 276.872 255.678C276.391 255.081 275.901 254.491 275.403 253.909C270.911 254.288 266.35 255.53 261.805 256.108C254.078 257.09 245.421 255.994 239.564 253.29C236.722 251.978 234.545 250.34 231.713 249.022C231.328 248.824 230.911 248.696 230.481 248.645C229.665 248.62 228.858 248.829 228.156 249.248C223.405 251.646 216.508 253.595 210.105 252.523C209.628 252.896 210.535 253.322 211.319 253.527Z" fill="white"/>
<path d="M182.986 261.968C182.928 261.957 182.869 261.949 182.811 261.939C183.057 261.786 183.288 261.612 183.502 261.417L182.986 261.968Z" fill="white"/>
<path d="M144.658 266.7C147.332 266.914 150.02 267.073 152.722 267.177C154.777 267.288 156.836 267.274 158.889 267.135C163.4 266.754 167.265 265.338 171.568 264.563C175.513 263.854 180.305 263.513 182.81 261.939C176.337 260.819 169.631 263.099 162.957 263.948C157.559 264.612 152.086 264.342 146.779 263.149C146.04 264.311 145.333 265.495 144.658 266.7Z" fill="white"/>
<path d="M177.008 376.681C177.647 377.03 178.294 377.365 178.94 377.684C179.171 377.796 179.409 377.907 179.639 378.026C179.833 378.116 180.026 378.212 180.219 378.301C180.279 378.331 180.331 378.353 180.383 378.383C180.546 378.457 180.702 378.532 180.866 378.606C181.044 378.688 181.223 378.77 181.394 378.851C181.594 378.941 181.787 379.03 181.988 379.112C182.732 379.446 183.482 379.766 184.233 380.071C186.924 381.173 189.673 382.126 192.469 382.925C192.596 382.962 192.729 382.999 192.863 383.036C194.06 383.371 195.264 383.676 196.476 383.951C198.594 384.441 200.733 384.843 202.891 385.155H202.906C203.166 385.192 203.419 385.229 203.679 385.266C203.701 385.266 203.723 385.274 203.753 385.274C203.753 385.281 203.753 385.281 203.761 385.274C204.043 385.311 204.333 385.348 204.615 385.385C204.635 385.391 204.655 385.394 204.675 385.393C204.942 385.43 205.218 385.46 205.485 385.489C205.775 385.519 206.065 385.549 206.355 385.579C206.578 385.601 206.801 385.623 207.024 385.646C207.043 385.652 207.063 385.655 207.083 385.653C207.284 385.668 207.485 385.69 207.685 385.705H207.715C207.886 385.72 208.065 385.735 208.235 385.75C210.309 385.913 212.391 385.988 214.502 385.988C216.784 385.988 219.051 385.898 221.288 385.705H221.311C221.794 385.66 222.27 385.616 222.745 385.571C222.872 385.556 222.991 385.549 223.117 385.534C223.139 385.534 223.169 385.527 223.191 385.527C223.229 385.519 223.266 385.519 223.31 385.512C223.33 385.513 223.351 385.51 223.37 385.504C223.533 385.489 223.697 385.467 223.868 385.452L224.425 385.385C224.611 385.363 224.797 385.333 224.983 385.311C225.027 385.304 225.065 385.304 225.109 385.296C225.243 385.281 225.377 385.259 225.511 385.237C225.578 385.229 225.644 385.222 225.704 385.214C225.838 385.192 225.964 385.177 226.098 385.155H226.105C230.184 384.568 234.211 383.661 238.147 382.442C238.356 382.375 238.564 382.315 238.772 382.249C237.812 377.772 235.836 373.577 232.997 369.986C230.157 366.395 226.53 363.505 222.396 361.539C223.419 360.565 224.126 359.307 224.425 357.927C224.618 357.037 224.634 356.118 224.47 355.222C224.307 354.327 223.968 353.473 223.474 352.708C222.509 351.227 220.996 350.19 219.267 349.824L208.25 347.52C206.477 347.174 204.639 347.542 203.135 348.545C201.632 349.547 200.585 351.102 200.222 352.872C200.11 353.414 200.06 353.968 200.074 354.522C189.466 361.584 181.832 368.906 177.008 376.681Z" fill="#89D6FB"/>
<path d="M209.537 343.169C222.212 343.169 232.488 332.893 232.488 320.218C232.488 307.542 222.212 297.267 209.537 297.267C196.861 297.267 186.586 307.542 186.586 320.218C186.586 332.893 196.861 343.169 209.537 343.169Z" fill="#FFB8B8"/>
<path d="M195.23 340.005C192.783 338.333 190.284 335.121 188.615 332.713C186.404 329.548 184.883 325.954 184.15 322.163C183.417 318.373 183.488 314.47 184.36 310.709C184.638 309.205 185.321 307.806 186.335 306.662C187.416 305.592 189.182 305.085 190.501 305.841C190.141 304.877 189.983 303.849 190.035 302.822C190.088 301.794 190.351 300.788 190.807 299.865C191.734 298.023 193.078 296.423 194.731 295.191C197.894 292.756 201.656 291.223 205.619 290.753C209.583 290.284 213.599 290.897 217.242 292.526C218.676 293.19 216.321 288.06 217.822 288.554C219.312 289.132 220.97 289.103 222.439 288.473C223.85 287.763 228.528 291.984 227.987 290.499C229.058 290.986 229.989 291.735 230.692 292.678C231.396 293.621 231.849 294.726 232.01 295.891C232.171 297.056 232.035 298.243 231.614 299.342C231.193 300.44 230.5 301.414 229.601 302.172C228.417 303.172 226.938 303.748 225.641 304.597C223.369 306.196 221.76 308.571 221.12 311.274C220.479 313.978 220.85 316.822 222.163 319.271C220.799 318.394 219.301 317.743 217.729 317.344C216.941 317.152 216.117 317.15 215.328 317.34C214.539 317.53 213.806 317.905 213.191 318.435C212.678 319.023 212.29 319.71 212.051 320.454C211.812 321.197 211.728 321.981 211.804 322.759C211.855 324.316 212.226 325.851 212.267 327.408C212.389 331.979 214.837 340.669 211.293 343.099C208.496 345.016 198.572 342.288 195.23 340.005Z" fill="#2F2E41"/>
<path d="M225.318 205.342C224.834 205.341 224.356 205.244 223.91 205.057C223.245 204.79 222.675 204.328 222.277 203.732C221.879 203.136 221.669 202.433 221.677 201.716V198.083C221.676 197.321 221.373 196.591 220.834 196.052C220.296 195.513 219.565 195.21 218.803 195.209C217.844 195.208 216.924 194.826 216.246 194.148C215.568 193.47 215.187 192.55 215.186 191.591V141.821C215.187 140.862 215.568 139.942 216.246 139.264C216.924 138.586 217.844 138.205 218.803 138.203H383.695C384.654 138.204 385.574 138.586 386.252 139.264C386.93 139.942 387.311 140.862 387.312 141.821V191.591C387.311 192.55 386.93 193.47 386.252 194.148C385.574 194.826 384.654 195.208 383.695 195.209H238.108C237.731 195.208 237.357 195.282 237.008 195.426C236.659 195.571 236.342 195.783 236.076 196.051L227.853 204.273C227.522 204.61 227.128 204.878 226.692 205.062C226.257 205.245 225.79 205.34 225.318 205.342Z" fill="white"/>
<path d="M225.317 206.085C224.736 206.084 224.16 205.969 223.624 205.744C222.822 205.422 222.136 204.865 221.656 204.146C221.176 203.427 220.924 202.58 220.933 201.716V198.083C220.932 197.518 220.708 196.977 220.308 196.577C219.909 196.178 219.367 195.953 218.802 195.952C217.646 195.951 216.538 195.491 215.72 194.673C214.903 193.856 214.443 192.747 214.441 191.591V141.821C214.443 140.665 214.902 139.556 215.72 138.739C216.537 137.921 217.646 137.461 218.802 137.46H383.694C384.85 137.461 385.959 137.921 386.776 138.739C387.594 139.556 388.054 140.665 388.055 141.821V191.591C388.054 192.747 387.594 193.856 386.776 194.673C385.959 195.491 384.85 195.951 383.694 195.952H238.107C237.827 195.951 237.55 196.006 237.291 196.113C237.033 196.22 236.798 196.378 236.6 196.576L228.378 204.799C227.978 205.205 227.501 205.528 226.976 205.749C226.451 205.97 225.887 206.084 225.317 206.085ZM218.802 138.947C218.04 138.948 217.309 139.251 216.771 139.79C216.232 140.328 215.929 141.059 215.928 141.821V191.591C215.929 192.353 216.232 193.084 216.771 193.623C217.31 194.162 218.04 194.465 218.802 194.465C219.761 194.467 220.681 194.848 221.359 195.527C222.037 196.205 222.419 197.124 222.42 198.083V201.716C222.42 202.284 222.588 202.84 222.904 203.312C223.22 203.785 223.669 204.153 224.194 204.371C224.719 204.588 225.297 204.645 225.855 204.534C226.412 204.423 226.924 204.15 227.326 203.748L235.549 195.525C235.884 195.188 236.283 194.921 236.722 194.739C237.161 194.557 237.632 194.464 238.107 194.465H383.694C384.456 194.465 385.187 194.162 385.726 193.623C386.265 193.084 386.568 192.353 386.568 191.591V141.821C386.568 141.059 386.264 140.328 385.726 139.789C385.187 139.251 384.456 138.948 383.694 138.947L218.802 138.947Z" fill="#3F3D56"/>
<path d="M369.523 160.736H235.813C235.302 160.736 234.812 160.533 234.451 160.172C234.09 159.811 233.887 159.321 233.887 158.81C233.887 158.299 234.09 157.809 234.451 157.448C234.812 157.087 235.302 156.884 235.813 156.884H369.523C370.034 156.884 370.524 157.087 370.885 157.448C371.246 157.809 371.449 158.299 371.449 158.81C371.449 159.321 371.246 159.811 370.885 160.172C370.524 160.533 370.034 160.736 369.523 160.736Z" fill="#02A4F0"/>
<path d="M369.277 168.918H235.813C235.302 168.918 234.812 168.715 234.451 168.354C234.09 167.992 233.887 167.503 233.887 166.992C233.887 166.481 234.09 165.991 234.451 165.63C234.812 165.269 235.302 165.066 235.813 165.066H369.277C369.788 165.066 370.278 165.269 370.639 165.63C371 165.991 371.203 166.481 371.203 166.992C371.203 167.503 371 167.992 370.639 168.354C370.278 168.715 369.788 168.918 369.277 168.918Z" fill="#C2C2C2"/>
<path d="M369.144 177.099H235.813C235.302 177.099 234.812 176.896 234.451 176.535C234.09 176.174 233.887 175.684 233.887 175.173C233.887 174.662 234.09 174.173 234.451 173.811C234.812 173.45 235.302 173.247 235.813 173.247H369.144C369.655 173.247 370.145 173.45 370.506 173.811C370.867 174.173 371.07 174.662 371.07 175.173C371.07 175.684 370.867 176.174 370.506 176.535C370.145 176.896 369.655 177.099 369.144 177.099Z" fill="#C2C2C2"/>
<path d="M580.091 130.48C580.091 132.286 580.031 134.093 579.905 135.884C579.771 138.025 579.541 140.151 579.229 142.262C578.179 149.37 576.174 156.304 573.267 162.875C573.118 163.202 572.97 163.529 572.821 163.856L572.598 164.347C572.524 164.51 572.442 164.674 572.368 164.83C572.264 165.045 572.167 165.253 572.063 165.462C571.936 165.722 571.81 165.982 571.676 166.242C571.661 166.272 571.647 166.309 571.624 166.346C571.513 166.569 571.409 166.785 571.29 167.008C571.268 167.056 571.243 167.103 571.215 167.149C571.089 167.402 570.955 167.662 570.821 167.915C570.673 168.182 570.532 168.457 570.383 168.725C570.026 169.386 569.654 170.041 569.275 170.695C569.164 170.888 569.052 171.081 568.933 171.274C568.829 171.453 568.725 171.631 568.614 171.81C568.539 171.929 568.465 172.055 568.391 172.174C568.272 172.375 568.153 172.568 568.026 172.769C567.751 173.207 567.469 173.646 567.194 174.084H567.186C567.06 174.285 566.926 174.486 566.793 174.679V174.686C566.399 175.281 565.99 175.876 565.581 176.463C565.58 176.463 565.579 176.463 565.578 176.463C565.577 176.464 565.576 176.464 565.576 176.465C565.575 176.466 565.574 176.467 565.574 176.467C565.574 176.468 565.573 176.469 565.573 176.47C565.246 176.946 564.904 177.407 564.57 177.868V177.875C564.347 178.165 564.131 178.463 563.908 178.752C563.73 178.99 563.544 179.236 563.358 179.473C563.321 179.525 563.277 179.57 563.239 179.622V179.63C563.187 179.696 563.135 179.756 563.083 179.823C562.295 180.834 561.483 181.822 560.645 182.789L560.511 182.945C560.467 182.997 560.415 183.049 560.37 183.108C560.296 183.19 560.229 183.272 560.154 183.354C560.088 183.435 560.013 183.517 559.939 183.599C555.573 188.517 550.623 192.883 545.199 196.6C544.478 197.098 543.742 197.581 543.006 198.049C542.82 198.168 542.634 198.287 542.448 198.399C542.396 198.436 542.337 198.473 542.285 198.51C542.181 198.57 542.084 198.629 541.98 198.696C541.883 198.756 541.787 198.815 541.683 198.875C541.289 199.12 540.887 199.358 540.486 199.596C540.389 199.655 540.285 199.715 540.181 199.774C540.084 199.826 539.98 199.886 539.876 199.945C539.876 199.952 539.876 199.952 539.869 199.952H539.861V199.96H539.854C539.356 200.25 538.85 200.532 538.338 200.807C538.063 200.956 537.78 201.112 537.498 201.253C536.858 201.603 536.212 201.937 535.565 202.257C535.334 202.368 535.097 202.48 534.866 202.599C534.673 202.688 534.48 202.785 534.286 202.874C534.227 202.903 534.175 202.926 534.123 202.955C533.959 203.03 533.803 203.104 533.64 203.178C533.461 203.26 533.283 203.342 533.112 203.424C532.911 203.513 532.718 203.602 532.517 203.684C531.774 204.018 531.023 204.338 530.272 204.643C527.582 205.746 524.832 206.699 522.036 207.497C521.91 207.534 521.776 207.572 521.642 207.609C520.445 207.943 519.241 208.248 518.03 208.523C515.911 209.014 513.773 209.415 511.615 209.727H511.6C511.34 209.764 511.087 209.802 510.827 209.839C510.804 209.839 510.782 209.846 510.752 209.846C510.752 209.854 510.752 209.854 510.745 209.846C510.462 209.883 510.172 209.921 509.89 209.958C509.871 209.963 509.851 209.966 509.831 209.965C509.563 210.002 509.288 210.032 509.02 210.062C508.73 210.092 508.441 210.121 508.151 210.151C507.928 210.173 507.705 210.196 507.482 210.218C507.462 210.225 507.442 210.227 507.422 210.225C507.221 210.24 507.021 210.263 506.82 210.277H506.79C506.619 210.292 506.441 210.307 506.27 210.322C504.196 210.486 502.115 210.56 500.004 210.56C497.722 210.56 495.454 210.471 493.217 210.277H493.195C492.711 210.233 492.236 210.188 491.76 210.144C491.634 210.129 491.515 210.121 491.388 210.106C491.366 210.106 491.336 210.099 491.314 210.099C491.277 210.092 491.24 210.092 491.195 210.084C491.175 210.085 491.155 210.082 491.136 210.077C490.972 210.062 490.809 210.039 490.638 210.025L490.08 209.958C489.894 209.935 489.708 209.906 489.523 209.883C489.478 209.876 489.441 209.876 489.396 209.869C489.262 209.854 489.129 209.831 488.995 209.809C488.928 209.802 488.861 209.794 488.801 209.787C488.668 209.764 488.541 209.75 488.408 209.727H488.4C484.321 209.14 480.295 208.233 476.358 207.014C476.15 206.947 475.942 206.888 475.734 206.821C475.726 206.821 475.719 206.813 475.711 206.813C475.652 206.791 475.585 206.776 475.525 206.754C474.968 206.576 474.418 206.39 473.868 206.196C473.11 205.944 472.359 205.669 471.608 205.386C471.407 205.304 471.207 205.23 471.006 205.148C470.597 204.992 470.196 204.829 469.794 204.665C469.111 204.39 468.427 204.1 467.75 203.803C467.118 203.52 466.494 203.238 465.87 202.941C465.855 202.933 465.832 202.933 465.817 202.918C465.676 202.851 465.535 202.785 465.401 202.718H465.394C461.971 201.075 458.669 199.189 455.515 197.076C454.504 196.399 453.508 195.701 452.527 194.98C451.739 194.392 450.966 193.798 450.193 193.188C446.379 190.154 442.848 186.781 439.645 183.108V183.101C439.414 182.848 439.199 182.588 438.976 182.328C438.938 182.291 438.909 182.254 438.879 182.224C438.738 182.053 438.604 181.889 438.463 181.726V181.718C438.277 181.503 438.091 181.28 437.913 181.057C437.868 181.005 437.831 180.96 437.794 180.916V180.908C437.645 180.73 437.504 180.551 437.355 180.366C437.281 180.276 437.214 180.187 437.14 180.098V180.09C436.701 179.54 436.277 178.99 435.854 178.425C435.742 178.277 435.631 178.121 435.512 177.965C434.976 177.243 434.456 176.508 433.951 175.772V175.764C433.757 175.489 433.571 175.207 433.378 174.932C433.192 174.649 433.007 174.367 432.821 174.084C432.635 173.787 432.442 173.497 432.256 173.2L432.233 173.155C432.048 172.873 431.862 172.575 431.683 172.285C431.542 172.048 431.401 171.817 431.26 171.587C431.171 171.431 431.074 171.274 430.985 171.111C430.95 171.061 430.918 171.009 430.888 170.955C430.68 170.591 430.472 170.226 430.264 169.862C430.018 169.439 429.78 169.007 429.543 168.576C429.453 168.398 429.357 168.219 429.26 168.041C429.223 167.982 429.193 167.922 429.164 167.863C429.052 167.654 428.941 167.439 428.836 167.223C428.725 167.015 428.613 166.8 428.502 166.584C428.398 166.376 428.286 166.16 428.182 165.945C428.101 165.781 428.026 165.618 427.944 165.454C427.939 165.441 427.931 165.428 427.922 165.417C427.885 165.335 427.848 165.261 427.818 165.187C427.809 165.175 427.802 165.163 427.796 165.149C427.714 164.986 427.64 164.815 427.558 164.651C427.454 164.436 427.357 164.213 427.253 163.997C427.186 163.849 427.112 163.692 427.045 163.536C426.948 163.321 426.844 163.105 426.755 162.882C426.651 162.659 426.554 162.436 426.458 162.206C426.43 162.15 426.405 162.093 426.383 162.035C426.331 161.931 426.294 161.827 426.25 161.723C426.131 161.448 426.012 161.165 425.9 160.89C425.766 160.578 425.64 160.258 425.521 159.946C425.402 159.656 425.291 159.359 425.179 159.061L425.135 158.957C423.403 154.396 422.089 149.686 421.21 144.886V144.879C420.714 142.138 420.359 139.374 420.147 136.598C420.139 136.442 420.125 136.293 420.117 136.144C419.983 134.264 419.924 132.376 419.924 130.48C419.924 129.64 419.939 128.808 419.961 127.975C420.48 110.563 426.689 93.8012 437.638 80.2528C437.875 79.9555 438.113 79.6581 438.359 79.3608C438.604 79.0635 438.857 78.7736 439.102 78.4837C447.251 68.9408 457.528 61.4461 469.104 56.6039C480.681 51.7616 493.234 49.7072 505.75 50.6063C518.266 51.5053 530.396 55.3328 541.162 61.78C551.928 68.2272 561.028 77.1138 567.729 87.7233C568.093 88.3031 568.458 88.8904 568.807 89.4777C569.164 90.0723 569.506 90.667 569.848 91.2691C576.582 103.239 580.11 116.746 580.091 130.48Z" fill="#E6E6E6"/>
<path d="M503.186 78.0998C490.017 81.4788 476.522 83.4266 462.935 83.9092C460.881 84.0211 458.821 84.0071 456.768 83.8672C452.257 83.4878 448.393 82.0699 444.089 81.2951C442.02 80.9236 439.716 80.652 437.633 80.2506C438.114 79.6535 438.604 79.0637 439.103 78.4812C443.594 78.8607 448.155 80.1028 452.701 80.68C460.427 81.6625 469.084 80.5661 474.942 77.8621C477.783 76.5501 479.96 74.9125 482.792 73.5944C483.177 73.3967 483.594 73.2689 484.024 73.217C484.841 73.1925 485.647 73.4017 486.349 73.8201C491.1 76.2186 497.997 78.1677 504.4 77.0953C504.877 77.4687 503.971 77.8941 503.186 78.0998Z" fill="white"/>
<path d="M531.516 86.5403C531.575 86.5296 531.633 86.5213 531.692 86.5112C531.446 86.3587 531.214 86.1843 531 85.9899L531.516 86.5403Z" fill="white"/>
<path d="M569.847 91.2723C567.173 91.486 564.485 91.6451 561.783 91.7496C559.728 91.8605 557.669 91.8465 555.616 91.7077C551.105 91.3262 547.24 89.9103 542.937 89.1355C538.993 88.4265 534.2 88.085 531.695 86.5114C538.168 85.391 544.874 87.6716 551.548 88.5204C556.947 89.1842 562.419 88.914 567.726 87.7216C568.465 88.8838 569.172 90.0674 569.847 91.2723Z" fill="white"/>
<path d="M490.975 165.522C504.259 165.522 515.028 154.513 515.028 140.933C515.028 127.352 504.259 116.343 490.975 116.343C477.691 116.343 466.922 127.352 466.922 140.933C466.922 154.513 477.691 165.522 490.975 165.522Z" fill="#FFB6B6"/>
<path d="M537.496 201.253C536.857 201.603 536.21 201.937 535.564 202.257C535.333 202.368 535.095 202.48 534.865 202.599C534.672 202.688 534.478 202.784 534.285 202.874C534.226 202.903 534.174 202.926 534.122 202.955C533.958 203.03 533.802 203.104 533.638 203.178C533.46 203.26 533.282 203.342 533.111 203.424C532.91 203.513 532.717 203.602 532.516 203.684C531.773 204.018 531.022 204.338 530.271 204.643C527.581 205.746 524.831 206.699 522.035 207.497C521.909 207.534 521.775 207.572 521.641 207.609C520.444 207.943 519.24 208.248 518.028 208.523C515.91 209.014 513.772 209.415 511.613 209.727H511.598C511.338 209.764 511.086 209.802 510.825 209.839C510.803 209.839 510.781 209.846 510.751 209.846C510.751 209.854 510.751 209.854 510.744 209.846C510.461 209.883 510.171 209.92 509.889 209.958C509.87 209.963 509.849 209.966 509.829 209.965C509.562 210.002 509.287 210.032 509.019 210.062C508.729 210.091 508.439 210.121 508.149 210.151C507.926 210.173 507.703 210.195 507.48 210.218C507.461 210.224 507.441 210.227 507.421 210.225C507.22 210.24 507.02 210.262 506.819 210.277H506.789C506.618 210.292 506.44 210.307 506.269 210.322C504.195 210.485 502.113 210.56 500.002 210.56C497.72 210.56 495.453 210.471 493.216 210.277H493.193C492.71 210.233 492.235 210.188 491.759 210.143C491.632 210.129 491.513 210.121 491.387 210.106C491.365 210.106 491.335 210.099 491.313 210.099C491.276 210.091 491.238 210.091 491.194 210.084C491.174 210.085 491.154 210.082 491.134 210.077C490.971 210.062 490.807 210.039 490.636 210.025L490.079 209.958C489.893 209.935 489.707 209.906 489.521 209.883C489.477 209.876 489.44 209.876 489.395 209.868C489.261 209.854 489.127 209.831 488.994 209.809C488.927 209.802 488.86 209.794 488.8 209.787C488.667 209.764 488.54 209.75 488.406 209.727H488.399C484.32 209.14 480.293 208.233 476.357 207.014C476.149 206.947 475.941 206.888 475.732 206.821C476.692 202.345 478.668 198.149 481.508 194.558C484.347 190.967 487.974 188.077 492.108 186.111C491.086 185.137 490.379 183.879 490.079 182.499C489.886 181.609 489.871 180.69 490.034 179.795C490.197 178.899 490.536 178.045 491.03 177.281C491.995 175.799 493.508 174.762 495.238 174.396L506.254 172.092C508.027 171.746 509.865 172.115 511.369 173.117C512.872 174.119 513.919 175.674 514.282 177.444C514.394 177.987 514.444 178.54 514.431 179.094C525.038 186.156 532.672 193.478 537.496 201.253Z" fill="#6C63FF"/>
<path d="M555.338 130.268C551.249 125.5 549.305 119.175 546.037 113.76C542.768 108.346 537.08 103.5 531.072 104.76C526.929 105.629 523.728 109.284 522.108 113.359C520.487 117.434 520.184 121.928 519.9 126.33C520 117.283 514.039 108.512 505.828 105.626C497.618 102.739 487.792 105.959 482.633 113.227C480.381 111.14 477.442 109.952 474.373 109.888C471.304 109.823 468.318 110.887 465.981 112.878C461.366 117.002 460.345 124.853 463.738 130.114C467.132 135.375 474.482 137.335 479.876 134.417L481.783 136.171C480.709 139.925 482.791 144.359 486.29 145.772C489.127 146.918 493.132 146.728 494.194 149.705C494.936 151.785 493.549 154.006 492.074 155.605C490.599 157.203 488.848 158.854 488.671 161.066C488.403 164.404 491.853 166.743 494.988 167.447C502.549 169.145 510.938 165.644 515.296 158.971C515.38 158.843 515.471 158.714 515.57 158.585C518.015 155.458 519.797 151.866 520.806 148.027C521.816 144.189 522.033 140.185 521.443 136.26C521.198 134.718 521.445 133.57 522.508 133.205C527.104 131.627 539.98 134.94 543.876 137.934C547.773 140.929 550.894 144.892 554.647 148.079C558.401 151.267 563.184 153.726 567.95 152.858C571.767 152.162 575.014 149.391 577.199 146.049C579.383 142.706 580.64 138.81 581.766 134.938C573.325 139.814 561.773 137.773 555.338 130.268Z" fill="#2F2E41"/>
<path d="M61.5684 80.6764C61.5684 82.4827 61.6279 84.289 61.7543 86.0804C61.8881 88.2213 62.1185 90.3472 62.4307 92.4583C63.4799 99.5665 65.4853 106.5 68.3923 113.071C68.5409 113.398 68.6896 113.725 68.8383 114.052L69.0613 114.543C69.1356 114.706 69.2174 114.87 69.2917 115.026C69.3958 115.242 69.4924 115.45 69.5965 115.658C69.7228 115.918 69.8492 116.178 69.983 116.438C69.9979 116.468 70.0127 116.505 70.035 116.542C70.1465 116.765 70.2506 116.981 70.3696 117.204C70.3914 117.253 70.4162 117.3 70.4439 117.345C70.5703 117.598 70.7041 117.858 70.8379 118.111C70.9865 118.379 71.1278 118.653 71.2764 118.921C71.6332 119.583 72.0049 120.237 72.384 120.891C72.4955 121.084 72.607 121.277 72.7259 121.471C72.83 121.649 72.9341 121.828 73.0456 122.006C73.1199 122.125 73.1942 122.251 73.2686 122.37C73.3875 122.571 73.5064 122.764 73.6328 122.965C73.9078 123.403 74.1903 123.842 74.4653 124.281H74.4728C74.5991 124.481 74.7329 124.682 74.8667 124.875V124.883C75.2607 125.477 75.6695 126.072 76.0784 126.659C76.0794 126.659 76.0803 126.659 76.0812 126.66C76.0822 126.66 76.083 126.661 76.0837 126.661C76.0844 126.662 76.0849 126.663 76.0853 126.664C76.0857 126.665 76.0858 126.666 76.0858 126.667C76.4129 127.142 76.7548 127.603 77.0893 128.064V128.072C77.3123 128.361 77.5279 128.659 77.7509 128.949C77.9293 129.187 78.1151 129.432 78.301 129.67C78.3381 129.722 78.3827 129.766 78.4199 129.818V129.826C78.4719 129.893 78.524 129.952 78.576 130.019C79.3639 131.03 80.1767 132.019 81.0142 132.985L81.148 133.141C81.1926 133.193 81.2446 133.245 81.2892 133.305C81.3635 133.386 81.4304 133.468 81.5047 133.55C81.5716 133.632 81.646 133.713 81.7203 133.795C86.086 138.713 91.0361 143.079 96.4607 146.796C97.1818 147.294 97.9176 147.777 98.6535 148.246C98.8394 148.365 99.0252 148.484 99.2111 148.595C99.2631 148.632 99.3226 148.669 99.3746 148.707C99.4787 148.766 99.5753 148.826 99.6794 148.892C99.776 148.952 99.8726 149.011 99.9767 149.071C100.371 149.316 100.772 149.554 101.173 149.792C101.27 149.851 101.374 149.911 101.478 149.97C101.575 150.022 101.679 150.082 101.783 150.141C101.783 150.149 101.783 150.149 101.79 150.149H101.798V150.156H101.805C102.303 150.446 102.809 150.728 103.322 151.004C103.597 151.152 103.879 151.308 104.162 151.45C104.801 151.799 105.448 152.133 106.094 152.453C106.325 152.565 106.563 152.676 106.793 152.795C106.986 152.884 107.18 152.981 107.373 153.07C107.432 153.1 107.484 153.122 107.536 153.152C107.7 153.226 107.856 153.3 108.02 153.375C108.198 153.457 108.376 153.538 108.547 153.62C108.748 153.709 108.941 153.798 109.142 153.88C109.885 154.215 110.636 154.534 111.387 154.839C114.077 155.942 116.827 156.895 119.623 157.694C119.749 157.731 119.883 157.768 120.017 157.805C121.214 158.14 122.418 158.444 123.63 158.719C125.748 159.21 127.887 159.611 130.045 159.924H130.06C130.32 159.961 130.573 159.998 130.833 160.035C130.855 160.035 130.877 160.043 130.907 160.043C130.907 160.05 130.907 160.05 130.914 160.043C131.197 160.08 131.487 160.117 131.769 160.154C131.789 160.16 131.809 160.162 131.829 160.161C132.096 160.199 132.371 160.228 132.639 160.258C132.929 160.288 133.219 160.318 133.509 160.347C133.732 160.37 133.955 160.392 134.178 160.414C134.197 160.421 134.217 160.423 134.237 160.422C134.438 160.437 134.639 160.459 134.839 160.474H134.869C135.04 160.489 135.218 160.503 135.389 160.518C137.463 160.682 139.545 160.756 141.656 160.756C143.938 160.756 146.205 160.667 148.442 160.474H148.465C148.948 160.429 149.424 160.384 149.899 160.34C150.026 160.325 150.145 160.318 150.271 160.303C150.293 160.303 150.323 160.295 150.345 160.295C150.382 160.288 150.42 160.288 150.464 160.28C150.484 160.281 150.504 160.279 150.524 160.273C150.687 160.258 150.851 160.236 151.022 160.221L151.579 160.154C151.765 160.132 151.951 160.102 152.137 160.08C152.181 160.072 152.219 160.072 152.263 160.065C152.397 160.05 152.531 160.028 152.665 160.005C152.731 159.998 152.798 159.991 152.858 159.983C152.992 159.961 153.118 159.946 153.252 159.924H153.259C157.338 159.336 161.365 158.429 165.301 157.21C165.509 157.144 165.718 157.084 165.926 157.017C165.933 157.017 165.941 157.01 165.948 157.01C166.007 156.987 166.074 156.973 166.134 156.95C166.691 156.772 167.241 156.586 167.791 156.393C168.55 156.14 169.3 155.865 170.051 155.583C170.252 155.501 170.453 155.426 170.653 155.345C171.062 155.189 171.464 155.025 171.865 154.862C172.549 154.586 173.233 154.297 173.909 153.999C174.541 153.717 175.165 153.434 175.79 153.137C175.805 153.13 175.827 153.13 175.842 153.115C175.983 153.048 176.124 152.981 176.258 152.914H176.265C179.689 151.271 182.99 149.386 186.144 147.272C187.155 146.596 188.151 145.897 189.133 145.176C189.921 144.589 190.694 143.994 191.467 143.384C195.281 140.351 198.811 136.977 202.015 133.305V133.297C202.245 133.045 202.461 132.784 202.684 132.524C202.721 132.487 202.751 132.45 202.78 132.42C202.922 132.249 203.055 132.086 203.197 131.922V131.915C203.382 131.699 203.568 131.476 203.747 131.253C203.791 131.201 203.828 131.156 203.866 131.112V131.104C204.014 130.926 204.155 130.748 204.304 130.562C204.379 130.473 204.445 130.383 204.52 130.294V130.287C204.958 129.737 205.382 129.187 205.806 128.622C205.917 128.473 206.029 128.317 206.148 128.161C206.683 127.44 207.203 126.704 207.709 125.968V125.961C207.902 125.685 208.088 125.403 208.281 125.128C208.467 124.846 208.653 124.563 208.839 124.281C209.024 123.983 209.218 123.693 209.403 123.396L209.426 123.351C209.612 123.069 209.797 122.772 209.976 122.482C210.117 122.244 210.258 122.013 210.4 121.783C210.489 121.627 210.585 121.471 210.675 121.307C210.709 121.257 210.742 121.205 210.771 121.151C210.979 120.787 211.187 120.423 211.396 120.058C211.641 119.635 211.879 119.204 212.117 118.772C212.206 118.594 212.302 118.416 212.399 118.237C212.436 118.178 212.466 118.118 212.496 118.059C212.607 117.851 212.719 117.635 212.823 117.42C212.934 117.211 213.046 116.996 213.157 116.78C213.261 116.572 213.373 116.357 213.477 116.141C213.559 115.978 213.633 115.814 213.715 115.65C213.721 115.637 213.728 115.625 213.737 115.613C213.774 115.532 213.811 115.457 213.841 115.383C213.85 115.372 213.858 115.359 213.864 115.346C213.945 115.182 214.02 115.011 214.101 114.848C214.205 114.632 214.302 114.409 214.406 114.194C214.473 114.045 214.547 113.889 214.614 113.733C214.711 113.517 214.815 113.302 214.904 113.079C215.008 112.856 215.105 112.633 215.202 112.402C215.229 112.346 215.254 112.289 215.276 112.231C215.328 112.127 215.365 112.023 215.41 111.919C215.529 111.644 215.648 111.361 215.759 111.086C215.893 110.774 216.019 110.455 216.138 110.142C216.257 109.852 216.369 109.555 216.48 109.258L216.525 109.154C218.257 104.592 219.57 99.882 220.449 95.0823V95.0749C220.945 92.3346 221.3 89.5707 221.512 86.7941C221.52 86.638 221.535 86.4893 221.542 86.3407C221.676 84.46 221.735 82.5719 221.735 80.6764C221.735 79.8364 221.721 79.0039 221.698 78.1714C221.179 60.7597 214.971 43.9974 204.022 30.4491C203.784 30.1518 203.546 29.8544 203.301 29.5571C203.055 29.2597 202.803 28.9698 202.557 28.6799C194.409 19.1371 184.132 11.6424 172.555 6.80014C160.978 1.95785 148.426 -0.0965489 135.909 0.80254C123.393 1.70163 111.263 5.52904 100.497 11.9763C89.7315 18.4235 80.6313 27.3101 73.9302 37.9196C73.5659 38.4994 73.2017 39.0867 72.8523 39.674C72.4955 40.2686 72.1536 40.8633 71.8117 41.4654C65.0775 53.4355 61.5491 66.942 61.5684 80.6764Z" fill="#DCF4FF"/>
<path d="M138.472 28.2961C151.64 31.6751 165.135 33.6229 178.722 34.1055C180.777 34.2174 182.836 34.2034 184.889 34.0635C189.4 33.6841 193.265 32.2662 197.568 31.4913C199.637 31.1199 201.942 30.8483 204.025 30.4469C203.543 29.8498 203.053 29.26 202.555 28.6775C198.064 29.057 193.502 30.2991 188.957 30.8763C181.23 31.8588 172.573 30.7624 166.716 28.0584C163.874 26.7464 161.697 25.1088 158.866 23.7907C158.48 23.593 158.063 23.4652 157.633 23.4133C156.817 23.3888 156.01 23.598 155.309 24.0164C150.558 26.4148 143.66 28.364 137.258 27.2916C136.78 27.665 137.687 28.0904 138.472 28.2961Z" fill="white"/>
<path d="M110.14 36.7366C110.082 36.7259 110.023 36.7176 109.965 36.7075C110.211 36.555 110.442 36.3805 110.657 36.1862L110.14 36.7366Z" fill="white"/>
<path d="M71.8125 41.4686C74.4865 41.6823 77.1746 41.8414 79.8766 41.9459C81.9311 42.0568 83.9906 42.0428 86.0434 41.904C90.5548 41.5225 94.419 40.1066 98.7227 39.3318C102.667 38.6228 107.46 38.2813 109.964 36.7077C103.492 35.5873 96.7855 37.8679 90.1114 38.7167C84.7128 39.3805 79.2403 39.1103 73.9334 37.9179C73.1944 39.0801 72.4875 40.2637 71.8125 41.4686Z" fill="white"/>
<path d="M104.16 151.45C104.799 151.799 105.446 152.133 106.093 152.453C106.323 152.565 106.561 152.676 106.792 152.795C106.985 152.884 107.178 152.981 107.371 153.07C107.431 153.1 107.483 153.122 107.535 153.152C107.698 153.226 107.855 153.3 108.018 153.375C108.196 153.457 108.375 153.538 108.546 153.62C108.747 153.709 108.94 153.799 109.141 153.88C109.884 154.215 110.635 154.534 111.385 154.839C114.076 155.942 116.826 156.895 119.622 157.694C119.748 157.731 119.882 157.768 120.016 157.805C121.212 158.14 122.417 158.444 123.628 158.719C125.747 159.21 127.885 159.611 130.043 159.924H130.058C130.318 159.961 130.571 159.998 130.831 160.035C130.853 160.035 130.876 160.043 130.906 160.043C130.906 160.05 130.905 160.05 130.913 160.043C131.195 160.08 131.485 160.117 131.768 160.154C131.787 160.16 131.807 160.162 131.827 160.161C132.095 160.199 132.37 160.228 132.637 160.258C132.927 160.288 133.217 160.318 133.507 160.347C133.73 160.37 133.953 160.392 134.176 160.414C134.195 160.421 134.216 160.423 134.236 160.422C134.436 160.437 134.637 160.459 134.838 160.474H134.867C135.038 160.489 135.217 160.503 135.388 160.518C137.462 160.682 139.543 160.756 141.654 160.756C143.936 160.756 146.203 160.667 148.441 160.474H148.463C148.946 160.429 149.422 160.384 149.898 160.34C150.024 160.325 150.143 160.318 150.269 160.303C150.292 160.303 150.321 160.295 150.344 160.295C150.381 160.288 150.418 160.288 150.463 160.28C150.483 160.281 150.503 160.279 150.522 160.273C150.686 160.258 150.849 160.236 151.02 160.221L151.578 160.154C151.764 160.132 151.949 160.102 152.135 160.08C152.18 160.072 152.217 160.072 152.262 160.065C152.395 160.05 152.529 160.028 152.663 160.005C152.73 159.998 152.797 159.991 152.856 159.983C152.99 159.961 153.116 159.946 153.25 159.924H153.258C157.337 159.336 161.363 158.429 165.3 157.21C165.508 157.144 165.716 157.084 165.924 157.017C164.964 152.541 162.988 148.346 160.149 144.755C157.31 141.164 153.683 138.274 149.548 136.308C150.571 135.334 151.278 134.075 151.578 132.695C151.771 131.806 151.786 130.887 151.623 129.991C151.459 129.096 151.121 128.241 150.626 127.477C149.662 125.996 148.148 124.958 146.419 124.593L135.403 122.288C133.629 121.943 131.791 122.311 130.288 123.313C128.784 124.315 127.738 125.871 127.375 127.641C127.262 128.183 127.212 128.737 127.226 129.291C116.619 136.352 108.984 143.674 104.16 151.45Z" fill="#FBDFBE"/>
<path d="M147.742 114.852C162.552 114.852 174.557 102.847 174.557 88.0377C174.557 73.2285 162.552 61.2232 147.742 61.2232C132.933 61.2232 120.928 73.2285 120.928 88.0377C120.928 102.847 132.933 114.852 147.742 114.852Z" fill="#9E616A"/>
<path d="M143.931 113.419C137.218 115.232 129.817 112.822 124.578 108.249C119.34 103.677 116.063 97.1981 114.174 90.5059C112.791 85.6047 112.136 80.1641 114.318 75.5627C116.5 70.9614 122.374 67.857 126.905 70.1813C124.11 66.9245 125.506 61.538 128.771 58.7519C132.036 55.9659 136.518 55.1671 140.788 54.7305C146.985 54.0968 153.385 54.0258 159.281 56.0333C165.178 58.0407 170.535 62.4296 172.381 68.3787C174.265 69.2563 176.388 69.4839 178.416 69.0261C180.444 68.5682 182.263 67.4506 183.588 65.8484C183.929 67.6885 183.655 69.59 182.807 71.2585C181.959 72.927 180.585 74.2696 178.897 75.0785L187.932 72.1495C189.485 75.4383 186.763 79.5086 183.281 80.5618C179.8 81.6149 176.042 80.4638 172.738 78.9422C169.434 77.4207 166.233 75.4971 162.644 74.9037C159.056 74.3103 154.84 75.4633 153.18 78.6998C152.311 80.3949 152.266 82.3802 151.761 84.2172C151.256 86.0542 149.977 87.9588 148.078 88.1091C146.878 88.2041 145.704 87.565 144.507 87.6957C143.773 87.8402 143.097 88.1958 142.561 88.7188C142.026 89.2418 141.655 89.9096 141.493 90.6403C141.195 92.1067 141.192 93.6177 141.483 95.0855L143.778 112.627L143.931 113.419Z" fill="#2F2E41"/>
</svg>
