<svg width="478" height="369" viewBox="0 0 478 369" fill="none" xmlns="http://www.w3.org/2000/svg">
<path d="M278.466 117.62C257.383 116.927 239.768 100.766 236.792 79.3784L229.32 25.7426L257.419 21.8241C259.536 21.5746 268.402 20.7654 276.36 26.923C279.524 29.3569 282.189 32.6791 284.477 37.6198C288.956 47.2943 307.915 97.4375 287.179 113.586C284.611 115.563 281.634 116.941 278.466 117.62Z" fill="black"/>
<path d="M368.542 368.221H199.694L186.053 162.561C209.854 152.144 234.777 144.506 260.328 139.798C296.835 133.105 325.749 132.826 351.883 136.075C357.444 213.623 362.975 290.672 368.542 368.221Z" fill="black"/>
<path d="M276.907 115.6L270.214 97.2307C276.804 96.9629 282.073 91.2373 282.073 84.1914C282.073 76.9689 276.554 71.1216 269.739 71.1216C266.818 71.1291 264.002 72.2121 261.829 74.1639L249.228 39.5364L197.564 56.1657C195.169 56.9351 192.95 58.1688 191.032 59.7964C189.115 61.4239 187.537 63.4134 186.389 65.6511C185.24 67.8887 184.544 70.3308 184.34 72.8376C184.136 75.3444 184.428 77.8668 185.2 80.2607L199.194 123.747C201.325 130.341 205.985 135.819 212.15 138.981C218.316 142.143 225.484 142.73 232.082 140.614L239.596 137.255L245.875 150.678C246.146 151.271 246.615 151.751 247.202 152.035C258.112 157.28 270.287 155.996 277.783 148.992C282.961 144.167 285.827 139.823 286.655 136.981C286.836 136.316 286.764 135.607 286.454 134.992L276.907 115.6Z" fill="white"/>
<path d="M239.607 137.279L262.254 126.936C262.405 126.87 262.573 126.858 262.731 126.901C262.889 126.944 263.028 127.04 263.124 127.173C263.22 127.306 263.267 127.468 263.259 127.632C263.25 127.796 263.185 127.951 263.076 128.073L244.579 147.909L239.607 137.279Z" fill="black"/>
<path d="M268.703 89.5943C267.828 89.5955 266.972 89.3371 266.244 88.8517C265.516 88.3664 264.948 87.676 264.612 86.8678C264.276 86.0596 264.188 85.17 264.358 84.3115C264.528 83.453 264.948 82.6643 265.567 82.045C266.185 81.4258 266.973 81.0039 267.832 80.8327C268.69 80.6615 269.58 80.7488 270.388 81.0834C271.197 81.418 271.888 81.985 272.375 82.7126C272.861 83.4401 273.12 84.2956 273.12 85.1708C273.12 86.3429 272.655 87.4671 271.827 88.2965C270.999 89.1259 269.875 89.5927 268.703 89.5943ZM268.703 83.1872C268.309 83.186 267.923 83.3018 267.595 83.52C267.267 83.7381 267.011 84.0488 266.86 84.4126C266.709 84.7764 266.669 85.177 266.745 85.5635C266.822 85.95 267.011 86.3051 267.29 86.5837C267.569 86.8624 267.924 87.052 268.31 87.1286C268.697 87.2051 269.097 87.1652 269.461 87.0139C269.825 86.8625 270.136 86.6066 270.354 86.2784C270.572 85.9503 270.688 85.5648 270.687 85.1708C270.687 84.6447 270.478 84.1402 270.106 83.7682C269.734 83.3962 269.229 83.1872 268.703 83.1872Z" fill="black"/>
<path d="M265.591 87.13C265.291 87.132 265.001 87.0232 264.776 86.8244C264.552 86.6256 264.409 86.3509 264.374 86.053C264.064 83.4184 264.666 81.2888 266.163 79.7129C268.974 76.7497 273.903 77.0235 274.11 77.0356C274.432 77.0558 274.734 77.2034 274.948 77.4458C275.162 77.6883 275.271 78.0059 275.25 78.3286C275.23 78.6514 275.083 78.9529 274.84 79.1668C274.598 79.3808 274.28 79.4896 273.957 79.4695C273.921 79.4695 269.942 79.2565 267.921 81.3922C266.936 82.4327 266.571 83.8626 266.79 85.7731C266.826 86.0924 266.734 86.413 266.535 86.665C266.335 86.9169 266.044 87.0797 265.725 87.1178L265.591 87.13Z" fill="black"/>
<path d="M220.751 121.21C219.18 121.229 217.626 120.875 216.218 120.176C215.953 120.007 215.764 119.743 215.689 119.438C215.615 119.133 215.661 118.811 215.818 118.54C215.975 118.268 216.231 118.067 216.532 117.98C216.834 117.893 217.157 117.925 217.435 118.07C217.715 118.223 223.976 121.612 230.383 112.564C230.472 112.425 230.588 112.306 230.724 112.213C230.86 112.121 231.014 112.057 231.176 112.025C231.337 111.993 231.504 111.995 231.665 112.03C231.826 112.064 231.978 112.131 232.112 112.226C232.247 112.322 232.36 112.443 232.446 112.584C232.532 112.724 232.589 112.88 232.613 113.043C232.637 113.206 232.627 113.372 232.585 113.532C232.543 113.691 232.468 113.84 232.367 113.969C228.211 119.841 223.879 121.21 220.751 121.21Z" fill="black"/>
<path d="M228.224 88.633C229.696 88.633 230.889 87.4398 230.889 85.9679C230.889 84.496 229.696 83.3029 228.224 83.3029C226.752 83.3029 225.559 84.496 225.559 85.9679C225.559 87.4398 226.752 88.633 228.224 88.633Z" fill="black"/>
<path d="M197.028 99.9198C198.5 99.9198 199.693 98.7267 199.693 97.2548C199.693 95.7829 198.5 94.5897 197.028 94.5897C195.556 94.5897 194.363 95.7829 194.363 97.2548C194.363 98.7267 195.556 99.9198 197.028 99.9198Z" fill="black"/>
<path d="M196.353 111.846C190.238 111.846 184.561 106.917 183.095 99.8896C181.44 91.9797 185.741 84.3617 192.678 82.9075C194.395 82.5672 196.166 82.6049 197.867 83.0178C199.568 83.4308 201.159 84.2091 202.529 85.2988C205.498 87.6196 207.534 90.9299 208.267 94.6265C209.077 98.3061 208.537 102.155 206.745 105.469C205.928 107.017 204.782 108.369 203.389 109.429C201.995 110.489 200.387 111.233 198.677 111.609C197.912 111.766 197.134 111.846 196.353 111.846ZM195.02 85.0736C194.407 85.0764 193.795 85.1417 193.195 85.2683C187.567 86.4427 184.111 92.7707 185.492 99.3664C186.873 105.962 192.574 110.373 198.197 109.199C199.565 108.894 200.85 108.294 201.962 107.441C203.074 106.587 203.986 105.501 204.634 104.258C206.137 101.457 206.582 98.2091 205.887 95.1071C205.285 91.975 203.572 89.1659 201.062 87.1972C199.334 85.8518 197.21 85.114 195.02 85.098V85.0736Z" fill="black"/>
<path d="M208.114 95.1071C207.826 95.1051 207.547 95.0005 207.329 94.812C207.11 94.6235 206.965 94.3635 206.921 94.0783C206.876 93.7931 206.934 93.5013 207.085 93.2551C207.236 93.0089 207.469 92.8242 207.743 92.7341L218.732 89.1929C219.032 89.1184 219.348 89.1605 219.618 89.3107C219.888 89.4609 220.09 89.708 220.184 90.0019C220.279 90.2957 220.258 90.6145 220.126 90.8936C219.994 91.1727 219.761 91.3912 219.474 91.505L208.492 95.0524C208.369 95.0884 208.242 95.1069 208.114 95.1071Z" fill="black"/>
<path d="M213.578 108.092C212.958 108.108 212.341 107.989 211.771 107.742C211.202 107.495 210.693 107.126 210.281 106.662C209.064 105.183 209.271 103.157 209.849 101.873C210.261 100.974 210.93 100.216 211.771 99.6951L206.764 86.309C206.672 86.0123 206.696 85.6916 206.833 85.4126C206.97 85.1336 207.208 84.9175 207.499 84.8086C207.79 84.6997 208.112 84.7062 208.398 84.8268C208.685 84.9474 208.914 85.1729 209.039 85.4572L214.881 101.028L213.664 101.429C213.314 101.545 212.991 101.729 212.714 101.972C212.437 102.214 212.212 102.51 212.051 102.841C211.832 103.322 211.571 104.405 212.124 105.062C212.678 105.719 213.95 105.914 215.13 105.153C215.263 105.055 215.415 104.985 215.576 104.947C215.737 104.91 215.904 104.905 216.067 104.935C216.23 104.964 216.385 105.026 216.523 105.117C216.661 105.208 216.779 105.327 216.87 105.465C216.961 105.604 217.022 105.759 217.051 105.922C217.079 106.085 217.074 106.252 217.036 106.413C216.998 106.574 216.928 106.725 216.829 106.858C216.73 106.991 216.606 107.102 216.463 107.185C215.609 107.76 214.607 108.075 213.578 108.092Z" fill="black"/>
<path d="M222.969 60.4013C238.37 57.1812 248.921 45.326 246.537 33.922C244.152 22.518 229.735 15.8836 214.334 19.1037C198.934 22.3239 188.382 34.1791 190.767 45.5831C193.151 56.9871 207.569 63.6214 222.969 60.4013Z" fill="black"/>
<path d="M269.946 60.4918L254.68 64.459C250.525 65.5377 246.111 64.922 242.409 62.7472C238.708 60.5725 236.022 57.0167 234.941 52.8618L231.723 40.4735L262.657 32.4357L269.946 60.4918Z" fill="black"/>
<path d="M184.224 76.0319C195.73 76.0319 205.058 66.7043 205.058 55.1982C205.058 43.6921 195.73 34.3645 184.224 34.3645C172.718 34.3645 163.391 43.6921 163.391 55.1982C163.391 66.7043 172.718 76.0319 184.224 76.0319Z" fill="black"/>
<path d="M241.046 83.2785C240.763 83.2792 240.488 83.1809 240.269 83.0006C240.05 82.8202 239.901 82.5691 239.848 82.2907C239.795 82.0123 239.84 81.724 239.977 81.4755C240.113 81.227 240.332 81.0341 240.596 80.9299L263.377 71.803C263.527 71.7336 263.689 71.6956 263.854 71.6911C264.02 71.6867 264.184 71.7159 264.338 71.7771C264.491 71.8383 264.631 71.9301 264.747 72.0469C264.864 72.1638 264.956 72.3032 265.017 72.4567C265.079 72.6102 265.108 72.7746 265.104 72.9398C265.099 73.105 265.061 73.2676 264.992 73.4177C264.923 73.5677 264.824 73.7021 264.701 73.8126C264.578 73.9231 264.434 74.0074 264.277 74.0603L241.496 83.1872C241.353 83.2445 241.2 83.2754 241.046 83.2785Z" fill="black"/>
<path d="M155.019 277.201L149.695 348.306L151.563 365.75H199.528L193.821 279.684L155.019 277.201Z" fill="white"/>
<path d="M200.832 366.967H150.47L148.48 348.324L153.902 275.917L194.967 278.54L200.832 366.967ZM152.661 364.533H198.228L192.679 280.828L156.171 278.491L150.92 348.288L152.661 364.533Z" fill="black"/>
<path d="M186.052 162.567C184.009 163.394 182.045 164.399 180.18 165.573C166.246 174.359 161.659 190.52 158.129 206.285C154.381 223.048 148.863 261.613 146.928 291.561C162.042 292.522 179.687 293.49 194.801 294.457L186.052 162.567Z" fill="black"/>
<path d="M172.575 222.336H26.6603C26.3375 222.336 26.028 222.208 25.7998 221.98C25.5716 221.752 25.4434 221.442 25.4434 221.119C25.4434 220.796 25.5716 220.487 25.7998 220.259C26.028 220.031 26.3375 219.902 26.6603 219.902H172.575C172.898 219.902 173.208 220.031 173.436 220.259C173.664 220.487 173.792 220.796 173.792 221.119C173.792 221.442 173.664 221.752 173.436 221.98C173.208 222.208 172.898 222.336 172.575 222.336Z" fill="black"/>
<path d="M100.801 221.667H40.2467C39.0266 221.665 37.8569 221.18 36.9936 220.318C36.1303 219.456 35.6438 218.287 35.6406 217.067V208.457C35.6422 207.236 36.128 206.066 36.9915 205.202C37.8549 204.339 39.0256 203.853 40.2467 203.851H100.801C102.022 203.853 103.192 204.339 104.056 205.202C104.919 206.066 105.405 207.236 105.407 208.457V217.073C105.402 218.292 104.915 219.46 104.052 220.32C103.188 221.181 102.02 221.665 100.801 221.667ZM40.2467 206.279C39.9614 206.279 39.679 206.335 39.4154 206.444C39.1519 206.553 38.9124 206.713 38.7107 206.915C38.509 207.117 38.349 207.356 38.2398 207.62C38.1307 207.883 38.0745 208.166 38.0745 208.451V217.067C38.0761 217.642 38.3056 218.193 38.7128 218.599C39.12 219.005 39.6716 219.233 40.2467 219.233H100.801C101.376 219.233 101.927 219.005 102.335 218.599C102.742 218.193 102.971 217.642 102.973 217.067V208.457C102.973 207.881 102.744 207.329 102.337 206.921C101.929 206.514 101.377 206.285 100.801 206.285L40.2467 206.279Z" fill="black"/>
<path d="M100.794 188.707H40.2466C38.3748 188.707 36.8574 190.224 36.8574 192.096V200.706C36.8574 202.577 38.3748 204.095 40.2466 204.095H100.794C102.666 204.095 104.184 202.577 104.184 200.706V192.096C104.184 190.224 102.666 188.707 100.794 188.707Z" fill="#FFBB45"/>
<path d="M116.7 221.363H108.078C106.859 221.361 105.69 220.876 104.828 220.014C103.965 219.151 103.48 217.982 103.479 216.763V166.619C103.48 165.4 103.965 164.231 104.828 163.369C105.69 162.506 106.859 162.021 108.078 162.019H116.7C117.92 162.021 119.089 162.506 119.951 163.369C120.814 164.231 121.299 165.4 121.3 166.619V216.763C121.299 217.982 120.814 219.151 119.951 220.014C119.089 220.876 117.92 221.361 116.7 221.363ZM108.078 164.472C107.504 164.473 106.954 164.702 106.549 165.108C106.143 165.514 105.914 166.064 105.912 166.638V216.781C105.914 217.355 106.143 217.905 106.549 218.311C106.954 218.717 107.504 218.945 108.078 218.947H116.7C117.274 218.945 117.824 218.717 118.23 218.311C118.636 217.905 118.865 217.355 118.866 216.781V166.619C118.865 166.045 118.636 165.495 118.23 165.09C117.824 164.684 117.274 164.455 116.7 164.453L108.078 164.472Z" fill="black"/>
<path d="M133.163 163.236H124.553C122.681 163.236 121.164 164.754 121.164 166.626V216.763C121.164 218.634 122.681 220.152 124.553 220.152H133.163C135.035 220.152 136.552 218.634 136.552 216.763V166.626C136.552 164.754 135.035 163.236 133.163 163.236Z" fill="#FFE6C1"/>
<path d="M260.785 170.258C252.71 170.181 244.823 167.813 238.041 163.431C237.784 163.249 237.608 162.975 237.549 162.667C237.49 162.358 237.553 162.038 237.724 161.775C237.896 161.511 238.163 161.324 238.469 161.253C238.775 161.182 239.097 161.232 239.367 161.393C243.146 163.827 253.362 169.376 266.279 167.411C284.089 164.709 292.912 150.246 294.5 147.374C294.573 147.227 294.675 147.097 294.8 146.991C294.925 146.885 295.07 146.805 295.227 146.757C295.383 146.708 295.548 146.692 295.711 146.708C295.874 146.725 296.032 146.774 296.175 146.853C296.319 146.932 296.445 147.04 296.546 147.169C296.647 147.298 296.721 147.446 296.763 147.604C296.806 147.762 296.816 147.928 296.793 148.09C296.77 148.252 296.714 148.408 296.629 148.548C294.944 151.591 285.58 166.942 266.644 169.814C264.705 170.111 262.747 170.259 260.785 170.258Z" fill="white"/>
<path d="M216.581 177.489L188.696 184.83C185.017 185.799 182.82 189.566 183.789 193.244L198.74 250.032C199.708 253.711 203.475 255.908 207.154 254.939L235.039 247.598C238.718 246.629 240.914 242.862 239.946 239.183L224.995 182.396C224.027 178.717 220.259 176.52 216.581 177.489Z" fill="#FFE6C1"/>
<path d="M216.03 187.4L215.567 187.504C214.068 187.84 213.126 189.327 213.462 190.826L216.186 202.973C216.522 204.472 218.009 205.414 219.508 205.078L219.971 204.974C221.47 204.638 222.412 203.151 222.076 201.652L219.352 189.505C219.016 188.007 217.528 187.064 216.03 187.4Z" fill="white"/>
<path d="M230.226 99.1593C224.142 99.1593 218.55 94.4254 217.132 87.6533C215.544 79.9927 219.883 72.5939 226.831 71.1336C233.78 69.6732 240.722 74.7296 242.323 82.3901C243.923 90.0506 239.578 97.4616 232.636 98.9098C231.844 99.0779 231.036 99.1615 230.226 99.1593ZM229.222 73.3179C228.583 73.3164 227.944 73.3817 227.318 73.5126C221.69 74.6931 218.191 80.8142 219.517 87.1543C220.844 93.4945 226.497 97.705 232.125 96.5307C237.753 95.3564 241.252 89.2292 239.925 82.889C238.745 77.2608 234.181 73.3179 229.235 73.3179H229.222Z" fill="black"/>
<path d="M376.451 0.886719H326.083C318.757 0.886719 312.818 6.82542 312.818 14.1512V61.4651C312.818 68.7908 318.757 74.7295 326.083 74.7295H376.451C383.777 74.7295 389.716 68.7908 389.716 61.4651V14.1512C389.716 6.82542 383.777 0.886719 376.451 0.886719Z" fill="white"/>
<path d="M368.706 22.6942H333.823C330.893 22.6942 328.518 25.0697 328.518 28V57.5529C328.518 60.4832 330.893 62.8587 333.823 62.8587H368.706C371.637 62.8587 374.012 60.4832 374.012 57.5529V28C374.012 25.0697 371.637 22.6942 368.706 22.6942Z" fill="#FFE6C1"/>
<path d="M374.01 37.048H328.516C328.193 37.048 327.883 36.9198 327.655 36.6916C327.427 36.4633 327.299 36.1538 327.299 35.8311C327.299 35.5083 327.427 35.1988 327.655 34.9706C327.883 34.7423 328.193 34.6141 328.516 34.6141H374.01C374.333 34.6141 374.643 34.7423 374.871 34.9706C375.099 35.1988 375.227 35.5083 375.227 35.8311C375.227 36.1538 375.099 36.4633 374.871 36.6916C374.643 36.9198 374.333 37.048 374.01 37.048Z" fill="#FB6D6D"/>
<path d="M353.137 23.9173H351.25C340.042 23.9173 336.83 20.017 336.106 16.7435C335.971 16.1439 335.967 15.5222 336.096 14.9211C336.224 14.32 336.48 13.7538 336.848 13.2612C337.216 12.7687 337.686 12.3616 338.225 12.0679C338.765 11.7741 339.362 11.6007 339.976 11.5595C347.216 11.0666 352.145 21.7451 352.358 22.2014L353.137 23.9173ZM340.444 13.9811H340.14C339.879 14.0008 339.626 14.0762 339.397 14.2022C339.168 14.3281 338.969 14.5017 338.813 14.7113C338.653 14.9228 338.54 15.1668 338.483 15.4264C338.426 15.686 338.427 15.9548 338.485 16.2142C339.16 19.293 342.945 21.1123 349.218 21.4287C347.484 18.3925 344.137 13.975 340.462 13.975L340.444 13.9811Z" fill="#FB6D6D"/>
<path d="M351.109 23.9173H349.223L350.001 22.2014C350.208 21.7451 355.143 11.0666 362.384 11.5595C362.997 11.6007 363.594 11.7741 364.134 12.0679C364.674 12.3616 365.144 12.7687 365.511 13.2612C365.879 13.7538 366.136 14.32 366.264 14.9211C366.392 15.5222 366.388 16.1439 366.253 16.7435C365.529 20.011 362.317 23.9173 351.109 23.9173ZM361.915 13.9811C358.264 13.9811 354.894 18.3986 353.141 21.4348C359.414 21.1184 363.199 19.2991 363.874 16.2203C363.932 15.9609 363.933 15.6921 363.876 15.4325C363.819 15.1729 363.707 14.9289 363.546 14.7174C363.39 14.5078 363.191 14.3342 362.962 14.2083C362.733 14.0823 362.48 14.0069 362.219 13.9872L361.915 13.9811Z" fill="#FB6D6D"/>
<path d="M363.386 45.2861C363.173 45.2859 362.963 45.2295 362.779 45.1227C362.594 45.0159 362.44 44.8624 362.334 44.6776L350.998 25.1339L340.198 43.9596C340.118 44.0983 340.012 44.2198 339.885 44.3173C339.758 44.4148 339.613 44.4864 339.459 44.5279C339.304 44.5694 339.143 44.5801 338.984 44.5594C338.825 44.5386 338.672 44.4868 338.534 44.4069C338.395 44.3269 338.274 44.2205 338.176 44.0937C338.079 43.9668 338.007 43.8219 337.966 43.6674C337.924 43.5129 337.913 43.3517 337.934 43.193C337.955 43.0344 338.007 42.8814 338.087 42.7427L350.986 20.2297L364.439 43.4242C364.6 43.7034 364.644 44.0352 364.561 44.3466C364.477 44.658 364.274 44.9237 363.995 45.0853C363.815 45.2076 363.604 45.2772 363.386 45.2861Z" fill="#FB6D6D"/>
<path d="M351.463 64.0755C351.14 64.0755 350.831 63.9473 350.603 63.7191C350.374 63.4909 350.246 63.1814 350.246 62.8586V23.978C350.246 23.6552 350.374 23.3457 350.603 23.1175C350.831 22.8893 351.14 22.761 351.463 22.761C351.786 22.761 352.095 22.8893 352.323 23.1175C352.552 23.3457 352.68 23.6552 352.68 23.978V62.8586C352.68 63.1814 352.552 63.4909 352.323 63.7191C352.095 63.9473 351.786 64.0755 351.463 64.0755Z" fill="#FB6D6D"/>
<path d="M343.064 253.063L193.583 270.374L191.807 249.248L338.713 231.895L343.064 253.063Z" fill="#89D6FB"/>
<path d="M353.719 299.507L195.142 317.439L193.615 294.597L348.724 276.502L353.719 299.507Z" fill="#89D6FB"/>
<path d="M244.781 226.474C244.781 226.474 224.86 228.238 214.467 210.392C213.492 208.708 212.163 207.255 210.573 206.133C207.841 204.21 203.752 203.005 199.53 207.83C199.53 207.83 192.666 198.746 187.598 203.936C187.598 203.936 183.984 208.518 188.815 216.239C188.815 216.239 181.093 219.446 188.742 232.948C189.916 235.023 191.06 237.116 192.076 239.27C196.189 247.946 210.817 272.583 245.682 276.161C247.954 276.404 250.11 277.293 251.894 278.722L334.547 344.345C342.162 350.446 351.055 354.749 360.565 356.934C374.17 359.976 398.661 358.382 411.335 340.712C418.777 330.19 421.991 317.254 420.34 304.472L416.501 273.258L347.66 284.539L278.167 240.967C275.847 239.506 273.958 237.454 272.691 235.023C268.657 227.326 258.496 209.467 247.221 201.697C246.832 201.429 246.448 201.168 246.071 200.888C243.637 199.063 240.595 197.554 237.522 197.505C232.654 197.432 228.529 201.928 231.535 206.492C232.855 208.5 234.979 210.143 236.944 211.493C238.982 212.88 240.715 214.668 242.038 216.748C243.36 218.828 244.244 221.156 244.635 223.59C244.78 224.544 244.829 225.51 244.781 226.474Z" fill="white"/>
<path d="M223.168 239.154C222.982 239.153 222.799 239.109 222.633 239.027C219.395 237.449 216.361 235.483 213.597 233.173C204.233 225.318 200.138 215.211 198.349 208.117C198.268 207.804 198.315 207.471 198.48 207.193C198.644 206.914 198.912 206.713 199.225 206.632C199.538 206.551 199.871 206.598 200.149 206.763C200.428 206.927 200.629 207.195 200.71 207.508C202.408 214.256 206.296 223.858 215.161 231.299C217.765 233.482 220.626 235.339 223.679 236.83C223.928 236.95 224.128 237.151 224.247 237.4C224.366 237.649 224.397 237.931 224.334 238.2C224.272 238.468 224.121 238.708 223.904 238.879C223.688 239.051 223.42 239.143 223.144 239.142L223.168 239.154Z" fill="black"/>
<path d="M215.355 249.437C215.166 249.44 214.98 249.396 214.813 249.31C213.18 248.575 211.66 247.612 210.298 246.45C209.83 246.072 209.24 245.604 208.473 244.983C199.346 237.919 192.178 228.129 187.7 216.672C187.634 216.522 187.598 216.359 187.596 216.195C187.594 216.031 187.625 215.868 187.687 215.716C187.749 215.564 187.842 215.426 187.959 215.311C188.076 215.196 188.215 215.106 188.368 215.046C188.521 214.986 188.684 214.957 188.849 214.962C189.013 214.967 189.174 215.005 189.323 215.074C189.472 215.143 189.606 215.241 189.716 215.363C189.826 215.485 189.91 215.628 189.964 215.783C194.29 226.833 201.202 236.264 209.964 243.061C210.773 243.669 211.369 244.168 211.844 244.551C213.071 245.608 214.447 246.48 215.927 247.137C216.169 247.262 216.363 247.464 216.477 247.711C216.591 247.959 216.619 248.237 216.556 248.502C216.493 248.767 216.342 249.004 216.129 249.173C215.916 249.343 215.652 249.436 215.379 249.437H215.355Z" fill="black"/>
<path d="M250.877 368.196H148.57V346.115H250.877C252.237 346.117 253.541 346.658 254.502 347.62C255.464 348.581 256.005 349.885 256.006 351.245V363.073C256.005 364.433 255.463 365.736 254.502 366.696C253.54 367.657 252.236 368.196 250.877 368.196Z" fill="black"/>
<path d="M160.094 368.197H40.4163C38.1865 368.219 36.009 367.52 34.2086 366.205C32.4082 364.889 31.0812 363.027 30.4254 360.895L1.11585 261.534C-0.782549 255.096 4.20074 248.683 11.1068 248.683H123.988C126.316 248.661 128.583 249.426 130.423 250.852C132.262 252.279 133.567 254.284 134.125 256.544L160.094 368.197Z" fill="black"/>
<path d="M73.1745 334.451C82.3351 334.451 89.7612 327.025 89.7612 317.865C89.7612 308.704 82.3351 301.278 73.1745 301.278C64.014 301.278 56.5879 308.704 56.5879 317.865C56.5879 327.025 64.014 334.451 73.1745 334.451Z" fill="#FFE6C1"/>
<path d="M69.5308 306.03C69.2582 306.03 68.9937 305.938 68.7797 305.769C68.5656 305.6 68.4145 305.364 68.3504 305.099L66.3668 296.976C66.3289 296.821 66.3219 296.66 66.3463 296.501C66.3707 296.343 66.426 296.192 66.5091 296.055C66.5921 295.918 66.7013 295.799 66.8304 295.705C66.9594 295.61 67.1058 295.542 67.2613 295.504C67.4167 295.466 67.578 295.459 67.7361 295.483C67.8942 295.508 68.046 295.563 68.1827 295.646C68.3195 295.729 68.4385 295.838 68.533 295.967C68.6276 296.096 68.6958 296.243 68.7337 296.398L70.7112 304.521C70.7555 304.7 70.7585 304.887 70.7199 305.068C70.6813 305.248 70.6021 305.418 70.4884 305.563C70.3746 305.708 70.2293 305.826 70.0634 305.907C69.8975 305.988 69.7154 306.03 69.5308 306.03Z" fill="#6DC8C2"/>
<path d="M430.026 272.419L349.162 285.951L319.469 134.261L340.546 134.56C353.622 134.672 366.319 138.971 376.774 146.826C382.222 150.942 386.857 156.036 390.44 161.849C393.012 166.072 394.996 170.627 396.336 175.387L430.026 272.419Z" fill="black"/>
<path d="M465.237 97.255H376.238C370.216 97.255 365.334 102.137 365.334 108.159V165.092C365.334 171.114 370.216 175.996 376.238 175.996H465.237C471.259 175.996 476.141 171.114 476.141 165.092V108.159C476.141 102.137 471.259 97.255 465.237 97.255Z" fill="white"/>
<path d="M465.237 177.213H376.256C373.04 177.205 369.958 175.924 367.684 173.651C365.409 171.377 364.127 168.296 364.117 165.08V108.165C364.128 104.95 365.411 101.87 367.686 99.598C369.96 97.3259 373.041 96.046 376.256 96.038H465.237C468.45 96.0492 471.528 97.3305 473.8 99.6022C476.071 101.874 477.353 104.952 477.364 108.165V165.08C477.354 168.294 476.074 171.373 473.802 173.646C471.53 175.919 468.451 177.202 465.237 177.213ZM376.256 98.4719C373.69 98.4847 371.232 99.5102 369.418 101.325C367.604 103.14 366.58 105.598 366.569 108.165V165.08C366.569 167.65 367.589 170.115 369.406 171.934C371.222 173.752 373.686 174.776 376.256 174.779H465.237C467.809 174.777 470.274 173.755 472.091 171.936C473.909 170.117 474.93 167.651 474.93 165.08V108.165C474.919 105.597 473.894 103.139 472.079 101.323C470.263 99.5079 467.804 98.4831 465.237 98.4719H376.256Z" fill="black"/>
<path d="M461.478 124.484H428.457C428.134 124.484 427.825 124.355 427.597 124.127C427.368 123.899 427.24 123.589 427.24 123.267C427.24 122.944 427.368 122.634 427.597 122.406C427.825 122.178 428.134 122.05 428.457 122.05H461.478C461.801 122.05 462.111 122.178 462.339 122.406C462.567 122.634 462.695 122.944 462.695 123.267C462.695 123.589 462.567 123.899 462.339 124.127C462.111 124.355 461.801 124.484 461.478 124.484Z" fill="black"/>
<path d="M461.478 137.845H428.457C428.134 137.845 427.825 137.717 427.597 137.489C427.368 137.261 427.24 136.951 427.24 136.628C427.24 136.306 427.368 135.996 427.597 135.768C427.825 135.54 428.134 135.411 428.457 135.411H461.478C461.801 135.411 462.111 135.54 462.339 135.768C462.567 135.996 462.695 136.306 462.695 136.628C462.695 136.951 462.567 137.261 462.339 137.489C462.111 137.717 461.801 137.845 461.478 137.845Z" fill="black"/>
<path d="M449.954 151.201H428.457C428.134 151.201 427.825 151.073 427.597 150.844C427.368 150.616 427.24 150.307 427.24 149.984C427.24 149.661 427.368 149.352 427.597 149.123C427.825 148.895 428.134 148.767 428.457 148.767H449.954C450.277 148.767 450.586 148.895 450.815 149.123C451.043 149.352 451.171 149.661 451.171 149.984C451.171 150.307 451.043 150.616 450.815 150.844C450.586 151.073 450.277 151.201 449.954 151.201Z" fill="black"/>
<path d="M390.859 118.076C390.926 119.529 391.55 120.899 392.602 121.903C393.653 122.907 395.051 123.467 396.505 123.467C397.959 123.467 399.357 122.907 400.408 121.903C401.46 120.899 402.084 119.529 402.152 118.076C402.152 118.076 413.761 116.172 413.919 132.832H408.194V155.247H384.318V132.832H377.691C377.691 132.832 378.008 116.835 390.859 118.076Z" fill="#89D6FB"/>
<path d="M366.819 295.99C366.606 295.996 366.396 295.943 366.211 295.838L348.109 285.847C347.84 285.685 347.644 285.424 347.563 285.121C347.482 284.817 347.521 284.494 347.673 284.218C347.825 283.943 348.077 283.737 348.377 283.644C348.678 283.55 349.002 283.577 349.283 283.718L367.385 293.709C367.623 293.84 367.809 294.047 367.916 294.297C368.022 294.547 368.042 294.825 367.972 295.087C367.902 295.35 367.746 295.581 367.53 295.745C367.313 295.908 367.048 295.995 366.777 295.99H366.819Z" fill="black"/>
<path d="M172.575 139.89H26.6603C26.3375 139.89 26.028 139.762 25.7998 139.533C25.5716 139.305 25.4434 138.996 25.4434 138.673C25.4434 138.35 25.5716 138.041 25.7998 137.812C26.028 137.584 26.3375 137.456 26.6603 137.456H172.575C172.898 137.456 173.208 137.584 173.436 137.812C173.664 138.041 173.792 138.35 173.792 138.673C173.792 138.996 173.664 139.305 173.436 139.533C173.208 139.762 172.898 139.89 172.575 139.89Z" fill="black"/>
<path d="M127.712 136.914C139.652 136.914 149.331 127.235 149.331 115.296C149.331 103.356 139.652 93.677 127.712 93.677C115.773 93.677 106.094 103.356 106.094 115.296C106.094 127.235 115.773 136.914 127.712 136.914Z" fill="white"/>
<path d="M83.6356 138.959H52.5554C49.6824 138.956 46.9279 137.813 44.8963 135.781C42.8647 133.75 41.722 130.995 41.7188 128.122V83.443C41.7187 80.5678 42.8601 77.8102 44.892 75.776C46.9239 73.7418 49.6802 72.5974 52.5554 72.5942H83.6539C86.5269 72.5974 89.2814 73.7402 91.313 75.7717C93.3446 77.8033 94.4873 80.5578 94.4905 83.4309V128.11C94.4905 129.535 94.2097 130.947 93.6641 132.263C93.1186 133.58 92.3189 134.776 91.3108 135.784C90.3028 136.791 89.1061 137.59 87.7891 138.135C86.4722 138.68 85.0608 138.96 83.6356 138.959ZM52.5554 75.028C50.3278 75.0312 48.1924 75.9176 46.6173 77.4927C45.0421 79.0678 44.1558 81.2033 44.1526 83.4309V128.11C44.1518 129.214 44.3685 130.308 44.7904 131.329C45.2122 132.349 45.8309 133.277 46.6112 134.058C47.3915 134.839 48.318 135.459 49.3379 135.883C50.3579 136.306 51.4512 136.524 52.5554 136.525H83.6539C85.8814 136.522 88.0169 135.636 89.592 134.06C91.1672 132.485 92.0535 130.35 92.0567 128.122V83.443C92.0567 82.3374 91.8388 81.2427 91.4156 80.2213C90.9923 79.2 90.3719 78.2721 89.5899 77.4906C88.8078 76.7091 87.8794 76.0894 86.8578 75.6668C85.8361 75.2443 84.7412 75.0272 83.6356 75.028H52.5554Z" fill="black"/>
<path d="M92.6091 122.908H42.9161C42.5934 122.908 42.2839 122.779 42.0556 122.551C41.8274 122.323 41.6992 122.013 41.6992 121.691C41.6992 121.368 41.8274 121.058 42.0556 120.83C42.2839 120.602 42.5934 120.474 42.9161 120.474H92.6091C92.9319 120.474 93.2414 120.602 93.4696 120.83C93.6978 121.058 93.826 121.368 93.826 121.691C93.826 122.013 93.6978 122.323 93.4696 122.551C93.2414 122.779 92.9319 122.908 92.6091 122.908Z" fill="black"/>
<path d="M62.8983 133.148C64.5281 133.148 65.8493 131.827 65.8493 130.197C65.8493 128.567 64.5281 127.246 62.8983 127.246C61.2685 127.246 59.9473 128.567 59.9473 130.197C59.9473 131.827 61.2685 133.148 62.8983 133.148Z" fill="white"/>
<path d="M73.2538 133.148C74.8836 133.148 76.2048 131.827 76.2048 130.197C76.2048 128.567 74.8836 127.246 73.2538 127.246C71.624 127.246 70.3027 128.567 70.3027 130.197C70.3027 131.827 71.624 133.148 73.2538 133.148Z" fill="white"/>
<path d="M123.179 99.3298C122.901 99.3291 122.632 99.2333 122.416 99.0584C122.2 98.8835 122.051 98.6401 121.992 98.3685C118.828 83.7654 122.4 73.7745 125.953 67.9454C129.835 61.6114 134.472 58.782 134.648 58.6664C134.925 58.5002 135.256 58.4507 135.57 58.5289C135.883 58.6071 136.152 58.8065 136.318 59.0832C136.485 59.36 136.534 59.6914 136.456 60.0046C136.378 60.3179 136.178 60.5872 135.902 60.7534C135.172 61.1976 118.682 71.5719 124.341 97.833C124.408 98.1476 124.347 98.4759 124.173 98.7461C123.999 99.0163 123.724 99.2065 123.41 99.2751C123.335 99.3002 123.257 99.3185 123.179 99.3298Z" fill="black"/>
<path d="M150.516 60.425L145.277 59.2872C145.234 59.0012 145.18 58.6787 145.113 58.4293L149.688 55.8616C150.551 55.2804 151.164 54.3957 151.405 53.3834C151.646 52.3711 151.497 51.3052 150.988 50.3976C150.479 49.4901 149.647 48.8072 148.658 48.4848C147.669 48.1623 146.594 48.224 145.648 48.6574L140.835 51.359C140.756 51.4015 140.695 51.4563 140.622 51.505C140.391 51.3346 140.154 51.1703 139.91 51.0182L140.969 46.1201C141.201 45.047 140.996 43.9258 140.401 43.0032C139.806 42.0807 138.869 41.4323 137.796 41.2007C136.723 40.9691 135.602 41.1733 134.679 41.7684C133.756 42.3635 133.108 43.3007 132.877 44.3738L131.818 49.2415C131.408 49.2962 131.002 49.3734 130.601 49.4727C130.514 49.3098 130.418 49.1514 130.315 48.9981L126.993 44.605C126.332 43.7288 125.35 43.1509 124.263 42.9986C123.176 42.8462 122.073 43.1319 121.197 43.7927C120.321 44.4536 119.743 45.4354 119.591 46.5223C119.438 47.6092 119.724 48.7121 120.385 49.5883L123.707 53.9997C123.707 54.0362 123.768 54.0605 123.798 54.097C123.683 54.2552 123.585 54.4195 123.476 54.5777L118.407 53.4825C117.334 53.2511 116.213 53.4549 115.29 54.0493C114.367 54.6436 113.718 55.5799 113.485 56.6525C113.369 57.1839 113.36 57.7329 113.457 58.2679C113.554 58.803 113.755 59.3137 114.05 59.7709C114.344 60.2281 114.726 60.6227 115.173 60.9323C115.62 61.2418 116.123 61.4602 116.655 61.575L121.681 62.6641C121.681 62.7858 121.711 62.9075 121.73 63.0292H121.687L116.868 65.7308C115.953 66.2897 115.29 67.1818 115.018 68.2194C114.747 69.2571 114.889 70.3595 115.414 71.2948C115.938 72.2302 116.805 72.9256 117.832 73.2349C118.859 73.5442 119.966 73.4432 120.92 72.9532L125.739 70.2516C125.776 70.2516 125.8 70.203 125.837 70.1847C126.223 70.5079 126.63 70.8066 127.054 71.0792L126.001 75.9468C125.871 76.4841 125.85 77.0419 125.939 77.5873C126.029 78.1328 126.226 78.6549 126.52 79.123C126.814 79.591 127.198 79.9955 127.651 80.3127C128.104 80.6299 128.615 80.8533 129.155 80.9698C129.696 81.0863 130.254 81.0935 130.797 80.991C131.34 80.8886 131.857 80.6785 132.318 80.3732C132.779 80.0679 133.174 79.6735 133.48 79.2132C133.786 78.7529 133.996 78.2361 134.1 77.6931L135.146 72.8254C135.45 72.7828 135.755 72.7281 136.053 72.6611L139.271 76.9204C139.58 77.3943 139.983 77.7999 140.454 78.1123C140.926 78.4247 141.457 78.6373 142.013 78.7369C142.57 78.8364 143.141 78.821 143.692 78.6914C144.243 78.5618 144.761 78.3209 145.215 77.9834C145.669 77.646 146.049 77.2192 146.332 76.7292C146.614 76.2393 146.794 75.6967 146.859 75.1348C146.924 74.5729 146.873 74.0037 146.71 73.4621C146.547 72.9205 146.275 72.4181 145.91 71.9858L143.05 68.1829C143.233 67.9334 143.409 67.6779 143.573 67.4101L148.763 68.5358C149.295 68.6512 149.844 68.6607 150.379 68.5638C150.914 68.4669 151.425 68.2655 151.882 67.9711C152.339 67.6767 152.734 67.295 153.043 66.848C153.353 66.4009 153.571 65.8972 153.686 65.3657C153.804 64.833 153.816 64.2823 153.72 63.7451C153.624 63.208 153.423 62.695 153.129 62.2358C152.834 61.7766 152.452 61.3802 152.003 61.0694C151.555 60.7587 151.049 60.5397 150.516 60.425Z" fill="#FFE6C1"/>
<path d="M150.516 60.425L145.277 59.2872C145.234 59.0012 145.18 58.6787 145.113 58.4293L149.688 55.8616C150.551 55.2804 151.164 54.3957 151.405 53.3834C151.646 52.3711 151.497 51.3052 150.988 50.3976C150.479 49.4901 149.647 48.8072 148.658 48.4848C147.669 48.1623 146.594 48.224 145.648 48.6574L140.835 51.359C140.756 51.4015 140.695 51.4563 140.622 51.505C140.391 51.3346 140.154 51.1703 139.91 51.0182L140.969 46.1201C141.201 45.047 140.996 43.9258 140.401 43.0032C139.806 42.0807 138.869 41.4323 137.796 41.2007C136.723 40.9691 135.602 41.1733 134.679 41.7684C133.756 42.3635 133.108 43.3007 132.877 44.3738L131.818 49.2415C131.408 49.2962 131.002 49.3734 130.601 49.4727C130.514 49.3098 130.418 49.1514 130.315 48.9981L126.993 44.605C126.332 43.7288 125.35 43.1509 124.263 42.9986C123.176 42.8462 122.073 43.1319 121.197 43.7927C120.321 44.4536 119.743 45.4354 119.591 46.5223C119.438 47.6092 119.724 48.7121 120.385 49.5883L123.707 53.9997C123.707 54.0362 123.768 54.0605 123.798 54.097C123.683 54.2552 123.585 54.4195 123.476 54.5777L118.407 53.4825C117.334 53.2511 116.213 53.4549 115.29 54.0493C114.367 54.6436 113.718 55.5799 113.485 56.6525C113.369 57.1839 113.36 57.7329 113.457 58.2679C113.554 58.803 113.755 59.3137 114.05 59.7709C114.344 60.2281 114.726 60.6227 115.173 60.9323C115.62 61.2418 116.123 61.4602 116.655 61.575L121.681 62.6641C121.681 62.7858 121.711 62.9075 121.73 63.0292H121.687L116.868 65.7308C115.953 66.2897 115.29 67.1818 115.018 68.2194C114.747 69.2571 114.889 70.3595 115.414 71.2948C115.938 72.2302 116.805 72.9256 117.832 73.2349C118.859 73.5442 119.966 73.4432 120.92 72.9532L125.739 70.2516C125.776 70.2516 125.8 70.203 125.837 70.1847C126.223 70.5079 126.63 70.8066 127.054 71.0792L126.001 75.9468C125.871 76.4841 125.85 77.0419 125.939 77.5873C126.029 78.1328 126.226 78.6549 126.52 79.123C126.814 79.591 127.198 79.9955 127.651 80.3127C128.104 80.6299 128.615 80.8533 129.155 80.9698C129.696 81.0863 130.254 81.0935 130.797 80.991C131.34 80.8886 131.857 80.6785 132.318 80.3732C132.779 80.0679 133.174 79.6735 133.48 79.2132C133.786 78.7529 133.996 78.2361 134.1 77.6931L135.146 72.8254C135.45 72.7828 135.755 72.7281 136.053 72.6611L139.271 76.9204C139.58 77.3943 139.983 77.7999 140.454 78.1123C140.926 78.4247 141.457 78.6373 142.013 78.7369C142.57 78.8364 143.141 78.821 143.692 78.6914C144.243 78.5618 144.761 78.3209 145.215 77.9834C145.669 77.646 146.049 77.2192 146.332 76.7292C146.614 76.2393 146.794 75.6967 146.859 75.1348C146.924 74.5729 146.873 74.0037 146.71 73.4621C146.547 72.9205 146.275 72.4181 145.91 71.9858L143.05 68.1829C143.233 67.9334 143.409 67.6779 143.573 67.4101L148.763 68.5358C149.295 68.6512 149.844 68.6607 150.379 68.5638C150.914 68.4669 151.425 68.2655 151.882 67.9711C152.339 67.6767 152.734 67.295 153.043 66.848C153.353 66.4009 153.571 65.8972 153.686 65.3657C153.804 64.833 153.816 64.2823 153.72 63.7451C153.624 63.208 153.423 62.695 153.129 62.2358C152.834 61.7766 152.452 61.3802 152.003 61.0694C151.555 60.7587 151.049 60.5397 150.516 60.425Z" fill="#FFE6C1"/>
<path d="M150.516 60.425L145.277 59.2872C145.234 59.0012 145.18 58.6787 145.113 58.4293L149.688 55.8616C150.551 55.2804 151.164 54.3957 151.405 53.3834C151.646 52.3711 151.497 51.3052 150.988 50.3976C150.479 49.4901 149.647 48.8072 148.658 48.4848C147.669 48.1623 146.594 48.224 145.648 48.6574L140.835 51.359C140.756 51.4015 140.695 51.4563 140.622 51.505C140.391 51.3346 140.154 51.1703 139.91 51.0182L140.969 46.1201C141.201 45.047 140.996 43.9258 140.401 43.0032C139.806 42.0807 138.869 41.4323 137.796 41.2007C136.723 40.9691 135.602 41.1733 134.679 41.7684C133.756 42.3635 133.108 43.3007 132.877 44.3738L131.818 49.2415C131.408 49.2962 131.002 49.3734 130.601 49.4727C130.514 49.3098 130.418 49.1514 130.315 48.9981L126.993 44.605C126.332 43.7288 125.35 43.1509 124.263 42.9986C123.176 42.8462 122.073 43.1319 121.197 43.7927C120.321 44.4536 119.743 45.4354 119.591 46.5223C119.438 47.6092 119.724 48.7121 120.385 49.5883L123.707 53.9997C123.707 54.0362 123.768 54.0605 123.798 54.097C123.683 54.2552 123.585 54.4195 123.476 54.5777L118.407 53.4825C117.334 53.2511 116.213 53.4549 115.29 54.0493C114.367 54.6436 113.718 55.5799 113.485 56.6525C113.369 57.1839 113.36 57.7329 113.457 58.2679C113.554 58.803 113.755 59.3137 114.05 59.7709C114.344 60.2281 114.726 60.6227 115.173 60.9323C115.62 61.2418 116.123 61.4602 116.655 61.575L121.681 62.6641C121.681 62.7858 121.711 62.9075 121.73 63.0292H121.687L116.868 65.7308C115.953 66.2897 115.29 67.1818 115.018 68.2194C114.747 69.2571 114.889 70.3595 115.414 71.2948C115.938 72.2302 116.805 72.9256 117.832 73.2349C118.859 73.5442 119.966 73.4432 120.92 72.9532L125.739 70.2516C125.776 70.2516 125.8 70.203 125.837 70.1847C126.223 70.5079 126.63 70.8066 127.054 71.0792L126.001 75.9468C125.871 76.4841 125.85 77.0419 125.939 77.5873C126.029 78.1328 126.226 78.6549 126.52 79.123C126.814 79.591 127.198 79.9955 127.651 80.3127C128.104 80.6299 128.615 80.8533 129.155 80.9698C129.696 81.0863 130.254 81.0935 130.797 80.991C131.34 80.8886 131.857 80.6785 132.318 80.3732C132.779 80.0679 133.174 79.6735 133.48 79.2132C133.786 78.7529 133.996 78.2361 134.1 77.6931L135.146 72.8254C135.45 72.7828 135.755 72.7281 136.053 72.6611L139.271 76.9204C139.58 77.3943 139.983 77.7999 140.454 78.1123C140.926 78.4247 141.457 78.6373 142.013 78.7369C142.57 78.8364 143.141 78.821 143.692 78.6914C144.243 78.5618 144.761 78.3209 145.215 77.9834C145.669 77.646 146.049 77.2192 146.332 76.7292C146.614 76.2393 146.794 75.6967 146.859 75.1348C146.924 74.5729 146.873 74.0037 146.71 73.4621C146.547 72.9205 146.275 72.4181 145.91 71.9858L143.05 68.1829C143.233 67.9334 143.409 67.6779 143.573 67.4101L148.763 68.5358C149.295 68.6512 149.844 68.6607 150.379 68.5638C150.914 68.4669 151.425 68.2655 151.882 67.9711C152.339 67.6767 152.734 67.295 153.043 66.848C153.353 66.4009 153.571 65.8972 153.686 65.3657C153.804 64.833 153.816 64.2823 153.72 63.7451C153.624 63.208 153.423 62.695 153.129 62.2358C152.834 61.7766 152.452 61.3802 152.003 61.0694C151.555 60.7587 151.049 60.5397 150.516 60.425Z" fill="#FFE6C1"/>
<path d="M150.516 60.425L145.277 59.2872C145.234 59.0012 145.18 58.6787 145.113 58.4293L149.688 55.8616C150.551 55.2804 151.164 54.3957 151.405 53.3834C151.646 52.3711 151.497 51.3052 150.988 50.3976C150.479 49.4901 149.647 48.8072 148.658 48.4848C147.669 48.1623 146.594 48.224 145.648 48.6574L140.835 51.359C140.756 51.4015 140.695 51.4563 140.622 51.505C140.391 51.3346 140.154 51.1703 139.91 51.0182L140.969 46.1201C141.201 45.047 140.996 43.9258 140.401 43.0032C139.806 42.0807 138.869 41.4323 137.796 41.2007C136.723 40.9691 135.602 41.1733 134.679 41.7684C133.756 42.3635 133.108 43.3007 132.877 44.3738L131.818 49.2415C131.408 49.2962 131.002 49.3734 130.601 49.4727C130.514 49.3098 130.418 49.1514 130.315 48.9981L126.993 44.605C126.332 43.7288 125.35 43.1509 124.263 42.9986C123.176 42.8462 122.073 43.1319 121.197 43.7927C120.321 44.4536 119.743 45.4354 119.591 46.5223C119.438 47.6092 119.724 48.7121 120.385 49.5883L123.707 53.9997C123.707 54.0362 123.768 54.0605 123.798 54.097C123.683 54.2552 123.585 54.4195 123.476 54.5777L118.407 53.4825C117.334 53.2511 116.213 53.4549 115.29 54.0493C114.367 54.6436 113.718 55.5799 113.485 56.6525C113.369 57.1839 113.36 57.7329 113.457 58.2679C113.554 58.803 113.755 59.3137 114.05 59.7709C114.344 60.2281 114.726 60.6227 115.173 60.9323C115.62 61.2418 116.123 61.4602 116.655 61.575L121.681 62.6641C121.681 62.7858 121.711 62.9075 121.73 63.0292H121.687L116.868 65.7308C115.953 66.2897 115.29 67.1818 115.018 68.2194C114.747 69.2571 114.889 70.3595 115.414 71.2948C115.938 72.2302 116.805 72.9256 117.832 73.2349C118.859 73.5442 119.966 73.4432 120.92 72.9532L125.739 70.2516C125.776 70.2516 125.8 70.203 125.837 70.1847C126.223 70.5079 126.63 70.8066 127.054 71.0792L126.001 75.9468C125.871 76.4841 125.85 77.0419 125.939 77.5873C126.029 78.1328 126.226 78.6549 126.52 79.123C126.814 79.591 127.198 79.9955 127.651 80.3127C128.104 80.6299 128.615 80.8533 129.155 80.9698C129.696 81.0863 130.254 81.0935 130.797 80.991C131.34 80.8886 131.857 80.6785 132.318 80.3732C132.779 80.0679 133.174 79.6735 133.48 79.2132C133.786 78.7529 133.996 78.2361 134.1 77.6931L135.146 72.8254C135.45 72.7828 135.755 72.7281 136.053 72.6611L139.271 76.9204C139.58 77.3943 139.983 77.7999 140.454 78.1123C140.926 78.4247 141.457 78.6373 142.013 78.7369C142.57 78.8364 143.141 78.821 143.692 78.6914C144.243 78.5618 144.761 78.3209 145.215 77.9834C145.669 77.646 146.049 77.2192 146.332 76.7292C146.614 76.2393 146.794 75.6967 146.859 75.1348C146.924 74.5729 146.873 74.0037 146.71 73.4621C146.547 72.9205 146.275 72.4181 145.91 71.9858L143.05 68.1829C143.233 67.9334 143.409 67.6779 143.573 67.4101L148.763 68.5358C149.295 68.6512 149.844 68.6607 150.379 68.5638C150.914 68.4669 151.425 68.2655 151.882 67.9711C152.339 67.6767 152.734 67.295 153.043 66.848C153.353 66.4009 153.571 65.8972 153.686 65.3657C153.804 64.833 153.816 64.2823 153.72 63.7451C153.624 63.208 153.423 62.695 153.129 62.2358C152.834 61.7766 152.452 61.3802 152.003 61.0694C151.555 60.7587 151.049 60.5397 150.516 60.425Z" fill="#FFE6C1"/>
<path d="M150.516 60.425L145.277 59.2872C145.234 59.0012 145.18 58.6787 145.113 58.4293L149.688 55.8616C150.551 55.2804 151.164 54.3957 151.405 53.3834C151.646 52.3711 151.497 51.3052 150.988 50.3976C150.479 49.4901 149.647 48.8072 148.658 48.4848C147.669 48.1623 146.594 48.224 145.648 48.6574L140.835 51.359C140.756 51.4015 140.695 51.4563 140.622 51.505C140.391 51.3346 140.154 51.1703 139.91 51.0182L140.969 46.1201C141.201 45.047 140.996 43.9258 140.401 43.0032C139.806 42.0807 138.869 41.4323 137.796 41.2007C136.723 40.9691 135.602 41.1733 134.679 41.7684C133.756 42.3635 133.108 43.3007 132.877 44.3738L131.818 49.2415C131.408 49.2962 131.002 49.3734 130.601 49.4727C130.514 49.3098 130.418 49.1514 130.315 48.9981L126.993 44.605C126.332 43.7288 125.35 43.1509 124.263 42.9986C123.176 42.8462 122.073 43.1319 121.197 43.7927C120.321 44.4536 119.743 45.4354 119.591 46.5223C119.438 47.6092 119.724 48.7121 120.385 49.5883L123.707 53.9997C123.707 54.0362 123.768 54.0605 123.798 54.097C123.683 54.2552 123.585 54.4195 123.476 54.5777L118.407 53.4825C117.334 53.2511 116.213 53.4549 115.29 54.0493C114.367 54.6436 113.718 55.5799 113.485 56.6525C113.369 57.1839 113.36 57.7329 113.457 58.2679C113.554 58.803 113.755 59.3137 114.05 59.7709C114.344 60.2281 114.726 60.6227 115.173 60.9323C115.62 61.2418 116.123 61.4602 116.655 61.575L121.681 62.6641C121.681 62.7858 121.711 62.9075 121.73 63.0292H121.687L116.868 65.7308C115.953 66.2897 115.29 67.1818 115.018 68.2194C114.747 69.2571 114.889 70.3595 115.414 71.2948C115.938 72.2302 116.805 72.9256 117.832 73.2349C118.859 73.5442 119.966 73.4432 120.92 72.9532L125.739 70.2516C125.776 70.2516 125.8 70.203 125.837 70.1847C126.223 70.5079 126.63 70.8066 127.054 71.0792L126.001 75.9468C125.871 76.4841 125.85 77.0419 125.939 77.5873C126.029 78.1328 126.226 78.6549 126.52 79.123C126.814 79.591 127.198 79.9955 127.651 80.3127C128.104 80.6299 128.615 80.8533 129.155 80.9698C129.696 81.0863 130.254 81.0935 130.797 80.991C131.34 80.8886 131.857 80.6785 132.318 80.3732C132.779 80.0679 133.174 79.6735 133.48 79.2132C133.786 78.7529 133.996 78.2361 134.1 77.6931L135.146 72.8254C135.45 72.7828 135.755 72.7281 136.053 72.6611L139.271 76.9204C139.58 77.3943 139.983 77.7999 140.454 78.1123C140.926 78.4247 141.457 78.6373 142.013 78.7369C142.57 78.8364 143.141 78.821 143.692 78.6914C144.243 78.5618 144.761 78.3209 145.215 77.9834C145.669 77.646 146.049 77.2192 146.332 76.7292C146.614 76.2393 146.794 75.6967 146.859 75.1348C146.924 74.5729 146.873 74.0037 146.71 73.4621C146.547 72.9205 146.275 72.4181 145.91 71.9858L143.05 68.1829C143.233 67.9334 143.409 67.6779 143.573 67.4101L148.763 68.5358C149.295 68.6512 149.844 68.6607 150.379 68.5638C150.914 68.4669 151.425 68.2655 151.882 67.9711C152.339 67.6767 152.734 67.295 153.043 66.848C153.353 66.4009 153.571 65.8972 153.686 65.3657C153.804 64.833 153.816 64.2823 153.72 63.7451C153.624 63.208 153.423 62.695 153.129 62.2358C152.834 61.7766 152.452 61.3802 152.003 61.0694C151.555 60.7587 151.049 60.5397 150.516 60.425Z" fill="#FFE6C1"/>
<path d="M150.516 60.425L145.277 59.2872C145.234 59.0012 145.18 58.6787 145.113 58.4293L149.688 55.8616C150.551 55.2804 151.164 54.3957 151.405 53.3834C151.646 52.3711 151.497 51.3052 150.988 50.3976C150.479 49.4901 149.647 48.8072 148.658 48.4848C147.669 48.1623 146.594 48.224 145.648 48.6574L140.835 51.359C140.756 51.4015 140.695 51.4563 140.622 51.505C140.391 51.3346 140.154 51.1703 139.91 51.0182L140.969 46.1201C141.201 45.047 140.996 43.9258 140.401 43.0032C139.806 42.0807 138.869 41.4323 137.796 41.2007C136.723 40.9691 135.602 41.1733 134.679 41.7684C133.756 42.3635 133.108 43.3007 132.877 44.3738L131.818 49.2415C131.408 49.2962 131.002 49.3734 130.601 49.4727C130.514 49.3098 130.418 49.1514 130.315 48.9981L126.993 44.605C126.332 43.7288 125.35 43.1509 124.263 42.9986C123.176 42.8462 122.073 43.1319 121.197 43.7927C120.321 44.4536 119.743 45.4354 119.591 46.5223C119.438 47.6092 119.724 48.7121 120.385 49.5883L123.707 53.9997C123.707 54.0362 123.768 54.0605 123.798 54.097C123.683 54.2552 123.585 54.4195 123.476 54.5777L118.407 53.4825C117.334 53.2511 116.213 53.4549 115.29 54.0493C114.367 54.6436 113.718 55.5799 113.485 56.6525C113.369 57.1839 113.36 57.7329 113.457 58.2679C113.554 58.803 113.755 59.3137 114.05 59.7709C114.344 60.2281 114.726 60.6227 115.173 60.9323C115.62 61.2418 116.123 61.4602 116.655 61.575L121.681 62.6641C121.681 62.7858 121.711 62.9075 121.73 63.0292H121.687L116.868 65.7308C115.953 66.2897 115.29 67.1818 115.018 68.2194C114.747 69.2571 114.889 70.3595 115.414 71.2948C115.938 72.2302 116.805 72.9256 117.832 73.2349C118.859 73.5442 119.966 73.4432 120.92 72.9532L125.739 70.2516C125.776 70.2516 125.8 70.203 125.837 70.1847C126.223 70.5079 126.63 70.8066 127.054 71.0792L126.001 75.9468C125.871 76.4841 125.85 77.0419 125.939 77.5873C126.029 78.1328 126.226 78.6549 126.52 79.123C126.814 79.591 127.198 79.9955 127.651 80.3127C128.104 80.6299 128.615 80.8533 129.155 80.9698C129.696 81.0863 130.254 81.0935 130.797 80.991C131.34 80.8886 131.857 80.6785 132.318 80.3732C132.779 80.0679 133.174 79.6735 133.48 79.2132C133.786 78.7529 133.996 78.2361 134.1 77.6931L135.146 72.8254C135.45 72.7828 135.755 72.7281 136.053 72.6611L139.271 76.9204C139.58 77.3943 139.983 77.7999 140.454 78.1123C140.926 78.4247 141.457 78.6373 142.013 78.7369C142.57 78.8364 143.141 78.821 143.692 78.6914C144.243 78.5618 144.761 78.3209 145.215 77.9834C145.669 77.646 146.049 77.2192 146.332 76.7292C146.614 76.2393 146.794 75.6967 146.859 75.1348C146.924 74.5729 146.873 74.0037 146.71 73.4621C146.547 72.9205 146.275 72.4181 145.91 71.9858L143.05 68.1829C143.233 67.9334 143.409 67.6779 143.573 67.4101L148.763 68.5358C149.295 68.6512 149.844 68.6607 150.379 68.5638C150.914 68.4669 151.425 68.2655 151.882 67.9711C152.339 67.6767 152.734 67.295 153.043 66.848C153.353 66.4009 153.571 65.8972 153.686 65.3657C153.804 64.833 153.816 64.2823 153.72 63.7451C153.624 63.208 153.423 62.695 153.129 62.2358C152.834 61.7766 152.452 61.3802 152.003 61.0694C151.555 60.7587 151.049 60.5397 150.516 60.425Z" fill="#FFE6C1"/>
<path d="M150.516 60.425L145.277 59.2872C145.234 59.0012 145.18 58.6787 145.113 58.4293L149.688 55.8616C150.551 55.2804 151.164 54.3957 151.405 53.3834C151.646 52.3711 151.497 51.3052 150.988 50.3976C150.479 49.4901 149.647 48.8072 148.658 48.4848C147.669 48.1623 146.594 48.224 145.648 48.6574L140.835 51.359C140.756 51.4015 140.695 51.4563 140.622 51.505C140.391 51.3346 140.154 51.1703 139.91 51.0182L140.969 46.1201C141.201 45.047 140.996 43.9258 140.401 43.0032C139.806 42.0807 138.869 41.4323 137.796 41.2007C136.723 40.9691 135.602 41.1733 134.679 41.7684C133.756 42.3635 133.108 43.3007 132.877 44.3738L131.818 49.2415C131.408 49.2962 131.002 49.3734 130.601 49.4727C130.514 49.3098 130.418 49.1514 130.315 48.9981L126.993 44.605C126.332 43.7288 125.35 43.1509 124.263 42.9986C123.176 42.8462 122.073 43.1319 121.197 43.7927C120.321 44.4536 119.743 45.4354 119.591 46.5223C119.438 47.6092 119.724 48.7121 120.385 49.5883L123.707 53.9997C123.707 54.0362 123.768 54.0605 123.798 54.097C123.683 54.2552 123.585 54.4195 123.476 54.5777L118.407 53.4825C117.334 53.2511 116.213 53.4549 115.29 54.0493C114.367 54.6436 113.718 55.5799 113.485 56.6525C113.369 57.1839 113.36 57.7329 113.457 58.2679C113.554 58.803 113.755 59.3137 114.05 59.7709C114.344 60.2281 114.726 60.6227 115.173 60.9323C115.62 61.2418 116.123 61.4602 116.655 61.575L121.681 62.6641C121.681 62.7858 121.711 62.9075 121.73 63.0292H121.687L116.868 65.7308C115.953 66.2897 115.29 67.1818 115.018 68.2194C114.747 69.2571 114.889 70.3595 115.414 71.2948C115.938 72.2302 116.805 72.9256 117.832 73.2349C118.859 73.5442 119.966 73.4432 120.92 72.9532L125.739 70.2516C125.776 70.2516 125.8 70.203 125.837 70.1847C126.223 70.5079 126.63 70.8066 127.054 71.0792L126.001 75.9468C125.871 76.4841 125.85 77.0419 125.939 77.5873C126.029 78.1328 126.226 78.6549 126.52 79.123C126.814 79.591 127.198 79.9955 127.651 80.3127C128.104 80.6299 128.615 80.8533 129.155 80.9698C129.696 81.0863 130.254 81.0935 130.797 80.991C131.34 80.8886 131.857 80.6785 132.318 80.3732C132.779 80.0679 133.174 79.6735 133.48 79.2132C133.786 78.7529 133.996 78.2361 134.1 77.6931L135.146 72.8254C135.45 72.7828 135.755 72.7281 136.053 72.6611L139.271 76.9204C139.58 77.3943 139.983 77.7999 140.454 78.1123C140.926 78.4247 141.457 78.6373 142.013 78.7369C142.57 78.8364 143.141 78.821 143.692 78.6914C144.243 78.5618 144.761 78.3209 145.215 77.9834C145.669 77.646 146.049 77.2192 146.332 76.7292C146.614 76.2393 146.794 75.6967 146.859 75.1348C146.924 74.5729 146.873 74.0037 146.71 73.4621C146.547 72.9205 146.275 72.4181 145.91 71.9858L143.05 68.1829C143.233 67.9334 143.409 67.6779 143.573 67.4101L148.763 68.5358C149.295 68.6512 149.844 68.6607 150.379 68.5638C150.914 68.4669 151.425 68.2655 151.882 67.9711C152.339 67.6767 152.734 67.295 153.043 66.848C153.353 66.4009 153.571 65.8972 153.686 65.3657C153.804 64.833 153.816 64.2823 153.72 63.7451C153.624 63.208 153.423 62.695 153.129 62.2358C152.834 61.7766 152.452 61.3802 152.003 61.0694C151.555 60.7587 151.049 60.5397 150.516 60.425Z" fill="#FFE6C1"/>
<path d="M133.59 66.5277C136.617 66.5277 139.072 64.0733 139.072 61.0455C139.072 58.0178 136.617 55.5633 133.59 55.5633C130.562 55.5633 128.107 58.0178 128.107 61.0455C128.107 64.0733 130.562 66.5277 133.59 66.5277Z" fill="white"/>
<path d="M124.278 104.152C127.176 103.657 129.199 101.339 128.795 98.9738C128.392 96.6086 125.715 95.092 122.817 95.5864C119.918 96.0808 117.895 98.399 118.299 100.764C118.702 103.129 121.379 104.646 124.278 104.152Z" fill="black"/>
<path d="M117.008 133.239C116.745 133.238 116.489 133.152 116.279 132.993C116.07 132.834 115.917 132.611 115.844 132.358C115.772 132.106 115.783 131.836 115.876 131.59C115.97 131.344 116.141 131.135 116.363 130.994C119.439 129.063 122.948 127.929 126.573 127.696C131.06 127.445 135.518 128.568 139.351 130.915C139.62 131.086 139.812 131.357 139.884 131.668C139.957 131.979 139.903 132.306 139.736 132.579C139.569 132.851 139.302 133.047 138.992 133.124C138.682 133.201 138.354 133.153 138.079 132.99C134.671 130.905 130.708 129.908 126.719 130.13C123.503 130.337 120.389 131.343 117.659 133.057C117.463 133.176 117.238 133.24 117.008 133.239Z" fill="black"/>
</svg>
