<svg width="203" height="102" viewBox="0 0 203 102" fill="none" xmlns="http://www.w3.org/2000/svg">
<path d="M65.2736 10.5873C65.6561 12.1426 65.6099 13.7637 65.1393 15.298C64.6688 16.8322 63.7893 18.2289 62.5839 19.3564C62.5839 19.3564 62.5571 19.3622 62.5507 19.3821C62.1007 19.7087 61.6504 20.046 61.2301 20.4138C61.2301 20.4138 61.2007 20.4201 61.1969 20.4394L61.1782 20.4434C60.1386 21.105 58.9769 21.5797 57.7524 21.8432C55.1975 22.3097 52.5497 21.8267 50.3683 20.4961C48.187 19.1656 46.6429 17.0918 46.0623 14.7128C45.4818 12.3337 45.9101 9.8358 47.257 7.74665C48.6038 5.65751 50.7636 4.14076 53.2801 3.51681C53.4193 3.48688 53.5478 3.45924 53.6897 3.42873C56.2346 2.98258 58.8645 3.47742 61.0281 4.80955C63.1917 6.14169 64.7211 8.2077 65.2958 10.5746L65.2736 10.5873Z" fill="#E07B02"/>
<path d="M51.2152 44.0615L33.9543 80.0895C32.8814 82.2475 30.9447 83.922 28.5643 84.7499C26.1838 85.5777 23.5518 85.4921 21.2391 84.5116C18.9264 83.531 17.1198 81.7347 16.211 79.5123C15.3023 77.2899 15.3648 74.8208 16.3851 72.6405L34.0656 35.7454L51.2152 44.0615Z" fill="url(#paint0_linear_1400_686)"/>
<path d="M59.1235 27.5423L51.2102 44.0612L34.0606 35.7452L15.1946 26.5616C12.9253 25.4592 11.2164 23.5564 10.4438 21.2717C9.67121 18.987 9.89816 16.5077 11.0748 14.3792C12.2513 12.2506 14.2812 10.6472 16.7178 9.92161C19.1544 9.19603 21.7981 9.40775 24.0673 10.5102L41.9953 19.2217L59.1235 27.5423Z" fill="url(#paint1_linear_1400_686)"/>
<path d="M65.8863 65.1392H78.3786C78.1023 63.7183 77.3918 62.5737 76.2472 61.7053C75.1025 60.7975 73.7803 60.3436 72.2804 60.3436C70.6622 60.3436 69.261 60.758 68.0769 61.5869C66.9323 62.4158 66.2021 63.5999 65.8863 65.1392ZM88.3842 70.2309V71.3557H65.7087C65.7087 75.8553 67.9585 78.1051 72.4581 78.1051C74.7868 78.1051 76.5037 77.1776 77.6089 75.3225H87.9698C87.1409 78.7169 85.2858 81.3022 82.4045 83.0783C79.5232 84.8545 76.2274 85.7426 72.5173 85.7426C67.3072 85.7426 63.0642 84.3216 59.7882 81.4798C56.5516 78.638 54.9334 74.6712 54.9334 69.5796C54.9334 64.5669 56.4727 60.6199 59.5514 57.7386C62.6695 54.8178 66.7349 53.3574 71.7476 53.3574C76.9971 53.3574 81.0823 54.877 84.003 57.9162C86.9238 60.9159 88.3842 65.0208 88.3842 70.2309ZM105.101 63.2447V84.7361H94.3255V63.2447H90.8324V54.3639H94.3255V45.2463H105.101V54.3639H111.199V63.2447H105.101ZM126.435 63.2447V84.7361H115.66V63.2447H112.167V54.3639H115.66V45.2463H126.435V54.3639H132.534V63.2447H126.435Z" fill="url(#paint2_linear_1400_686)"/>
<path d="M147.165 47.354V84.231H137.579V47.354H147.165Z" fill="url(#paint3_linear_1400_686)"/>
<ellipse cx="142.122" cy="36.5832" rx="6.25704" ry="6.12151" fill="#E07B02"/>
<defs>
<linearGradient id="paint0_linear_1400_686" x1="22.7077" y1="79.6357" x2="42.0123" y2="37.4316" gradientUnits="userSpaceOnUse">
<stop stop-color="#02A9F7"/>
<stop offset="0.19" stop-color="#02A7F4"/>
<stop offset="0.36" stop-color="#02A0E9"/>
<stop offset="0.51" stop-color="#0294D7"/>
<stop offset="0.66" stop-color="#0284BE"/>
<stop offset="0.81" stop-color="#026F9E"/>
<stop offset="0.94" stop-color="#02577A"/>
</linearGradient>
<linearGradient id="paint1_linear_1400_686" x1="50.0907" y1="33.0885" x2="5.57351" y2="9.47407" gradientUnits="userSpaceOnUse">
<stop offset="0.1" stop-color="#02A9F7"/>
<stop offset="0.2" stop-color="#02A4F0"/>
<stop offset="0.35" stop-color="#0298DD"/>
<stop offset="0.53" stop-color="#0283BD"/>
<stop offset="0.72" stop-color="#026691"/>
<stop offset="0.82" stop-color="#02577A"/>
</linearGradient>
<linearGradient id="paint2_linear_1400_686" x1="94.7485" y1="22.7361" x2="98.0761" y2="84.9093" gradientUnits="userSpaceOnUse">
<stop stop-color="#025D83"/>
<stop offset="1" stop-color="#02A9F7"/>
</linearGradient>
<linearGradient id="paint3_linear_1400_686" x1="168.416" y1="33.231" x2="171.165" y2="84.5915" gradientUnits="userSpaceOnUse">
<stop stop-color="#025D83"/>
<stop offset="1" stop-color="#02A9F7"/>
</linearGradient>
</defs>
</svg>
