<svg width="1439" height="529" viewBox="0 0 1439 529" fill="none" xmlns="http://www.w3.org/2000/svg">
<mask id="mask0_1391_873" style="mask-type:alpha" maskUnits="userSpaceOnUse" x="0" y="0" width="1440" height="529">
<rect y="0.802246" width="1440" height="528.198" fill="#3E3E3E"/>
</mask>
<g mask="url(#mask0_1391_873)">
<g clip-path="url(#clip0_1391_873)">
<path d="M874 39.1538C874 17.0624 891.909 -0.846191 914 -0.846191H1293.83C1315.92 -0.846191 1333.83 17.0624 1333.83 39.1538V873.035C1333.83 895.126 1315.92 913.035 1293.83 913.035H914C891.909 913.035 874 895.126 874 873.035V39.1538Z" fill="#02577A"/>
<rect x="1017" y="-21.0515" width="174" height="76.4189" rx="35.2703" fill="white"/>
<path d="M1048.51 279.285L1048.76 280.223C1049.24 282.065 1049.19 284.009 1048.58 285.881C1047.99 287.696 1046.88 289.399 1045.32 290.817C1045.29 290.838 1045.26 290.86 1045.23 290.883C1044.57 291.338 1043.86 291.843 1043.16 292.402C1041.75 293.228 1040.18 293.829 1038.52 294.17C1034.96 294.769 1031.34 294.117 1028.43 292.449C1025.51 290.781 1023.56 288.25 1022.83 285.444C1022.1 282.637 1022.61 279.607 1024.41 276.989C1026.21 274.369 1029.14 272.393 1032.65 271.566L1032.65 271.565L1032.65 271.565L1032.65 271.565L1032.65 271.565L1032.66 271.564L1032.66 271.564L1032.66 271.564L1032.66 271.563L1032.66 271.563L1032.66 271.563L1032.66 271.563L1032.66 271.562L1032.67 271.562L1032.67 271.562L1032.67 271.562L1032.67 271.561L1032.67 271.561L1032.67 271.561L1032.67 271.56L1032.68 271.56L1032.68 271.56L1032.68 271.56L1032.68 271.559L1032.68 271.559L1032.68 271.559L1032.68 271.558L1032.69 271.558L1032.69 271.558L1032.69 271.558L1032.69 271.557L1032.69 271.557L1032.69 271.557L1032.69 271.557L1032.7 271.556L1032.7 271.556L1032.7 271.556L1032.7 271.555L1032.7 271.555L1032.7 271.555L1032.7 271.555L1032.7 271.554L1032.71 271.554L1032.71 271.554L1032.71 271.554L1032.71 271.553L1032.71 271.553L1032.71 271.553L1032.71 271.552L1032.72 271.552L1032.72 271.552L1032.72 271.552L1032.72 271.551L1032.72 271.551L1032.72 271.551L1032.72 271.551L1032.72 271.55L1032.73 271.55L1032.73 271.55L1032.73 271.549L1032.73 271.549L1032.73 271.549L1032.73 271.549L1032.73 271.548L1032.74 271.548L1032.74 271.548L1032.74 271.547L1032.74 271.547L1032.74 271.547L1032.74 271.547L1032.74 271.546L1032.75 271.546L1032.75 271.546L1032.75 271.546L1032.75 271.545L1032.75 271.545L1032.75 271.545L1032.75 271.544L1032.75 271.544L1032.76 271.544L1032.76 271.544L1032.76 271.543L1032.76 271.543L1032.76 271.543L1032.76 271.543L1032.76 271.542L1032.77 271.542L1032.77 271.542L1032.77 271.541L1032.77 271.541L1032.77 271.541L1032.77 271.541L1032.77 271.54L1032.78 271.54L1032.78 271.54L1032.78 271.54L1032.78 271.539L1032.78 271.539L1032.78 271.539L1032.78 271.538L1032.78 271.538L1032.79 271.538L1032.79 271.538L1032.79 271.537L1032.79 271.537L1032.79 271.537L1032.79 271.537L1032.79 271.536L1032.8 271.536L1032.8 271.536L1032.8 271.535L1032.8 271.535L1032.8 271.535L1032.8 271.535L1032.8 271.534L1032.8 271.534L1032.81 271.534L1032.81 271.534L1032.81 271.533L1032.81 271.533L1032.81 271.533L1032.81 271.532L1032.81 271.532L1032.82 271.532L1032.82 271.532L1032.82 271.531L1032.82 271.531L1032.82 271.531L1032.82 271.531L1032.82 271.53L1032.82 271.53L1032.83 271.53L1032.83 271.53L1032.83 271.529L1032.83 271.529L1032.83 271.529L1032.83 271.528L1032.83 271.528L1032.84 271.528L1032.84 271.528L1032.84 271.527L1032.84 271.527L1032.84 271.527L1032.84 271.527L1032.84 271.526L1032.85 271.526L1032.85 271.526L1032.85 271.525L1032.85 271.525L1032.85 271.525L1032.85 271.525L1032.85 271.524L1032.85 271.524L1032.86 271.524L1032.86 271.524L1032.86 271.523L1032.86 271.523L1032.86 271.523L1032.86 271.522L1032.86 271.522L1032.87 271.522L1032.87 271.522L1032.87 271.521L1032.87 271.521L1032.87 271.521L1032.87 271.521L1032.87 271.52L1032.87 271.52L1032.88 271.52L1032.88 271.519L1032.88 271.519L1032.88 271.519L1032.88 271.519L1032.88 271.518L1032.88 271.518L1032.89 271.518L1032.89 271.518L1032.89 271.517L1032.89 271.517L1032.89 271.517L1032.89 271.516L1032.89 271.516L1032.89 271.516L1032.9 271.516L1032.9 271.515L1032.9 271.515L1032.9 271.515L1032.9 271.515L1032.9 271.514L1032.9 271.514L1032.91 271.514L1032.91 271.514L1032.91 271.513L1032.91 271.513L1032.91 271.513L1032.91 271.512L1032.91 271.512L1032.91 271.512L1032.92 271.512L1032.92 271.511L1032.92 271.511L1032.92 271.511L1032.92 271.511L1032.92 271.51L1032.92 271.51L1032.93 271.51L1032.93 271.509L1032.93 271.509L1032.93 271.509L1032.93 271.509L1032.93 271.508L1032.93 271.508L1032.93 271.508L1032.94 271.508L1032.94 271.507L1032.94 271.507L1032.94 271.507L1032.94 271.506L1032.94 271.506L1032.94 271.506L1032.95 271.506L1032.95 271.505L1032.95 271.505L1032.95 271.505L1032.95 271.505L1032.95 271.504L1032.95 271.504L1032.96 271.504L1032.96 271.503L1032.96 271.503L1032.96 271.503L1032.96 271.503L1032.96 271.502L1032.96 271.502L1032.96 271.502L1032.97 271.502L1032.97 271.501L1032.97 271.501L1032.97 271.501L1032.97 271.501L1032.97 271.5L1032.97 271.5L1032.98 271.5L1032.98 271.499L1032.98 271.499L1032.98 271.499L1032.98 271.499L1032.98 271.498L1032.98 271.498L1032.98 271.498L1032.99 271.498L1032.99 271.497L1032.99 271.497L1032.99 271.497L1032.99 271.496L1032.99 271.496L1032.99 271.496L1033 271.496L1033 271.495L1033 271.495L1033 271.495L1033 271.495L1033 271.494L1033 271.494L1033 271.494L1033.01 271.493L1033.01 271.493L1033.01 271.493L1033.01 271.493L1033.01 271.492L1033.01 271.492L1033.01 271.492L1033.02 271.492L1033.02 271.491L1033.02 271.491L1033.02 271.491L1033.02 271.49L1033.02 271.49L1033.02 271.49L1033.03 271.49L1033.03 271.489L1033.03 271.489L1033.03 271.489L1033.03 271.489L1033.03 271.488L1033.03 271.488L1033.03 271.488L1033.04 271.487L1033.04 271.487L1033.04 271.487L1033.04 271.487L1033.04 271.486L1033.04 271.486L1033.04 271.486L1033.05 271.486L1033.05 271.485L1033.05 271.485L1033.05 271.485L1033.05 271.484L1033.05 271.484L1033.05 271.484L1033.05 271.484L1033.06 271.483L1033.06 271.483L1033.06 271.483L1033.06 271.483L1033.06 271.482L1033.06 271.482L1033.06 271.482L1033.07 271.481L1033.07 271.481L1033.07 271.481L1033.07 271.481L1033.07 271.48L1033.07 271.48L1033.07 271.48L1033.08 271.48L1033.08 271.479L1033.08 271.479L1033.08 271.479L1033.08 271.478L1033.08 271.478L1033.08 271.478L1033.08 271.478L1033.09 271.477L1033.09 271.477L1033.09 271.477L1033.09 271.477L1033.09 271.476L1033.09 271.476L1033.09 271.476L1033.1 271.475L1033.1 271.475L1033.1 271.475L1033.1 271.475L1033.1 271.474L1033.1 271.474L1033.1 271.474L1033.11 271.474L1033.11 271.473L1033.11 271.473L1033.11 271.473L1033.11 271.472L1033.11 271.472L1033.11 271.472L1033.11 271.472L1033.12 271.471L1033.12 271.471L1033.12 271.471L1033.12 271.47L1033.12 271.47L1033.12 271.47L1033.12 271.47L1033.13 271.469L1033.13 271.469L1033.13 271.469L1033.13 271.469L1033.13 271.468L1033.13 271.468L1033.13 271.468L1033.14 271.467L1033.14 271.467L1033.14 271.467L1033.14 271.467L1033.14 271.466L1033.14 271.466L1033.14 271.466L1033.14 271.466L1033.15 271.465L1033.15 271.465L1033.15 271.465L1033.15 271.464L1033.15 271.464L1033.15 271.464L1033.15 271.464L1033.16 271.463L1033.16 271.463L1033.16 271.463L1033.16 271.462L1033.16 271.462L1033.16 271.462L1033.16 271.462L1033.17 271.461L1033.17 271.461L1033.17 271.461L1033.17 271.461L1033.17 271.46L1033.17 271.46L1033.17 271.46L1033.17 271.459L1033.18 271.459L1033.18 271.459L1033.18 271.459L1033.18 271.458L1033.18 271.458L1033.18 271.458L1033.18 271.457L1033.19 271.457L1033.19 271.457L1033.19 271.457L1033.19 271.456L1033.19 271.456L1033.19 271.456L1033.19 271.455L1033.2 271.455L1033.2 271.455L1033.2 271.455L1033.2 271.454L1033.2 271.454L1033.2 271.454L1033.2 271.454L1033.21 271.453L1033.21 271.453L1033.21 271.453L1033.21 271.452L1033.21 271.452L1033.21 271.452L1033.21 271.452L1033.21 271.451L1033.22 271.451L1033.22 271.451L1033.22 271.45L1033.22 271.45L1033.22 271.45L1033.22 271.45L1033.22 271.449L1033.23 271.449L1033.23 271.449L1033.23 271.448L1033.23 271.448C1036.77 270.879 1040.36 271.546 1043.25 273.213C1045.82 274.699 1047.64 276.859 1048.51 279.285Z" stroke="#F6F8FA" stroke-width="6.91775"/>
<path d="M1000.71 324.233L1023.44 334.582L995.682 388.992C994.273 391.64 991.679 393.787 988.385 394.862C985.083 395.941 981.466 395.813 978.35 394.572C975.246 393.336 972.949 391.13 971.818 388.532C970.694 385.949 970.741 383.033 972.06 380.377L1000.71 324.233Z" stroke="#F6F8FA" stroke-width="6.91775"/>
<path d="M968.224 301.991L968.222 301.99C965.193 300.608 963.037 298.288 962.078 295.626C961.122 292.971 961.372 290.023 962.913 287.407C964.463 284.774 967.198 282.704 970.581 281.758C973.964 280.812 977.586 281.106 980.628 282.494L1011.16 296.422L1011.16 296.422L1036.91 308.168L1026.5 328.578L1000.35 316.674L1000.35 316.672L968.224 301.991Z" stroke="#F6F8FA" stroke-width="6.91775"/>
<path d="M1053.66 399.414L1046.88 398.008L1045.15 406.331H1053.66V399.414ZM1075.4 399.414V406.331H1083.7L1082.2 398.164L1075.4 399.414ZM1092.09 417.138L1098.82 418.75L1100.86 410.22H1092.09V417.138ZM1074.06 417.138V410.22H1070.1L1068.1 413.631L1074.06 417.138ZM1053.35 410.234V403.316H1046.43V410.234H1053.35ZM1092.81 410.234V417.152H1099.73V410.234H1092.81ZM1060.43 400.819C1060.65 399.751 1061.11 399.184 1061.63 398.814C1062.22 398.389 1063.25 397.984 1064.78 397.984V384.149C1056.8 384.149 1048.82 388.653 1046.88 398.008L1060.43 400.819ZM1064.78 397.984C1067.02 397.984 1068.36 399.386 1068.59 400.663L1082.2 398.164C1080.58 389.342 1072.65 384.149 1064.78 384.149V397.984ZM1075.4 392.496H1053.66V406.331H1075.4V392.496ZM1099.73 408.276C1099.73 397.914 1096.66 388.68 1090.17 382.007C1083.66 375.305 1074.48 371.989 1063.86 371.989V385.824C1071.58 385.824 1076.88 388.176 1080.25 391.651C1083.66 395.154 1085.9 400.604 1085.9 408.276H1099.73ZM1063.86 371.989C1053.84 371.989 1044.71 375.095 1038.03 381.376C1031.3 387.708 1027.67 396.683 1027.67 407.142H1041.51C1041.51 399.98 1043.91 394.837 1047.51 391.457C1051.16 388.025 1056.67 385.824 1063.86 385.824V371.989ZM1027.67 407.142C1027.67 418.041 1031.65 427.06 1038.78 433.267C1045.79 439.364 1055.19 442.193 1065.2 442.193V428.357C1057.69 428.357 1051.78 426.239 1047.87 422.83C1044.07 419.53 1041.51 414.484 1041.51 407.142H1027.67ZM1065.2 442.193C1078.98 442.193 1094.79 435.564 1098.82 418.75L1085.37 415.526C1083.42 423.65 1075.53 428.357 1065.2 428.357V442.193ZM1092.09 410.22H1074.06V424.056H1092.09V410.22ZM1068.1 413.631C1067.61 414.451 1067.27 414.659 1067.11 414.74C1066.9 414.853 1066.35 415.064 1065.09 415.064V428.899C1067.86 428.899 1070.76 428.44 1073.51 427.007C1076.32 425.543 1078.44 423.329 1080.02 420.646L1068.1 413.631ZM1065.09 415.064C1062.41 415.064 1061.5 414.363 1061.23 414.092C1060.95 413.812 1060.26 412.889 1060.26 410.234H1046.43C1046.43 415.204 1047.75 420.155 1051.41 423.843C1055.09 427.538 1060.05 428.899 1065.09 428.899V415.064ZM1053.35 417.152H1092.81V403.316H1053.35V417.152ZM1099.73 410.234V408.276H1085.9V410.234H1099.73ZM1121.91 396.116V389.198H1114.99V396.116H1121.91ZM1132.52 396.116V403.034H1139.44V396.116H1132.52ZM1132.52 380.659H1139.44V373.741H1132.52V380.659ZM1121.91 380.659H1114.99V387.576H1121.91V380.659ZM1121.91 364.789H1128.83V357.871H1121.91V364.789ZM1103.16 364.789V357.871H1096.24V364.789H1103.16ZM1103.16 380.659V387.576H1110.07V380.659H1103.16ZM1097.08 380.659V373.741H1090.16V380.659H1097.08ZM1097.08 396.116H1090.16V403.034H1097.08V396.116ZM1103.16 396.116H1110.07V389.198H1103.16V396.116ZM1103.16 433.523H1096.24V440.441H1103.16V433.523ZM1121.91 433.523V440.441H1128.83V433.523H1121.91ZM1121.91 403.034H1132.52V389.198H1121.91V403.034ZM1139.44 396.116V380.659H1125.61V396.116H1139.44ZM1132.52 373.741H1121.91V387.576H1132.52V373.741ZM1128.83 380.659V364.789H1114.99V380.659H1128.83ZM1121.91 357.871H1103.16V371.707H1121.91V357.871ZM1096.24 364.789V380.659H1110.07V364.789H1096.24ZM1103.16 373.741H1097.08V387.576H1103.16V373.741ZM1090.16 380.659V396.116H1103.99V380.659H1090.16ZM1097.08 403.034H1103.16V389.198H1097.08V403.034ZM1096.24 396.116V433.523H1110.07V396.116H1096.24ZM1103.16 440.441H1121.91V426.605H1103.16V440.441ZM1128.83 433.523V396.116H1114.99V433.523H1128.83ZM1159.04 396.116V389.198H1152.13V396.116H1159.04ZM1169.66 396.116V403.034H1176.58V396.116H1169.66ZM1169.66 380.659H1176.58V373.741H1169.66V380.659ZM1159.04 380.659H1152.13V387.576H1159.04V380.659ZM1159.04 364.789H1165.96V357.871H1159.04V364.789ZM1140.29 364.789V357.871H1133.37V364.789H1140.29ZM1140.29 380.659V387.576H1147.21V380.659H1140.29ZM1134.21 380.659V373.741H1127.29V380.659H1134.21ZM1134.21 396.116H1127.29V403.034H1134.21V396.116ZM1140.29 396.116H1147.21V389.198H1140.29V396.116ZM1140.29 433.523H1133.37V440.441H1140.29V433.523ZM1159.04 433.523V440.441H1165.96V433.523H1159.04ZM1159.04 403.034H1169.66V389.198H1159.04V403.034ZM1176.58 396.116V380.659H1162.74V396.116H1176.58ZM1169.66 373.741H1159.04V387.576H1169.66V373.741ZM1165.96 380.659V364.789H1152.13V380.659H1165.96ZM1159.04 357.871H1140.29V371.707H1159.04V357.871ZM1133.37 364.789V380.659H1147.21V364.789H1133.37ZM1140.29 373.741H1134.21V387.576H1140.29V373.741ZM1127.29 380.659V396.116H1141.13V380.659H1127.29ZM1134.21 403.034H1140.29V389.198H1134.21V403.034ZM1133.37 396.116V433.523H1147.21V396.116H1133.37ZM1140.29 440.441H1159.04V426.605H1140.29V440.441ZM1165.96 433.523V396.116H1152.13V433.523H1165.96Z" fill="#F6F8FA"/>
<path d="M1194.88 369.411H1201.8V362.493H1194.88V369.411ZM1178.19 369.411V362.493H1171.28V369.411H1178.19ZM1178.19 433.597H1171.28V440.515H1178.19V433.597ZM1194.88 433.597V440.515H1201.8V433.597H1194.88ZM1194.88 362.493H1178.19V376.328H1194.88V362.493ZM1171.28 369.411V433.597H1185.11V369.411H1171.28ZM1178.19 440.515H1194.88V426.679H1178.19V440.515ZM1201.8 433.597V369.411H1187.96V433.597H1201.8Z" fill="#F6F8FA"/>
<circle cx="1186.86" cy="348.487" r="7.19593" stroke="#F6F8FA" stroke-width="6.91775"/>
</g>
<path d="M914 6.63723H1293.83C1311.68 6.63723 1326.15 21.1109 1326.15 38.9651V873.223C1326.15 891.077 1311.68 905.551 1293.83 905.551H914C896.146 905.551 881.672 891.078 881.672 873.223V38.9651C881.672 21.1109 896.146 6.63723 914 6.63723Z" stroke="white" stroke-width="15.3443"/>
<rect x="1333.83" y="109.727" width="8.17469" height="122.965" rx="4.08734" fill="white"/>
<rect x="1333.83" y="293.705" width="8.17469" height="63.8291" rx="4.08734" fill="white"/>
</g>
<defs>
<clipPath id="clip0_1391_873">
<path d="M874 39.1538C874 17.0624 891.909 -0.846191 914 -0.846191H1293.83C1315.92 -0.846191 1333.83 17.0624 1333.83 39.1538V873.035C1333.83 895.126 1315.92 913.035 1293.83 913.035H914C891.909 913.035 874 895.126 874 873.035V39.1538Z" fill="white"/>
</clipPath>
</defs>
</svg>
