<svg width="468" height="529" viewBox="0 0 468 529" fill="none" xmlns="http://www.w3.org/2000/svg">
<g clip-path="url(#clip0_1391_865)">
<path d="M0 39.1538C0 17.0624 17.9086 -0.846191 40 -0.846191H419.826C441.918 -0.846191 459.826 17.0624 459.826 39.1538V873.035C459.826 895.126 441.918 913.035 419.826 913.035H40C17.9086 913.035 0 895.126 0 873.035V39.1538Z" fill="#02577A"/>
<rect x="143" y="-21.0515" width="174" height="76.4189" rx="35.2703" fill="white"/>
<path d="M174.513 279.285L174.759 280.223C175.241 282.065 175.191 284.009 174.579 285.881C173.986 287.696 172.88 289.399 171.318 290.817C171.29 290.838 171.262 290.86 171.233 290.883C170.57 291.338 169.855 291.843 169.157 292.402C167.752 293.228 166.181 293.829 164.521 294.17C160.958 294.769 157.338 294.117 154.426 292.449C151.514 290.781 149.556 288.25 148.826 285.444C148.097 282.637 148.61 279.607 150.408 276.989C152.206 274.369 155.144 272.393 158.649 271.566L158.65 271.565L158.651 271.565L158.653 271.565L158.654 271.565L158.655 271.564L158.657 271.564L158.658 271.564L158.659 271.563L158.661 271.563L158.662 271.563L158.664 271.563L158.665 271.562L158.666 271.562L158.668 271.562L158.669 271.562L158.67 271.561L158.672 271.561L158.673 271.561L158.675 271.56L158.676 271.56L158.677 271.56L158.679 271.56L158.68 271.559L158.681 271.559L158.683 271.559L158.684 271.558L158.685 271.558L158.687 271.558L158.688 271.558L158.69 271.557L158.691 271.557L158.692 271.557L158.694 271.557L158.695 271.556L158.696 271.556L158.698 271.556L158.699 271.555L158.7 271.555L158.702 271.555L158.703 271.555L158.705 271.554L158.706 271.554L158.707 271.554L158.709 271.554L158.71 271.553L158.711 271.553L158.713 271.553L158.714 271.552L158.715 271.552L158.717 271.552L158.718 271.552L158.72 271.551L158.721 271.551L158.722 271.551L158.724 271.551L158.725 271.55L158.726 271.55L158.728 271.55L158.729 271.549L158.73 271.549L158.732 271.549L158.733 271.549L158.734 271.548L158.736 271.548L158.737 271.548L158.739 271.547L158.74 271.547L158.741 271.547L158.743 271.547L158.744 271.546L158.745 271.546L158.747 271.546L158.748 271.546L158.749 271.545L158.751 271.545L158.752 271.545L158.753 271.544L158.755 271.544L158.756 271.544L158.757 271.544L158.759 271.543L158.76 271.543L158.762 271.543L158.763 271.543L158.764 271.542L158.766 271.542L158.767 271.542L158.768 271.541L158.77 271.541L158.771 271.541L158.772 271.541L158.774 271.54L158.775 271.54L158.776 271.54L158.778 271.54L158.779 271.539L158.78 271.539L158.782 271.539L158.783 271.538L158.785 271.538L158.786 271.538L158.787 271.538L158.789 271.537L158.79 271.537L158.791 271.537L158.793 271.537L158.794 271.536L158.795 271.536L158.797 271.536L158.798 271.535L158.799 271.535L158.801 271.535L158.802 271.535L158.803 271.534L158.805 271.534L158.806 271.534L158.807 271.534L158.809 271.533L158.81 271.533L158.811 271.533L158.813 271.532L158.814 271.532L158.815 271.532L158.817 271.532L158.818 271.531L158.82 271.531L158.821 271.531L158.822 271.531L158.824 271.53L158.825 271.53L158.826 271.53L158.828 271.53L158.829 271.529L158.83 271.529L158.832 271.529L158.833 271.528L158.834 271.528L158.836 271.528L158.837 271.528L158.838 271.527L158.84 271.527L158.841 271.527L158.842 271.527L158.844 271.526L158.845 271.526L158.846 271.526L158.848 271.525L158.849 271.525L158.85 271.525L158.852 271.525L158.853 271.524L158.854 271.524L158.856 271.524L158.857 271.524L158.858 271.523L158.86 271.523L158.861 271.523L158.863 271.522L158.864 271.522L158.865 271.522L158.867 271.522L158.868 271.521L158.869 271.521L158.871 271.521L158.872 271.521L158.873 271.52L158.875 271.52L158.876 271.52L158.877 271.519L158.879 271.519L158.88 271.519L158.881 271.519L158.883 271.518L158.884 271.518L158.885 271.518L158.887 271.518L158.888 271.517L158.889 271.517L158.891 271.517L158.892 271.516L158.893 271.516L158.895 271.516L158.896 271.516L158.897 271.515L158.899 271.515L158.9 271.515L158.901 271.515L158.903 271.514L158.904 271.514L158.905 271.514L158.907 271.514L158.908 271.513L158.909 271.513L158.911 271.513L158.912 271.512L158.914 271.512L158.915 271.512L158.916 271.512L158.918 271.511L158.919 271.511L158.92 271.511L158.922 271.511L158.923 271.51L158.924 271.51L158.926 271.51L158.927 271.509L158.928 271.509L158.93 271.509L158.931 271.509L158.932 271.508L158.934 271.508L158.935 271.508L158.936 271.508L158.938 271.507L158.939 271.507L158.94 271.507L158.942 271.506L158.943 271.506L158.944 271.506L158.946 271.506L158.947 271.505L158.948 271.505L158.95 271.505L158.951 271.505L158.952 271.504L158.954 271.504L158.955 271.504L158.956 271.503L158.958 271.503L158.959 271.503L158.96 271.503L158.962 271.502L158.963 271.502L158.965 271.502L158.966 271.502L158.967 271.501L158.969 271.501L158.97 271.501L158.971 271.501L158.973 271.5L158.974 271.5L158.975 271.5L158.977 271.499L158.978 271.499L158.979 271.499L158.981 271.499L158.982 271.498L158.983 271.498L158.985 271.498L158.986 271.498L158.987 271.497L158.989 271.497L158.99 271.497L158.991 271.496L158.993 271.496L158.994 271.496L158.995 271.496L158.997 271.495L158.998 271.495L158.999 271.495L159.001 271.495L159.002 271.494L159.004 271.494L159.005 271.494L159.006 271.493L159.008 271.493L159.009 271.493L159.01 271.493L159.012 271.492L159.013 271.492L159.014 271.492L159.016 271.492L159.017 271.491L159.018 271.491L159.02 271.491L159.021 271.49L159.022 271.49L159.024 271.49L159.025 271.49L159.026 271.489L159.028 271.489L159.029 271.489L159.03 271.489L159.032 271.488L159.033 271.488L159.035 271.488L159.036 271.487L159.037 271.487L159.039 271.487L159.04 271.487L159.041 271.486L159.043 271.486L159.044 271.486L159.045 271.486L159.047 271.485L159.048 271.485L159.049 271.485L159.051 271.484L159.052 271.484L159.053 271.484L159.055 271.484L159.056 271.483L159.058 271.483L159.059 271.483L159.06 271.483L159.062 271.482L159.063 271.482L159.064 271.482L159.066 271.481L159.067 271.481L159.068 271.481L159.07 271.481L159.071 271.48L159.072 271.48L159.074 271.48L159.075 271.48L159.076 271.479L159.078 271.479L159.079 271.479L159.081 271.478L159.082 271.478L159.083 271.478L159.085 271.478L159.086 271.477L159.087 271.477L159.089 271.477L159.09 271.477L159.091 271.476L159.093 271.476L159.094 271.476L159.095 271.475L159.097 271.475L159.098 271.475L159.1 271.475L159.101 271.474L159.102 271.474L159.104 271.474L159.105 271.474L159.106 271.473L159.108 271.473L159.109 271.473L159.11 271.472L159.112 271.472L159.113 271.472L159.115 271.472L159.116 271.471L159.117 271.471L159.119 271.471L159.12 271.47L159.121 271.47L159.123 271.47L159.124 271.47L159.125 271.469L159.127 271.469L159.128 271.469L159.13 271.469L159.131 271.468L159.132 271.468L159.134 271.468L159.135 271.467L159.136 271.467L159.138 271.467L159.139 271.467L159.141 271.466L159.142 271.466L159.143 271.466L159.145 271.466L159.146 271.465L159.147 271.465L159.149 271.465L159.15 271.464L159.151 271.464L159.153 271.464L159.154 271.464L159.156 271.463L159.157 271.463L159.158 271.463L159.16 271.462L159.161 271.462L159.162 271.462L159.164 271.462L159.165 271.461L159.167 271.461L159.168 271.461L159.169 271.461L159.171 271.46L159.172 271.46L159.173 271.46L159.175 271.459L159.176 271.459L159.178 271.459L159.179 271.459L159.18 271.458L159.182 271.458L159.183 271.458L159.185 271.457L159.186 271.457L159.187 271.457L159.189 271.457L159.19 271.456L159.191 271.456L159.193 271.456L159.194 271.455L159.196 271.455L159.197 271.455L159.198 271.455L159.2 271.454L159.201 271.454L159.203 271.454L159.204 271.454L159.205 271.453L159.207 271.453L159.208 271.453L159.209 271.452L159.211 271.452L159.212 271.452L159.214 271.452L159.215 271.451L159.216 271.451L159.218 271.451L159.219 271.45L159.221 271.45L159.222 271.45L159.223 271.45L159.225 271.449L159.226 271.449L159.228 271.449L159.229 271.448L159.229 271.448C162.774 270.879 166.363 271.546 169.248 273.213C171.817 274.699 173.635 276.859 174.513 279.285Z" stroke="#F6F8FA" stroke-width="6.91775"/>
<path d="M126.714 324.233L149.445 334.582L121.682 388.992C120.273 391.64 117.679 393.787 114.385 394.862C111.083 395.941 107.466 395.813 104.35 394.572C101.246 393.336 98.9495 391.13 97.8184 388.532C96.6936 385.95 96.7406 383.033 98.0594 380.378L126.714 324.233Z" stroke="#F6F8FA" stroke-width="6.91775"/>
<path d="M94.2242 301.991L94.2217 301.99C91.1929 300.608 89.0365 298.288 88.0779 295.626C87.1217 292.971 87.3724 290.023 88.9126 287.407C90.4629 284.774 93.198 282.704 96.5806 281.758C99.9635 280.812 103.586 281.106 106.628 282.494C106.628 282.494 106.628 282.494 106.628 282.494L137.157 296.422L137.157 296.422L162.908 308.168L152.495 328.578L126.35 316.674L126.345 316.672L94.2242 301.991Z" stroke="#F6F8FA" stroke-width="6.91775"/>
<path d="M179.655 399.414L172.882 398.008L171.155 406.331H179.655V399.414ZM201.399 399.414V406.331H209.703L208.203 398.164L201.399 399.414ZM218.093 417.138L224.82 418.75L226.865 410.22H218.093V417.138ZM200.059 417.138V410.22H196.103L194.097 413.631L200.059 417.138ZM179.346 410.234V403.316H172.429V410.234H179.346ZM218.814 410.234V417.152H225.732V410.234H218.814ZM186.429 400.819C186.651 399.751 187.112 399.184 187.628 398.814C188.22 398.389 189.246 397.984 190.785 397.984V384.149C182.796 384.149 174.824 388.653 172.882 398.008L186.429 400.819ZM190.785 397.984C193.018 397.984 194.36 399.386 194.595 400.663L208.203 398.164C206.583 389.342 198.65 384.149 190.785 384.149V397.984ZM201.399 392.496H179.655V406.331H201.399V392.496ZM225.732 408.276C225.732 397.914 222.662 388.68 216.175 382.007C209.66 375.305 200.478 371.989 189.857 371.989V385.824C197.58 385.824 202.876 388.176 206.254 391.651C209.66 395.154 211.896 400.604 211.896 408.276H225.732ZM189.857 371.989C179.84 371.989 170.714 375.095 164.032 381.376C157.298 387.708 153.674 396.683 153.674 407.142H167.509C167.509 399.98 169.913 394.837 173.509 391.457C177.159 388.025 182.666 385.824 189.857 385.824V371.989ZM153.674 407.142C153.674 418.041 157.652 427.06 164.783 433.267C171.79 439.364 181.191 442.193 191.197 442.193V428.357C183.685 428.357 177.783 426.239 173.866 422.83C170.075 419.53 167.509 414.484 167.509 407.142H153.674ZM191.197 442.193C204.982 442.193 220.79 435.564 224.82 418.75L211.366 415.526C209.418 423.65 201.526 428.357 191.197 428.357V442.193ZM218.093 410.22H200.059V424.056H218.093V410.22ZM194.097 413.631C193.614 414.451 193.267 414.659 193.111 414.74C192.895 414.853 192.351 415.064 191.094 415.064V428.899C193.855 428.899 196.764 428.44 199.511 427.007C202.317 425.543 204.443 423.329 206.022 420.646L194.097 413.631ZM191.094 415.064C188.41 415.064 187.499 414.363 187.229 414.092C186.951 413.812 186.264 412.889 186.264 410.234H172.429C172.429 415.204 173.751 420.155 177.414 423.843C181.086 427.538 186.049 428.899 191.094 428.899V415.064ZM179.346 417.152H218.814V403.316H179.346V417.152ZM225.732 410.234V408.276H211.896V410.234H225.732ZM247.91 396.116V389.198H240.993V396.116H247.91ZM258.525 396.116V403.034H265.442V396.116H258.525ZM258.525 380.659H265.442V373.741H258.525V380.659ZM247.91 380.659H240.993V387.576H247.91V380.659ZM247.91 364.789H254.828V357.871H247.91V364.789ZM229.155 364.789V357.871H222.238V364.789H229.155ZM229.155 380.659V387.576H236.073V380.659H229.155ZM223.076 380.659V373.741H216.158V380.659H223.076ZM223.076 396.116H216.158V403.034H223.076V396.116ZM229.155 396.116H236.073V389.198H229.155V396.116ZM229.155 433.523H222.238V440.441H229.155V433.523ZM247.91 433.523V440.441H254.828V433.523H247.91ZM247.91 403.034H258.525V389.198H247.91V403.034ZM265.442 396.116V380.659H251.607V396.116H265.442ZM258.525 373.741H247.91V387.576H258.525V373.741ZM254.828 380.659V364.789H240.993V380.659H254.828ZM247.91 357.871H229.155V371.707H247.91V357.871ZM222.238 364.789V380.659H236.073V364.789H222.238ZM229.155 373.741H223.076V387.576H229.155V373.741ZM216.158 380.659V396.116H229.993V380.659H216.158ZM223.076 403.034H229.155V389.198H223.076V403.034ZM222.238 396.116V433.523H236.073V396.116H222.238ZM229.155 440.441H247.91V426.605H229.155V440.441ZM254.828 433.523V396.116H240.993V433.523H254.828ZM285.044 396.116V389.198H278.127V396.116H285.044ZM295.659 396.116V403.034H302.576V396.116H295.659ZM295.659 380.659H302.576V373.741H295.659V380.659ZM285.044 380.659H278.127V387.576H285.044V380.659ZM285.044 364.789H291.962V357.871H285.044V364.789ZM266.289 364.789V357.871H259.372V364.789H266.289ZM266.289 380.659V387.576H273.207V380.659H266.289ZM260.21 380.659V373.741H253.292V380.659H260.21ZM260.21 396.116H253.292V403.034H260.21V396.116ZM266.289 396.116H273.207V389.198H266.289V396.116ZM266.289 433.523H259.372V440.441H266.289V433.523ZM285.044 433.523V440.441H291.962V433.523H285.044ZM285.044 403.034H295.659V389.198H285.044V403.034ZM302.576 396.116V380.659H288.741V396.116H302.576ZM295.659 373.741H285.044V387.576H295.659V373.741ZM291.962 380.659V364.789H278.127V380.659H291.962ZM285.044 357.871H266.289V371.707H285.044V357.871ZM259.372 364.789V380.659H273.207V364.789H259.372ZM266.289 373.741H260.21V387.576H266.289V373.741ZM253.292 380.659V396.116H267.127V380.659H253.292ZM260.21 403.034H266.289V389.198H260.21V403.034ZM259.372 396.116V433.523H273.207V396.116H259.372ZM266.289 440.441H285.044V426.605H266.289V440.441ZM291.962 433.523V396.116H278.127V433.523H291.962Z" fill="#F6F8FA"/>
<path d="M320.879 369.411H327.797V362.493H320.879V369.411ZM304.194 369.411V362.493H297.277V369.411H304.194ZM304.194 433.597H297.277V440.515H304.194V433.597ZM320.879 433.597V440.515H327.797V433.597H320.879ZM320.879 362.493H304.194V376.328H320.879V362.493ZM297.277 369.411V433.597H311.112V369.411H297.277ZM304.194 440.515H320.879V426.679H304.194V440.515ZM327.797 433.597V369.411H313.962V433.597H327.797Z" fill="#F6F8FA"/>
<circle cx="312.856" cy="348.487" r="7.19593" stroke="#F6F8FA" stroke-width="6.91775"/>
</g>
<path d="M7.67215 38.9651C7.67215 21.1109 22.1458 6.63723 40 6.63723H419.826C437.68 6.63723 452.154 21.1109 452.154 38.9651V873.223C452.154 891.078 437.68 905.551 419.826 905.551H40C22.1458 905.551 7.67215 891.078 7.67215 873.223V38.9651Z" stroke="white" stroke-width="15.3443"/>
<rect x="459.826" y="109.727" width="8.17469" height="122.965" rx="4.08734" fill="white"/>
<rect x="459.826" y="293.705" width="8.17469" height="63.8291" rx="4.08734" fill="white"/>
<defs>
<clipPath id="clip0_1391_865">
<path d="M0 39.1538C0 17.0624 17.9086 -0.846191 40 -0.846191H419.826C441.918 -0.846191 459.826 17.0624 459.826 39.1538V873.035C459.826 895.126 441.918 913.035 419.826 913.035H40C17.9086 913.035 0 895.126 0 873.035V39.1538Z" fill="white"/>
</clipPath>
</defs>
</svg>
